<svg id="Design_Development" data-name="Design &amp; Development" xmlns="http://www.w3.org/2000/svg" viewBox="0 0 1047.05 946.58"><defs><style>.cls-1{fill:#ededed;}.cls-2{fill:#273142;}.cls-3{fill:#35ac45;}.cls-4{fill:#a8c422;}.cls-5{fill:#d7d7d7;}.cls-6{fill:#f3f3f3;}.cls-7{fill:#706f6f;}.cls-8{fill:#afafaf;}.cls-9{fill:#f6f6f6;}.cls-10{fill:#c5d0de;}.cls-11{fill:#f7981c;}.cls-12{fill:#b0b0b0;}.cls-13{fill:#432918;}.cls-14{fill:#f5f5f5;}.cls-15{fill:#878787;}.cls-16{fill:#352f2d;}.cls-17{fill:#de1820;}.cls-18{fill:#f64f55;}.cls-19{fill:#2c373b;}.cls-20{fill:#8feae1;}.cls-21{fill:#ccfef8;opacity:0.5;}.cls-22{fill:#39b54a;}.cls-23{fill:#1991eb;}.cls-24{fill:#f85359;}</style></defs><title>10</title><g id="Blogging_Services" data-name="Blogging Services"><g id="Background"><circle id="Background_2" data-name="Background 2" class="cls-1" cx="523.41" cy="503.91" r="442.67"/></g><g id="Blogging_Services-2" data-name="Blogging Services"><g id="Globe"><path class="cls-2" d="M5143,7120.56q-3.14-12.54-7.12-24.73a383.13,383.13,0,0,0-747.6,118.37c0,211.61,171.54,383.14,383.14,383.14,119.73,0,226.61-54.92,296.86-140.94A383.67,383.67,0,0,0,5143,7120.56Z" transform="translate(-4144.26 -6829.09)"/><path class="cls-3" d="M4474.17,7160.91c15,38.34,15,13.33,41.67,21.67s55.84,10.84,78.35,33.34,40,1.67,40,26.67-33.34,41.67-33.34,81.68,5,60,61.67,81.67,40,6.67,40,63.34,10.83,67.51,21.67,78.35,36.67,18.33,36.67-10-20-45,0-65,9.17-15.83,40-46.67,53.34-46.15,68.34-83.09,65-53.6,0-76.94-92.49,3.62-119.44-23.33-73.92-43.34-85.59-43.34-48.34-8.33-66.67-26.67-31.67-50-48.34-33.33-35,6.67-35-8.33,18.34-41.67,25-41.67,58.34,50,110,50,31.67-1.67,31.67-20-5-20,46.68-30,140,3.33,140-38.34,23.34-51.67-21.67-78.35-15,1.67-56.67-16.67-20-41.67,10-41.67,11.67,5,46.67,21.67,50-3.33,31.67-21.67-20-31.67-66.67-31.67-92.51-25.83-118.35,0-45,60-83.35,45c-19.34-7.57-34.86-21.93-51.92-31.08a383.75,383.75,0,0,0-155,215.13c10.45,5.07,21.59,10.17,31.94,14.31C4467.5,7139.24,4459.17,7122.57,4474.17,7160.91Z" transform="translate(-4144.26 -6829.09)"/><path class="cls-3" d="M5143,7120.56c-14.37,2.24-39.19,4.56-57.12-2.17-26.67-10-21.67-21.67-45-21.67s-38.89-5-70,26.11-78.34,73.9-13.33,107.23,56.67,61.67,95,46.67,58.78-6.32,48.33,4.12-33.33,36.42-33.33,69.49-1.65,55.38,1.67,78.07c1.21,8.24-.22,18.63-.94,28A383.67,383.67,0,0,0,5143,7120.56Z" transform="translate(-4144.26 -6829.09)"/><path class="cls-4" d="M4984.23,6931.71c-13.63,26.6,46.67,13.33,46.67,28.33s-15,13.33-25,23.33,5,20,5,28.34-28.34,8.33-48.34,8.33-18.33,23.34-18.33,38.34,25.17,26.84,36.67,15.35,23.34-18.68,43.35-18.68,13.39,19.95,25.1,31.67,26.56-5,26.56-13-34.17-19.51-25-28.68,23.33,11.67,31.67,11.67,1,14,26.67,39.71c14,14,22.16,7.87,26.67-.6A383.92,383.92,0,0,0,4989.22,6899C4985.47,6904,4993.13,6914.36,4984.23,6931.71Z" transform="translate(-4144.26 -6829.09)"/></g><g id="Computer"><path class="cls-5" d="M4628.6,7571.5c0-5.89-6.62-10.66-14.8-10.66H4509.62c-8.17,0-14.8,4.77-14.8,10.66l-25.22,93.25c0,5.88,6.62,10.66,14.79,10.66h160.91c8.17,0,14.79-4.77,14.79-10.66Z" transform="translate(-4144.26 -6829.09)"/><path class="cls-6" d="M4946.66,7560.51a14.8,14.8,0,0,1-14.79,14.8h-721.4a14.8,14.8,0,0,1-14.79-14.8V7072.19a14.79,14.79,0,0,1,14.79-14.79h721.4a14.79,14.79,0,0,1,14.79,14.79Z" transform="translate(-4144.26 -6829.09)"/><rect class="cls-7" x="51.42" y="256.93" width="750.98" height="416.76"/><path class="cls-8" d="M4732.58,7666.87a14.8,14.8,0,0,1-14.8,14.8H4413.65a14.8,14.8,0,0,1-14.8-14.8V7652a14.79,14.79,0,0,1,14.8-14.79h304.14a14.79,14.79,0,0,1,14.8,14.79Z" transform="translate(-4144.26 -6829.09)"/><polygon class="cls-9" points="792.72 286.52 51.42 286.52 51.42 636.7 564.89 636.7 639.74 636.7 802.4 636.7 802.4 439.38 802.4 348.59 802.4 321.59 802.4 286.52 792.72 286.52"/><rect class="cls-10" x="51.42" y="286.52" width="750.98" height="30.36"/><circle class="cls-1" cx="775.55" cy="301.98" r="6.5"/><circle class="cls-1" cx="750.39" cy="301.98" r="6.5"/><circle class="cls-1" cx="725.24" cy="301.98" r="6.5"/><path class="cls-1" d="M4334,7131.07a6.5,6.5,0,0,1-6.5,6.5h-86.37a6.5,6.5,0,0,1-6.5-6.5h0a6.51,6.51,0,0,1,6.5-6.5h86.37a6.5,6.5,0,0,1,6.5,6.5Z" transform="translate(-4144.26 -6829.09)"/><rect class="cls-2" x="95.97" y="339.77" width="673.08" height="90.67"/><rect class="cls-11" x="643.35" y="444.28" width="125.7" height="80.41"/><rect class="cls-11" x="643.35" y="538.73" width="125.7" height="80.41"/><rect class="cls-11" x="480.87" y="444.28" width="125.71" height="80.41"/><rect class="cls-11" x="480.87" y="538.73" width="125.71" height="80.41"/><rect class="cls-11" x="318.39" y="444.28" width="125.71" height="80.41"/><rect class="cls-11" x="318.39" y="538.73" width="125.71" height="80.41"/><rect class="cls-12" x="95.97" y="444.28" width="192" height="30.16"/><rect class="cls-12" x="95.97" y="484.28" width="192" height="30.16"/><rect class="cls-12" x="95.97" y="524.28" width="192" height="30.16"/><rect class="cls-12" x="95.97" y="564.28" width="192" height="30.16"/></g><g id="Organizer"><rect class="cls-13" x="476.53" y="562.98" width="561.33" height="369.33" rx="16" ry="16"/><rect class="cls-14" x="505.86" y="581.64" width="242.67" height="330.67" rx="16" ry="16"/><path class="cls-14" d="M5147.45,7725.4a16,16,0,0,1-16,16H4920.78a16,16,0,0,1-16-16V7426.73a16,16,0,0,1,16-16h210.66a16,16,0,0,1,16,16Z" transform="translate(-4144.26 -6829.09)"/><path class="cls-15" d="M4919.45,7441.4a4.67,4.67,0,0,1-4.67,4.67h-32.67a4.66,4.66,0,0,1-4.66-4.67h0a4.66,4.66,0,0,1,4.66-4.67h32.67a4.67,4.67,0,0,1,4.67,4.67Z" transform="translate(-4144.26 -6829.09)"/><path class="cls-15" d="M4919.45,7468.07a4.67,4.67,0,0,1-4.67,4.67h-32.67a4.66,4.66,0,0,1-4.66-4.67h0a4.66,4.66,0,0,1,4.66-4.67h32.67a4.67,4.67,0,0,1,4.67,4.67Z" transform="translate(-4144.26 -6829.09)"/><path class="cls-15" d="M4919.45,7494.73a4.67,4.67,0,0,1-4.67,4.67h-32.67a4.66,4.66,0,0,1-4.66-4.67h0a4.66,4.66,0,0,1,4.66-4.67h32.67a4.67,4.67,0,0,1,4.67,4.67Z" transform="translate(-4144.26 -6829.09)"/><path class="cls-15" d="M4919.45,7650.73a4.67,4.67,0,0,1-4.67,4.67h-32.67a4.67,4.67,0,0,1-4.66-4.67h0a4.66,4.66,0,0,1,4.66-4.66h32.67a4.67,4.67,0,0,1,4.67,4.66Z" transform="translate(-4144.26 -6829.09)"/><path class="cls-15" d="M4919.45,7677.4a4.67,4.67,0,0,1-4.67,4.67h-32.67a4.67,4.67,0,0,1-4.66-4.67h0a4.66,4.66,0,0,1,4.66-4.66h32.67a4.67,4.67,0,0,1,4.67,4.66Z" transform="translate(-4144.26 -6829.09)"/><path class="cls-15" d="M4919.45,7704.06a4.67,4.67,0,0,1-4.67,4.67h-32.67a4.67,4.67,0,0,1-4.66-4.67h0a4.66,4.66,0,0,1,4.66-4.66h32.67a4.67,4.67,0,0,1,4.67,4.66Z" transform="translate(-4144.26 -6829.09)"/><rect class="cls-7" x="528.97" y="612.31" width="187.56" height="9.34"/><rect class="cls-7" x="528.97" y="628.31" width="187.56" height="9.34"/><rect class="cls-7" x="528.97" y="642.98" width="187.56" height="9.33"/><rect class="cls-7" x="528.97" y="705.64" width="187.56" height="9.34"/><rect class="cls-7" x="528.97" y="721.64" width="135.22" height="9.34"/><rect class="cls-7" x="528.97" y="736.32" width="163.89" height="9.33"/><rect class="cls-7" x="528.97" y="798.98" width="141.78" height="9.34"/><rect class="cls-7" x="528.97" y="814.97" width="172.44" height="9.34"/><rect class="cls-7" x="528.97" y="829.65" width="125.77" height="9.33"/><rect class="cls-7" x="795.63" y="612.31" width="187.56" height="9.34"/><rect class="cls-7" x="795.63" y="628.31" width="141.56" height="9.34"/><rect class="cls-7" x="795.63" y="642.98" width="168.89" height="9.33"/></g><g id="Pen"><path class="cls-16" d="M5008.53,7327.75a15.91,15.91,0,0,0,20.89-8.37l16.57-38.72a15.92,15.92,0,0,0-8.37-20.9l-10.07-4.3a15.93,15.93,0,0,0-20.9,8.37l-16.56,38.72a15.92,15.92,0,0,0,8.37,20.9Z" transform="translate(-4144.26 -6829.09)"/><path class="cls-17" d="M4847,7620.3a16.1,16.1,0,0,1,1.23-5.22l120-280.4,7.05-16.46,6.23-14.56c.12-.3.27-.57.41-.85a15.91,15.91,0,0,1,20.48-7.53l23.79,10.18a15.92,15.92,0,0,1,8.37,20.9l-6.23,14.57-7,16.46-120,280.4a15.82,15.82,0,0,1-3.11,4.69c-.46.64-.94,1.26-1.43,1.88-12.49,15.61-34,21.89-38.24,20.05C4853.18,7662.11,4842.84,7640.85,4847,7620.3Z" transform="translate(-4144.26 -6829.09)"/><path class="cls-16" d="M4850.12,7681.54a5.31,5.31,0,0,0,7-2.79l10.83-25.3a5.31,5.31,0,0,0-2.79-7h0a5.31,5.31,0,0,0-7,2.79l-10.82,25.31a5.29,5.29,0,0,0,2.79,7Z" transform="translate(-4144.26 -6829.09)"/><path class="cls-18" d="M4858.54,7664.4c-5.36-2.29-15.69-23.55-11.52-44.1a16.1,16.1,0,0,1,1.23-5.22l120-280.4,7.05-16.46,6.23-14.56c.12-.3.27-.57.41-.85l-85.14,341.56C4884.28,7660,4862.81,7666.24,4858.54,7664.4Z" transform="translate(-4144.26 -6829.09)"/><rect class="cls-16" x="4989.32" y="7308.94" width="17.91" height="57.71" transform="translate(-7858.45 2217.18) rotate(-66.83)"/><path class="cls-16" d="M4952.4,7428.42A6.52,6.52,0,0,0,4961,7425l45.66-106.73a6.52,6.52,0,0,0-3.43-8.56h0a6.52,6.52,0,0,0-8.56,3.44L4949,7419.86a6.52,6.52,0,0,0,3.43,8.56Z" transform="translate(-4144.26 -6829.09)"/></g><g id="Glasses"><path class="cls-19" d="M4157.35,7766.24a11.16,11.16,0,0,1-10.3-6.85c-4.26-10.18-3.63-20.25,1.78-28.39,5.61-8.44,15.85-13.68,26.71-13.68h0c54.21,0,121.34.6,122,.61a11.17,11.17,0,0,1-.1,22.33h-.1c-.67,0-67.7-.61-121.81-.61h0c-3.32,0-6.65,1.52-8.11,3.72-1.17,1.76-1.09,4.25.22,7.39a11.16,11.16,0,0,1-10.29,15.49Z" transform="translate(-4144.26 -6829.09)"/><path class="cls-20" d="M4386.08,7654.63a37.47,37.47,0,0,0-17.1-9,37.91,37.91,0,0,0-8.3-.93H4234.21a37.56,37.56,0,0,0-37.56,37.57v23.47a37.56,37.56,0,0,0,37.56,37.57h126.48a37.57,37.57,0,0,0,37.57-37.57v-23.47A37.48,37.48,0,0,0,4386.08,7654.63Z" transform="translate(-4144.26 -6829.09)"/><path class="cls-21" d="M4263,7716a14.6,14.6,0,0,0,20.61.92l68.62-62.75a14.51,14.51,0,0,0,4.67-9.43h-37.58L4264,7695.4A14.59,14.59,0,0,0,4263,7716Z" transform="translate(-4144.26 -6829.09)"/><path class="cls-21" d="M4332.75,7691.1a9.08,9.08,0,0,0,12.82.57l40.51-37a37.47,37.47,0,0,0-17.1-9l-35.66,32.6A9.07,9.07,0,0,0,4332.75,7691.1Z" transform="translate(-4144.26 -6829.09)"/><path class="cls-19" d="M4707.1,7766.24a11.16,11.16,0,0,0,10.3-6.85c4.26-10.18,3.63-20.25-1.78-28.39-5.62-8.44-15.85-13.68-26.71-13.68h0c-54.21,0-121.34.6-122,.61a11.17,11.17,0,0,0,.1,22.33h.1c.67,0,67.7-.61,121.81-.61h0c3.32,0,6.65,1.52,8.11,3.72,1.17,1.76,1.09,4.25-.22,7.39a11.16,11.16,0,0,0,10.29,15.49Z" transform="translate(-4144.26 -6829.09)"/><path class="cls-20" d="M4657.24,7654.63a37.47,37.47,0,0,0-17.1-9,37.91,37.91,0,0,0-8.3-.93H4505.36a37.56,37.56,0,0,0-37.57,37.57v23.47a37.56,37.56,0,0,0,37.57,37.57h126.48a37.56,37.56,0,0,0,37.57-37.57v-23.47A37.49,37.49,0,0,0,4657.24,7654.63Z" transform="translate(-4144.26 -6829.09)"/><path class="cls-21" d="M4603.91,7691.1a9.07,9.07,0,0,0,12.82.57l40.51-37a37.47,37.47,0,0,0-17.1-9l-35.66,32.6A9.07,9.07,0,0,0,4603.91,7691.1Z" transform="translate(-4144.26 -6829.09)"/><path class="cls-19" d="M4632.6,7633.41l-126.46-1.57h-.62a49.89,49.89,0,0,0-49.5,45.57,99.33,99.33,0,0,0-23.91-3.11,93.12,93.12,0,0,0-22,2.47,49.76,49.76,0,0,0-48.66-43.35L4235,7631.84h-.62a49.87,49.87,0,0,0-49.68,49.08l-.29,23.47a49.76,49.76,0,0,0,49.08,50.31l126.47,1.56h.63a49.87,49.87,0,0,0,49.67-49.08l.05-4c3.8-1.43,10.94-3.35,21.83-3.35a79.93,79.93,0,0,1,23.44,3.87v.7a49.76,49.76,0,0,0,49.08,50.31l126.47,1.56h.62a49.88,49.88,0,0,0,49.68-49.08l.29-23.47A49.75,49.75,0,0,0,4632.6,7633.41ZM4386,7706.88a25.53,25.53,0,0,1-25.43,25.12l-126.8-1.56a25.47,25.47,0,0,1-25.12-25.75l.29-23.47a25.52,25.52,0,0,1,25.43-25.12l126.79,1.56a25.47,25.47,0,0,1,25.12,25.75Zm271.16,0A25.53,25.53,0,0,1,4631.7,7732l-126.79-1.56a25.47,25.47,0,0,1-25.12-25.75l.29-23.47a25.53,25.53,0,0,1,25.44-25.12l126.79,1.56a25.47,25.47,0,0,1,25.12,25.75Z" transform="translate(-4144.26 -6829.09)"/><path class="cls-19" d="M4471.54,7736.13h-78.46a10.07,10.07,0,1,1,0-20.15h78.46a10.07,10.07,0,1,1,0,20.15Z" transform="translate(-4144.26 -6829.09)"/><path class="cls-14" d="M4646,7706.81c-2.84.25-1.21-31.52-7.06-37.4s-37.62-4.31-37.38-7.12c.21-2.54,30-4.56,36-10.57s8.22-35.77,10.78-36c2.78-.2,2.46,30.49,8.14,36.18s36.29,5.27,36.17,7.94-30.59,4.1-36.75,10.23S4648.49,7706.59,4646,7706.81Z" transform="translate(-4144.26 -6829.09)"/></g><g id="Chat"><g id="Chat-2" data-name="Chat"><path class="cls-22" d="M4779.41,7181.54c-28.32-19.73-45.82-46.89-45.82-76.89,0-60.28,70.65-109.15,157.81-109.15s157.81,48.87,157.81,109.15-70.66,109.14-157.81,109.14c-30.4,0-58.8-6-82.89-16.26-31.33,19.54-61.77,1.05-61.77,1.05C4767.2,7198.59,4775.8,7189.11,4779.41,7181.54Z" transform="translate(-4144.26 -6829.09)"/><circle class="cls-9" cx="808.75" cy="270.9" r="20.78"/><circle class="cls-9" cx="739.47" cy="270.9" r="20.78"/><circle class="cls-9" cx="670.19" cy="270.9" r="20.78"/></g><g id="Chat-3" data-name="Chat"><path class="cls-11" d="M5143.62,7094.65c29.48-20.54,47.69-48.82,47.69-80,0-62.75-73.55-113.61-164.26-113.61s-164.27,50.87-164.27,113.61,73.54,113.61,164.27,113.61c31.65,0,61.2-6.19,86.28-16.91,32.62,20.33,64.3,1.09,64.3,1.09C5156.33,7112.4,5147.38,7102.53,5143.62,7094.65Z" transform="translate(-4144.26 -6829.09)"/><path class="cls-9" d="M4984.56,7009.77a21.63,21.63,0,1,1-21.63-21.64A21.63,21.63,0,0,1,4984.56,7009.77Z" transform="translate(-4144.26 -6829.09)"/><path class="cls-9" d="M5056.67,7009.77a21.63,21.63,0,1,1-21.63-21.64A21.62,21.62,0,0,1,5056.67,7009.77Z" transform="translate(-4144.26 -6829.09)"/><path class="cls-9" d="M5128.79,7009.77a21.63,21.63,0,1,1-21.64-21.64A21.63,21.63,0,0,1,5128.79,7009.77Z" transform="translate(-4144.26 -6829.09)"/></g></g><g id="Gear"><path class="cls-11" d="M4362.17,7026.09a103.28,103.28,0,0,0,18.52-10.25l-2.9-23.44a81,81,0,0,0,8.65-9.25l23.57,1.3a103.64,103.64,0,0,0,8.95-19.19L4402.83,6948a83.17,83.17,0,0,0,1.57-12.58l19.84-12.79a101.72,101.72,0,0,0-4-20.76l-23.21-4.47c-.87-1.9-1.8-3.8-2.83-5.66s-2.15-3.66-3.29-5.41l8.54-22a102,102,0,0,0-15.44-14.44l-21.39,10a84.06,84.06,0,0,0-11.48-5.35l-6-22.83a103.45,103.45,0,0,0-21-2.62l-11.42,20.66a81,81,0,0,0-12.44,2.41l-18.31-14.91a104.08,104.08,0,0,0-18.52,10.25l2.9,23.44a81.57,81.57,0,0,0-8.65,9.25l-23.57-1.3a102.5,102.5,0,0,0-8.94,19.19l16.13,17.25a82.3,82.3,0,0,0-1.57,12.58l-19.84,12.79a101.42,101.42,0,0,0,4,20.75l23.21,4.47c.87,1.91,1.8,3.8,2.83,5.66s2.14,3.66,3.29,5.41l-8.54,22a101.92,101.92,0,0,0,15.44,14.44l21.38-10a82.4,82.4,0,0,0,11.49,5.35l6,22.83a103,103,0,0,0,21,2.62l11.42-20.66a81.72,81.72,0,0,0,12.44-2.41Z" transform="translate(-4144.26 -6829.09)"/><path class="cls-23" d="M4342.79,6961.35a34.94,34.94,0,1,1,10.68-48.25A35,35,0,0,1,4342.79,6961.35Z" transform="translate(-4144.26 -6829.09)"/><g id="Gear-2" data-name="Gear"><path class="cls-24" d="M4536.43,7040.87a78.74,78.74,0,0,0,13.61-9l-3.65-17.83a61.69,61.69,0,0,0,6.09-7.64l18.19-.43a78.89,78.89,0,0,0,5.72-15.28L4563,6978.43a64.26,64.26,0,0,0,.44-9.75l14.48-11a78.27,78.27,0,0,0-4.35-15.71l-18.1-2c-.79-1.41-1.62-2.81-2.52-4.18s-1.87-2.68-2.87-4l5.23-17.45a78.23,78.23,0,0,0-12.74-10.16l-15.82,9a64.31,64.31,0,0,0-9.15-3.42l-6-17.18a80.72,80.72,0,0,0-16.3-.74l-7.53,16.57a62.94,62.94,0,0,0-9.41,2.61l-15-10.35a80.29,80.29,0,0,0-13.61,9l3.65,17.83a64.54,64.54,0,0,0-6.09,7.63l-18.19.43a79.37,79.37,0,0,0-5.7,15.29l13.43,12.27a64.35,64.35,0,0,0-.44,9.76l-14.47,11a78.69,78.69,0,0,0,4.34,15.7l18.11,2c.78,1.41,1.61,2.81,2.51,4.19s1.87,2.68,2.87,4l-5.24,17.45a78.89,78.89,0,0,0,12.75,10.16l15.82-9a63.85,63.85,0,0,0,9.15,3.42l6,17.17a79.19,79.19,0,0,0,16.3.74l7.53-16.56a62.75,62.75,0,0,0,9.41-2.61Z" transform="translate(-4144.26 -6829.09)"/><path class="cls-10" d="M4517.66,6997.67a32.25,32.25,0,1,1,9.13-44.69A32.26,32.26,0,0,1,4517.66,6997.67Z" transform="translate(-4144.26 -6829.09)"/></g></g></g></g></svg>