<svg id="Design_Development" data-name="Design &amp; Development" xmlns="http://www.w3.org/2000/svg" viewBox="0 0 1043.93 980.19"><defs><style>.cls-1{fill:#c5d0de;}.cls-2{fill:#1d71b8;}.cls-3{fill:#d6d6d6;}.cls-4{fill:#ebebeb;}.cls-5{fill:#706f6f;}.cls-6{fill:#aeaeae;}.cls-7{fill:#c6c6c6;}.cls-8{fill:#056182;}.cls-9{fill:#ececec;}.cls-10{fill:#575756;}.cls-11{fill:#df4327;}.cls-12{fill:#29235c;}.cls-13{fill:#f4f4f4;}.cls-14{fill:#f7981c;}.cls-15{fill:#f85359;}.cls-16{fill:#cc2445;}.cls-17{fill:#39b54a;}.cls-18{fill:#bc1622;}.cls-19{fill:#c4c4c4;}.cls-20{fill:#3c3c3b;}.cls-21{fill:#352f2d;}.cls-22{fill:#ccfef8;opacity:0.5;}.cls-23{fill:#d02142;}.cls-24{fill:#333f52;}.cls-25{fill:#eedbb0;}</style></defs><title>12</title><g id="Website_Optimization" data-name="Website Optimization"><g id="Background"><circle id="Background_2" data-name="Background 2" class="cls-1" cx="518.98" cy="537.52" r="442.67"/></g><g id="Website_Optimization-2" data-name="Website Optimization"><path id="Screwdriver" class="cls-2" d="M7107.75,6354l58.42-44.17a12.21,12.21,0,0,1,17.1,2.37l49.26,65.14a105.83,105.83,0,0,0-125.72-146.86l-96.28-127.33a105.84,105.84,0,0,0-107.06-161l49.26,65.14a12.22,12.22,0,0,1-2.38,17.1l-58.42,44.17a12.21,12.21,0,0,1-17.1-2.37l-49.25-65.14a105.83,105.83,0,0,0,125.72,146.86l96.28,127.33a105.83,105.83,0,0,0,107.05,161l-49.26-65.14A12.22,12.22,0,0,1,7107.75,6354Z" transform="translate(-6815.36 -5462.14)"/><g id="Computer"><path class="cls-3" d="M7327.23,6141c0-6.09-6.86-11-15.31-11H7204.15c-8.45,0-15.31,4.94-15.31,11l-26.09,96.45c0,6.09,6.86,11,15.31,11h166.43c8.44,0,15.3-4.94,15.3-11Z" transform="translate(-6815.36 -5462.14)"/><path class="cls-4" d="M7656.21,6129.62a15.31,15.31,0,0,1-15.3,15.31H6894.73a15.31,15.31,0,0,1-15.3-15.31v-505.1a15.3,15.3,0,0,1,15.3-15.31h746.18a15.3,15.3,0,0,1,15.3,15.31Z" transform="translate(-6815.36 -5462.14)"/><rect class="cls-5" x="64.07" y="176.67" width="776.78" height="431.08"/><path class="cls-6" d="M7434.78,6239.62a15.3,15.3,0,0,1-15.3,15.31h-314.6a15.31,15.31,0,0,1-15.31-15.31v-15.41a15.3,15.3,0,0,1,15.31-15.3h314.6a15.29,15.29,0,0,1,15.3,15.3Z" transform="translate(-6815.36 -5462.14)"/><polygon class="cls-7" points="830.84 207.28 64.07 207.28 64.07 569.49 840.85 569.49 840.85 207.28 830.84 207.28"/><rect class="cls-8" x="64.07" y="207.28" width="776.78" height="31.39"/><circle class="cls-9" cx="813.08" cy="223.28" r="6.72"/><circle class="cls-9" cx="787.05" cy="223.28" r="6.72"/><circle class="cls-9" cx="761.04" cy="223.28" r="6.72"/><path class="cls-9" d="M7022.51,5685.42a6.72,6.72,0,0,1-6.72,6.72h-89.34a6.72,6.72,0,0,1-6.73-6.72h0a6.73,6.73,0,0,1,6.73-6.73h89.34a6.72,6.72,0,0,1,6.72,6.73Z" transform="translate(-6815.36 -5462.14)"/><rect class="cls-4" x="134.51" y="255.25" width="59.67" height="14.39"/><rect class="cls-4" x="203.05" y="255.25" width="29.83" height="14.39"/><rect class="cls-4" x="238.7" y="255.25" width="65.15" height="14.39"/><rect class="cls-10" x="191.43" y="304.6" width="45.25" height="13.03"/><rect class="cls-10" x="242.38" y="304.6" width="105.33" height="13.03"/><rect class="cls-10" x="355.94" y="304.6" width="90.03" height="13.03"/><rect class="cls-10" x="205.14" y="333.39" width="71.97" height="13.03"/><rect class="cls-10" x="287.39" y="333.39" width="32.9" height="13.03"/><rect class="cls-10" x="328.52" y="333.39" width="32.9" height="13.03"/><rect class="cls-10" x="369.65" y="333.39" width="119.04" height="13.03"/><rect class="cls-10" x="177.72" y="279.93" width="71.97" height="13.02"/><rect class="cls-10" x="259.98" y="279.93" width="22.62" height="13.02"/><rect class="cls-10" x="342.23" y="279.93" width="56.89" height="13.02"/><rect class="cls-10" x="287.39" y="279.93" width="46.61" height="13.02"/><rect class="cls-11" x="134.51" y="363.55" width="59.67" height="14.39"/><rect class="cls-11" x="203.05" y="363.55" width="29.83" height="14.39"/><rect class="cls-11" x="238.7" y="363.55" width="65.15" height="14.39"/><rect class="cls-12" x="307.25" y="363.55" width="65.14" height="14.39"/><rect class="cls-4" x="134.51" y="467.75" width="59.67" height="14.39"/><rect class="cls-11" x="203.05" y="467.75" width="29.83" height="14.39"/><rect class="cls-11" x="238.7" y="467.75" width="65.15" height="14.39"/><rect class="cls-12" x="307.25" y="467.75" width="65.14" height="14.39"/><rect class="cls-10" x="205.14" y="425.25" width="71.97" height="13.03"/><rect class="cls-10" x="287.39" y="425.25" width="32.9" height="13.03"/><rect class="cls-10" x="328.52" y="425.25" width="32.9" height="13.03"/><rect class="cls-10" x="369.65" y="425.25" width="119.04" height="13.03"/><rect class="cls-10" x="177.72" y="393.72" width="71.97" height="13.02"/><rect class="cls-10" x="259.98" y="393.72" width="22.62" height="13.02"/><rect class="cls-10" x="342.23" y="393.72" width="56.89" height="13.02"/><rect class="cls-10" x="287.39" y="393.72" width="46.61" height="13.02"/><rect class="cls-10" x="177.72" y="499.28" width="45.24" height="13.02"/><rect class="cls-10" x="228.67" y="499.28" width="105.33" height="13.02"/><rect class="cls-10" x="342.23" y="499.28" width="90.03" height="13.02"/><rect class="cls-10" x="191.43" y="526.7" width="71.98" height="13.02"/><rect class="cls-10" x="273.69" y="526.7" width="32.9" height="13.02"/><rect class="cls-10" x="314.81" y="526.7" width="32.9" height="13.02"/><rect class="cls-10" x="355.94" y="526.7" width="119.04" height="13.02"/></g><g id="Page"><polygon class="cls-13" points="1011.39 26.05 538.84 26.05 538.84 609.21 1021.84 609.21 1021.84 26.05 1011.39 26.05"/><rect class="cls-8" x="538.84" y="26.05" width="483" height="32.73"/><circle class="cls-9" cx="992.88" cy="42.73" r="7.01"/><circle class="cls-9" cx="965.76" cy="42.73" r="7.01"/><circle class="cls-9" cx="938.64" cy="42.73" r="7.01"/><path class="cls-9" d="M7478.53,5504.87a7,7,0,0,1-7,7h-93.12a7,7,0,0,1-7-7h0a7,7,0,0,1,7-7h93.13a7,7,0,0,1,7,7Z" transform="translate(-6815.36 -5462.14)"/><rect class="cls-14" x="538.84" y="58.78" width="483" height="187.96"/><rect class="cls-7" x="612.61" y="89.24" width="335.46" height="112.82"/><polygon class="cls-12" points="612.61 202.06 667.22 149.71 683.18 166.84 740.89 126.37 790.01 164.21 839.74 109.13 878.42 152.72 929.85 94.39 948.07 142.71 948.07 202.06 612.61 202.06"/><polygon class="cls-15" points="612.61 202.06 642.25 141.87 671.51 186.9 702.12 164.89 736.8 187.31 804.75 133.69 851.07 183.55 891.32 120.18 948.07 202.06 612.61 202.06"/><g id="Graphic_Chart" data-name="Graphic Chart"><rect class="cls-16" x="648.54" y="570.34" width="292.36" height="3.69"/><rect class="cls-17" x="706.26" y="398.46" width="21.8" height="168.04"/><rect class="cls-17" x="733.61" y="423.27" width="21.8" height="143.23"/><rect class="cls-17" x="760.11" y="456.05" width="21.8" height="110.46"/><rect class="cls-17" x="786.61" y="472.84" width="21.79" height="93.66"/><rect class="cls-17" x="813.11" y="490.46" width="21.8" height="76.05"/><rect class="cls-17" x="839.6" y="458.91" width="21.8" height="107.59"/><rect class="cls-17" x="866.1" y="431.05" width="21.8" height="135.45"/><rect class="cls-17" x="892.6" y="407.29" width="21.8" height="159.21"/><rect class="cls-17" x="919.09" y="387.18" width="21.8" height="179.32"/><rect class="cls-17" x="677.14" y="456.05" width="21.79" height="110.46"/><rect class="cls-17" x="648.54" y="483.93" width="21.79" height="82.57"/><polygon class="cls-16" points="891.23 412.94 903.04 421.09 821.86 501.41 728.84 411.18 724.19 417.1 724.19 417.1 653.74 506.62 659.04 510.8 729.26 422.01 821.97 511.69 909.46 424.54 923.59 434.02 926.46 400.4 891.23 412.94"/></g><rect class="cls-18" x="612.61" y="260.59" width="191.35" height="44.99"/><rect class="cls-19" x="612.61" y="312.34" width="191.35" height="14.65"/><rect class="cls-19" x="612.61" y="332.47" width="191.35" height="14.64"/><rect class="cls-19" x="820.57" y="260.59" width="167.54" height="13.66"/><rect class="cls-19" x="820.57" y="279.28" width="167.54" height="67.83"/></g><g id="Magnify"><rect class="cls-20" x="7294.6" y="5732.82" width="89.01" height="36.49" transform="translate(-7475.62 5079.26) rotate(-69)"/><path class="cls-7" d="M7480.63,5537l-.47-.6a95,95,0,0,0-109.3-30.83,96.76,96.76,0,0,0-11.26,5.17,94.72,94.72,0,0,0-43.54,49.56,94,94,0,0,0-3.71,12A95.06,95.06,0,1,0,7480.63,5537Z" transform="translate(-6815.36 -5462.14)"/><path class="cls-21" d="M7278.8,5547.5A133,133,0,1,0,7450.64,5471,133,133,0,0,0,7278.8,5547.5Zm37.25,12.79a95.07,95.07,0,1,1,54.67,122.83A95.06,95.06,0,0,1,7316.05,5560.29Z" transform="translate(-6815.36 -5462.14)"/><path class="cls-22" d="M7371.49,5565a9.32,9.32,0,0,1-7.12,11.11l-4,.88a9.32,9.32,0,0,1-11.11-7.11l-9.77-44.62a95.35,95.35,0,0,1,20.14-14.56Z" transform="translate(-6815.36 -5462.14)"/><path class="cls-22" d="M7413.12,5601.2l-6.26,1.37a14.41,14.41,0,0,1-17.16-11l-18.84-86a95,95,0,0,1,34.69-6.28l18.57,84.75A14.43,14.43,0,0,1,7413.12,5601.2Z" transform="translate(-6815.36 -5462.14)"/><path class="cls-23" d="M7222.63,5952.37c-7.31,19,1.24,40,19.1,46.89s38.26-3,45.57-22.06l79.9-207.86-64.67-24.83Z" transform="translate(-6815.36 -5462.14)"/><path class="cls-15" d="M7422.75,5687.73A95.1,95.1,0,0,0,7480.63,5537l-.47-.6-121,141.35a95.79,95.79,0,0,0,11.58,5.37A94.66,94.66,0,0,0,7422.75,5687.73Z" transform="translate(-6815.36 -5462.14)"/></g><g id="Gear"><path class="cls-24" d="M7577.59,6376.59a194.3,194.3,0,0,1-32.43-22.73l10-43a154.14,154.14,0,0,1-14.26-18.93l-44.1-2.26A193.08,193.08,0,0,1,7484,6252.2l33.42-28.88a156.62,156.62,0,0,1-.43-23.71l-34.38-27.73a191,191,0,0,1,11.59-37.82l44.06-3.7c2-3.38,4.1-6.73,6.39-10s4.71-6.38,7.2-9.41l-11.53-42.69a189.69,189.69,0,0,1,31.6-23.8l37.79,22.86a156.4,156.4,0,0,1,22.42-7.68l15.76-41.28a193.48,193.48,0,0,1,39.6-.71l17.15,40.69a152.77,152.77,0,0,1,22.66,7l37-24.1a194,194,0,0,1,32.43,22.73l-10,43A151.6,151.6,0,0,1,7801,6125.9l44.11,2.25a193.19,193.19,0,0,1,12.83,37.46l-33.42,28.89a156.54,156.54,0,0,1,.44,23.71l34.38,27.72a190,190,0,0,1-11.59,37.81l-44.06,3.71c-2,3.38-4.11,6.72-6.4,10s-4.71,6.37-7.2,9.41l11.54,42.69a191.33,191.33,0,0,1-31.6,23.8l-37.78-22.87a155.09,155.09,0,0,1-22.43,7.68L7694,6399.42a192.45,192.45,0,0,1-39.6.72l-17.16-40.69a152.79,152.79,0,0,1-22.66-7Z" transform="translate(-6815.36 -5462.14)"/><path class="cls-25" d="M7626.45,6260a65.37,65.37,0,1,0-10.32-91.86A65.39,65.39,0,0,0,7626.45,6260Z" transform="translate(-6815.36 -5462.14)"/><g id="Gear-2" data-name="Gear"><path class="cls-17" d="M7250.51,6369.58a147.2,147.2,0,0,1-12.26-9.1,148.73,148.73,0,0,1-11.28-10.33l10.32-32.44a117.59,117.59,0,0,1-9.82-15.4l-33.74-4.4a148,148,0,0,1-7.6-29.56l27.43-20.18a119.65,119.65,0,0,1,1.1-18.23l-24.75-23.38a146.75,146.75,0,0,1,11.2-28.35l34.08-.2c1.74-2.47,3.55-4.91,5.51-7.28s4-4.62,6.11-6.8l-6.28-33.5a146.6,146.6,0,0,1,25.71-16.37l27.66,19.85a119.13,119.13,0,0,1,17.69-4.54l14.61-30.77a148.49,148.49,0,0,1,30.46,1.85l10.73,32.3a119.37,119.37,0,0,1,17,6.71l29.9-16.28a150.27,150.27,0,0,1,23.54,19.43l-10.32,32.43a117.41,117.41,0,0,1,9.82,15.4l33.76,4.4a148.25,148.25,0,0,1,7.59,29.56l-27.42,20.18a118.94,118.94,0,0,1-1.11,18.24l24.75,23.38a146.61,146.61,0,0,1-11.19,28.35l-34.08.19c-1.74,2.47-3.55,4.92-5.51,7.29s-4,4.61-6.09,6.78l6.28,33.5a146.74,146.74,0,0,1-25.72,16.37l-27.65-19.85a120.21,120.21,0,0,1-17.7,4.54l-14.6,30.75a148.45,148.45,0,0,1-30.46-1.85L7297.4,6360a116.21,116.21,0,0,1-17-6.71Z" transform="translate(-6815.36 -5462.14)"/><path class="cls-16" d="M7294,6292.93a60.34,60.34,0,1,0-8.14-84.94A60.33,60.33,0,0,0,7294,6292.93Z" transform="translate(-6815.36 -5462.14)"/></g></g></g></g></svg>