<svg id="Web_and_Development" data-name="Web and Development" xmlns="http://www.w3.org/2000/svg" viewBox="0 0 1267.24 1188.27"><defs><style>.cls-1{fill:#c5d0de;}.cls-2{fill:#39b54a;}.cls-3{fill:#f7981c;}.cls-4{opacity:0.2;}.cls-5{fill:#03386d;}.cls-6{fill:#ff4247;}.cls-7{fill:#f7961c;}.cls-8{fill:#231f20;}.cls-13,.cls-8{opacity:0.1;}.cls-9{fill:#008aac;}.cls-10{fill:#e2e2e2;}.cls-11{fill:#ffd648;}.cls-12{fill:#ff5c60;}.cls-14{fill:#3f3f3f;}.cls-15{fill:#f1c40f;}.cls-16{fill:#4c4c4c;}.cls-17{fill:#e67e22;}.cls-18{fill:#033;}.cls-19{fill:#34495e;}.cls-19,.cls-20,.cls-21,.cls-22,.cls-25{fill-rule:evenodd;}.cls-20,.cls-24{opacity:0.5;}.cls-21,.cls-24{fill:#fff;}.cls-21{opacity:0.8;}.cls-22{fill:#ecf0f1;}.cls-23{opacity:0.3;}.cls-25{fill:#333;}</style></defs><title>9</title><g id="Data_Security" data-name="Data Security"><g id="Background"><circle id="Background_2" data-name="Background 2" class="cls-1" cx="661.87" cy="656.28" r="532"/></g><g id="Data_Security-2" data-name="Data Security"><g id="Data"><rect class="cls-2" x="646.35" y="448.01" width="31.05" height="533.2"/><rect class="cls-2" x="395.28" y="983.95" width="533.2" height="31.06"/><path class="cls-3" d="M2308.9,2029.23a58.67,58.67,0,0,1-58.67,58.67H1870.5a58.67,58.67,0,0,1-58.67-58.67h0a58.67,58.67,0,0,1,58.67-58.67h379.73a58.67,58.67,0,0,1,58.67,58.67Z" transform="translate(-1398.49 -1522.56)"/><path class="cls-3" d="M2308.9,2185.5a58.67,58.67,0,0,1-58.67,58.67H1870.5a58.67,58.67,0,0,1-58.67-58.67h0a58.66,58.66,0,0,1,58.67-58.67h379.73a58.66,58.66,0,0,1,58.67,58.67Z" transform="translate(-1398.49 -1522.56)"/><path class="cls-3" d="M2308.9,2346.3a58.66,58.66,0,0,1-58.67,58.67H1870.5a58.66,58.66,0,0,1-58.67-58.67h0a58.66,58.66,0,0,1,58.67-58.67h379.73a58.66,58.66,0,0,1,58.67,58.67Z" transform="translate(-1398.49 -1522.56)"/><rect class="cls-4" x="568.01" y="983.95" width="187.2" height="31.06"/><rect class="cls-2" x="571.88" y="973.87" width="180" height="51.2"/><rect class="cls-2" x="381.88" y="909.48" width="51.2" height="180"/><rect class="cls-2" x="893.27" y="909.48" width="51.2" height="180"/><circle class="cls-5" cx="491.07" cy="503.88" r="20.4"/><circle class="cls-5" cx="839.08" cy="503.88" r="20.4"/><circle class="cls-5" cx="847.47" cy="667.08" r="20.4"/><circle class="cls-5" cx="847.47" cy="823.74" r="20.4"/><circle class="cls-5" cx="491.07" cy="667.08" r="20.4"/><circle class="cls-5" cx="491.07" cy="823.74" r="20.4"/></g><g id="Security"><path class="cls-6" d="M1559.62,1756l-161.12,69.58V1998.2s9.51,120.18,161.12,186.9c151.61-66.73,161.12-186.9,161.12-186.9V1825.63Z" transform="translate(-1398.49 -1522.56)"/><path class="cls-7" d="M1559.62,1799.89l-128.2,55.36v137.3s7.57,95.62,128.2,148.7c120.63-53.09,128.19-148.7,128.19-148.7v-137.3Z" transform="translate(-1398.49 -1522.56)"/><path class="cls-8" d="M1720.74,1998.2V1825.63L1559.62,1756V2185.1C1711.23,2118.38,1720.74,1998.2,1720.74,1998.2Z" transform="translate(-1398.49 -1522.56)"/><polygon class="cls-2" points="160.47 487.21 261.62 400.7 246.43 382.93 162.6 454.62 127.79 415.44 110.31 430.98 160.24 487.15 160.37 487.3 160.37 487.3 160.37 487.3 160.47 487.21"/></g><g id="Globe"><g id="Globe-2" data-name="Globe"><circle class="cls-9" cx="683.55" cy="158.77" r="158.77"/><path class="cls-10" d="M2173.47,1761.81c-1,0-2.21-1.91-3.51-3.11s-8.3.34-10,.34-2.55-.74-4.08-1.68-3.21.21-4.41.47-1.74-.8-1-2.14-2.48-1-4.89-.54-1.47,1.67-3.41,1,2.27-2.88,3.68-4.55-.27-4.49-1.07-4.75-2.34-2.68-4.75-4.55-4.22-.47-7.09-.47-3.55-1.27-4.89-2.27-.94-3-6.29-5.82-3.08-1.28-2.74-1.81.87-.46-1-1.33-3.41,1-5.29,1.74a9.4,9.4,0,0,1-5,.33c-.8-.2-1.74-2.14-2.68-2.55a5.65,5.65,0,0,1-2.34-2.21,1.44,1.44,0,0,0-2.48,1.21c.07,1.74-.93,2.74-2.81,3.48s-1.07-2.07-1.07-2.94,1.67-1.74,1.81-3.08-1.67,1.27-3.41,3.14-2.94.13-6.29.47-1.74,3.82-1.74,5.76-2.81,2.6-3.28,2.14-.47-1.54-1.47-1.54-1.27-1.61-1.54-2.21-3.68-1.2-5,1.2-2.61.47-4.15,0-4.55-6.49-3.88-7.56.67-1.54-.07-2.28-.4-1.27.2-2.41,2.21-2.21-1-4.28-8.23-.27-10.91-.54-.53-2.21,0-2.74a13.43,13.43,0,0,0,2.14-4c.53-1.6-.47-1.73.47-3.88s.67-3.61-1.47-3.74-4.15,1.47-4.28,4.55-3.21,2.94-10.3,2.41-6.43-6.16-7.23-10.71,1.47-8.43,1.61-10.7,2.95-4.82,5.62-6.83,6.49-1.48,6.49-1.48,5.15,1.09,6.76,1,.27-1.34.4-2.95,7.9-.53,9.23-.53,1.07,1.07,2.54,2.53,1.2-1.46,2.68-1.19.27,1.2,2.41,4.68,1.74,4.68,2.41,7.63,2.14,1.47,3.08-.94-1.07-10.17-1.61-14.19,3.08-2.55,6.56-6.29,7.09-4,8.7-6.69-.13-7.09.8-4.68,1.07-.94,1.2-3.48,1.47-3.61,2.14-2.14,1.47.4,2-2.14,2.81-5.15,3.88-6.43,3.21-.06,6.16,0,.13-.53-.74-3.48,1.88-4,3-4,6-2.6,7.1-3.27,2.47-.61,4.35.8-1.74.33-2.94,2.41,1.73,2.34,3,.47,4.08-1,6.49-3.41-2.74-1.54-3.88-1.87-1.84-3.14-1.74-4a6.38,6.38,0,0,0-1.91-4.22c-1.2-1-4.31.1-7,1.2s-3.51,2.11-3.31.8,4.71-4.32,5.92-4.51a13.86,13.86,0,0,0,6.22-3.42c1.61-1.8,6.22.3,8.33.5s5.12,1.41,6.22-.1,2-1.5,4.22-1.81,2.61-3.51,1.1-4.92-3.71-6.52-6.82-8.13-1.91-2.6-.9-3.91-3.15-4.52-4.49-7.86.13-4.15-1.47-4.28-.54,2.41-1.34,4.68-4.15,1.07-4.68.94a5.79,5.79,0,0,1-2.28-4.55c.14-2.14.67-4,0-4.68s-2.14-.13-2.94-.94-1.87-3.21-3.08-4.28-3.88-.4-5.75-.81-3.62.27-3.21,1.47.13,2.81-.53,7.1-2,2-3.08,3.07.67,1.34,1.61,4.42-1.21,5.35-2.14,6.29-4,1.6-6,2.27.13,3.21.4,5.35-1.74,5.22-2.81,5.63-4.55-4-4.82-6.56,2.14-5.35,1.07-6.15-5.22-.8-9.1-4-8.56-4.95-10.17-8.83,1.6-7.36,2.95-10.17,4-2.41,8.29-4,1.6-3.08,2.68-3.08,4.55-.53,5.35-1.61,2.68-2.14,4.42-3.07,2.14-2.81,2.81-3.88,2.54,1.47,4.68,1.2,2,.4,4.95-.94.4-2.14.14-3.61,1.88-1.07,1.2-2.68-3.61-3.22-5.56-2.94.61,2.14-1.4,4-1.6,3.08-2.28,3.35-3.61-.67-3.61-1.6,1.33-1.75,1.87-2.15-.4-2.4-.67-3.07-1.47.8-1.74,2.14-1.73,1.47-1.33.27-1.07-2.68-2.14-4.15,1.07-1.33,2.28-3.21.8-2.68-.8-3.61-3.48.53-5.35,2.55-1.2,1.87-.54,4.41,0,0,.4,2.41-3.08,2.14-3.08,2.14a12.4,12.4,0,0,1-2.41-.4c-.67-.27,0-1.2-1.47-1.74s-2.14,1.88-2.14,1.88-4-.14-5.62-.14-3.88-.8-4.28-1.47a6.08,6.08,0,0,0-4.15-2c-1.74,0-2.41,1.47-2.41,3.21s-2.94,1.88-2.81,1.07a19.12,19.12,0,0,0-.4-3.61l-1.61.94s-4.42-.27-5.89-.4-.94-2-.94-2l2.94-.27.4-.67a5.08,5.08,0,0,0-1.6-1.07c-.8-.27-4.28-.94-4.28-.94l-1.07-1.47h-2.28c-.67,0-1.74,1.34-2.27,1.34s-.54-1.47-.54-1.47l.27-1.2-1.33.67c-1.34.66-1.87.13-1.87.13l.53-1.34.13-1.47s-.8-.94-.8-.27a2.78,2.78,0,0,1-2.54,2c-1.2-.14-2,1.07-3.75.66s-5.08.81-7,2.41-3.08,2.14-2.68.27-5.22-1.6-6.16-2a30.26,30.26,0,0,0-5.62-.94,3.24,3.24,0,0,1-2.81-2.14l-.93-3.3A159.13,159.13,0,0,0,1974,1565a30.1,30.1,0,0,0,3,4.88,1.66,1.66,0,0,0,1.87,0,111.07,111.07,0,0,0-9.77,7.86c-6,5.31-4,5.92-4,7.93s1.21,1.21,1.21,1.21-4.68,4.81-6,6.15-3.75,3.21-3.75,3.21l-2.41,2.94,1.07.4,14.55-12.21s.9-.2,1-.7a6.24,6.24,0,0,1,1.2-2.3,13.25,13.25,0,0,0,1.61-2.21,8.52,8.52,0,0,0,2-1.41c1.1-1,2.21-2.51,3.11-2.61s0,1.3-1.61,2.61a23.87,23.87,0,0,0-3.51,4.11s5.32-2.81,7.13-4,1.2-3,1.91-3.11,2.31,1.41,2.81,2.91,1.11-.3,3.82,0,.9,2.41,1.91,3.81,1,1.81,3.61,1.2-1,5.63-1,5.63l-.2,2a11.17,11.17,0,0,1,1,1.61c0,.2-1.2,3.81-1.2,3.81h2a8,8,0,0,1-1.81,1.61c-1,.61.2,2.21,1.2,3s0,0-1.41,3.22,0,2.21,1.61,4.41a59.4,59.4,0,0,0,3.82,4.62c1.2,1.41,0,4.62-1.2,4.82s-3.82-1.81-3.82-1.81c.2,30.11-1.81,10-2.81,12.65s-2.41,4-2.41,5.62a10,10,0,0,1-1.61,6.22c-1.61,2.21-.2,7.23,0,7.83s1.47,3.22,1.47,3.22v8.23c0,2.68,4.81,4,6.42,6.29s1.2,6.69,1.34,7.43a8.69,8.69,0,0,0,2.07,3.41c.94.87,1,2.34,1.74,3.68s-1.14.87-1.34,2.61,1.67,1.8,2.68,2.21a2.07,2.07,0,0,1,1.47,2.88c-.53,1.88-.27,1.2.74,2.27s.53.4,1.07,2.41,1.88,1.14,1.88,1.14v1.2c0,.33,1.2.67,1.2.67l.8-1.21s-.6-.26-.6-.46-.13-1.2-.13-1.2l-1.81-.74a8.65,8.65,0,0,1-.27-1.4v-1.74c0-.27-.67-.47-.67-.47s-.06-1.81-.06-2.88-1.74-2.08-1.81-2.54a7.47,7.47,0,0,0-.87-3c-.67-1-2.28-3.14-2.21-5.42s-.53-3.75.34-3.75,2.34,2.21,2.74,2.61.06,3.08,1.74,5.55,6,7.56,5.61,8-1.51.25-.9,1.76,2.06,1.86,3.16,2.15,2.91,6.43,4.11,8.43-.3,2-.6,3.31.1,2,2.11,2.91,1.61,3.11,3.92,3.82,6.82,3.64,8,3.91,1.07,1.34,2.68,1.48a4.26,4.26,0,0,1,2.68,1.19c.8.53,3.61-.53,4.15-.94s1.07-.27,2.54,0,5.76,4.82,7.09,6.15,2.41-.53,3.48,0,3.08,1.74,3.88,1.61.8-.81,1.34-.81.13,1.07,2.14,3.62,1.61,3.07,1.61,3.48.93,2.41,2.27,2.14,2.68,1.13,2.68,1.13v2.21s4.55.27,5.48.53,1.08,2.27,1.48,2.55,2-1.61,1.74-2.68,1.74-1.61,2.54-2.41,1.88.93,2.54,1.74,2.15,2.81,2.15,4.41-.14,4-.14,6.56-2,3.74-3.48,5.49-2.81,2.54-3.48,3.35a7.82,7.82,0,0,0-.94,4.82c.27,1.47,2.14.13,2.14,1.88s-1.74.8-3.75,2.4.27,1.75.94,3.08-.94.27-.94,1.88,2.41,1.34,4.69,2,4.68,6.56,6,9.64,2.67,5.76,4,6.29,1.47,1.74,4.28,2.41,5,2.88,6.6,2.88,1.53,2.71,1,3.82-.1,1.41.3,5.42-.91,13-1.33,14-.31.81.43,1.54-1.2,3.95-1.27,4.95-1.94,1.61-2.33,2.55.92.94,1.19,1.81-.53,3,.27,3.81,1.54.53,1.75,1.8a2.11,2.11,0,0,1-2.08,2.47c-1.34,0-1.34,1.41-.74.94a1.37,1.37,0,0,1,1.41,0l1.08,1.89q4.92-.51,9.74-1.32c.69-.79,1.28-1.43,1.77-1.52,1.61-.27.8-1.87-.14-5.21s2.28-.54,4.28-1.34,1.34-3.48,4.15-3.88,5.89-2.94,7.09-4.82-.53-2.81,3.88-2.28,8.43-5.08,11.91-9.23.4-5.48,6.56-9.36,16.13-14.42,16.73-17.73-1.11-3.41,2.41-5.72,7.93-8.73,8.33-10.54S2174.47,1761.81,2173.47,1761.81Z" transform="translate(-1398.49 -1522.56)"/><path class="cls-10" d="M2139.58,1541.65c-5.08,0-6.16,5.08-1.6,5.89s13.91.81,15.52,7.49-4.82,8.57,0,11.78-1.07,6.69-1.07,11.24a13.17,13.17,0,0,0,5.35,10.71c3.21,2.41,6.42,5.62,6.69,7.49s3.48,1.34,3.48,1.34a7.13,7.13,0,0,1,0-2.68c.27-1.61,2.94-3.48,2.94-8s2.39-4.28,4.27-4,5.63-.27,6.7,0,7.49.27,8-2.95-4.28-8-4.28-8,2.71-4.48,2.68-6.52a11.94,11.94,0,0,0-.76-2.68,158.89,158.89,0,0,0-43.85-27.71C2143.68,1537.5,2143.12,1541.65,2139.58,1541.65Z" transform="translate(-1398.49 -1522.56)"/><path class="cls-10" d="M2234.59,1672.39c-9.23-7.63-15.26-7.63-16.06-5.62s6.42,9.24,0,18.07-11.24,12.44-8.83,19.67-10.09,13.65-.63,20.07,7.45,6.42,14.28,6,5.83,10.21,5.34,11.67a158.23,158.23,0,0,0,12.12-60.94c0-.66,0-1.32,0-2A26.54,26.54,0,0,0,2234.59,1672.39Z" transform="translate(-1398.49 -1522.56)"/><path class="cls-8" d="M2096.73,1839.42A158.78,158.78,0,0,0,2109.6,1525C2201.67,1562,2247.44,1786.81,2096.73,1839.42Z" transform="translate(-1398.49 -1522.56)"/></g><g id="Loading"><path class="cls-11" d="M2127.75,1798.11l-1-3.54-1.23-4.11c-.48-1.59-1.09-3.34-1.74-5.29a202.19,202.19,0,0,0-12.1-28.56c-1.36-2.58-2.75-5.2-4.26-7.7l-2.25-3.78-2.35-3.64c-1.55-2.42-3.17-4.69-4.77-6.86s-3.17-4.19-4.68-6.07-3-3.56-4.28-5-2.48-2.82-3.51-3.84l-3.21-3.29,1,2c.64,1.29,1.59,3.09,2.59,5.31s2.12,4.79,3.23,7.53,2.13,5.73,3.12,8.64,1.8,5.89,2.54,8.61,1.3,5.32,1.78,7.49.8,4,1,5.26l.35,2-1.95-1.15c-1.25-.77-3.19-1.77-5.6-3.1a155.5,155.5,0,0,0-21-9.21,123.82,123.82,0,0,0-31.67-6.73,110.47,110.47,0,0,0-36.61,3.42,119.37,119.37,0,0,0-17.47,6.12,136.46,136.46,0,0,0-15.74,8.26,154.87,154.87,0,0,0-24.76,18.93,164.28,164.28,0,0,0-15,16c-3.34,4.09-5,6.59-5,6.59s1.89-2.35,5.54-6.12a163.32,163.32,0,0,1,16.14-14.48,151.14,151.14,0,0,1,25.61-16.33,129.45,129.45,0,0,1,15.65-6.58,111.4,111.4,0,0,1,16.81-4.32,100.69,100.69,0,0,1,33.57-.29,111.18,111.18,0,0,1,27.84,8.46,140.61,140.61,0,0,1,18.14,9.9c2.08,1.4,3.75,2.43,4.83,3.24l1.68,1.2-1.84.57c-1.17.38-2.81.88-4.78,1.61s-4.21,1.55-6.56,2.51-4.83,2.12-7.21,3.26-4.73,2.46-6.83,3.65-4,2.47-5.61,3.52-2.86,2-3.75,2.68l-1.37,1,2.72-.87c.88-.3,2-.55,3.23-.87s2.72-.68,4.34-1a110.82,110.82,0,0,1,25.6-1.66,174.55,174.55,0,0,1,27.79,3.61c1.93.4,3.73.77,5.3,1.15l4.07,1Z" transform="translate(-1398.49 -1522.56)"/><path class="cls-12" d="M1923.26,1835.27l1,3.54,1.22,4.1c.48,1.59,1.09,3.34,1.74,5.3a202.94,202.94,0,0,0,12.1,28.55c1.36,2.58,2.75,5.2,4.26,7.71l2.25,3.78,2.35,3.63c1.55,2.41,3.17,4.69,4.77,6.86s3.17,4.19,4.68,6.07,3,3.56,4.28,5,2.48,2.82,3.5,3.84l3.22,3.29-1-2c-.64-1.29-1.59-3.09-2.59-5.31s-2.12-4.79-3.23-7.53-2.14-5.72-3.12-8.63-1.79-5.9-2.54-8.61-1.3-5.31-1.78-7.48-.8-4-1-5.26-.35-2-.35-2l1.95,1.15c1.25.77,3.19,1.78,5.6,3.11a156.34,156.34,0,0,0,21,9.21,124.12,124.12,0,0,0,31.67,6.73,110.64,110.64,0,0,0,36.61-3.43,117.64,117.64,0,0,0,17.47-6.12,135.1,135.1,0,0,0,15.74-8.25,155.78,155.78,0,0,0,24.76-18.93,164.21,164.21,0,0,0,15-16c3.34-4.09,5-6.59,5-6.59s-1.88,2.35-5.54,6.12a162.11,162.11,0,0,1-16.13,14.48,151.32,151.32,0,0,1-25.61,16.34,130.55,130.55,0,0,1-15.65,6.57,110.74,110.74,0,0,1-16.81,4.32,100.7,100.7,0,0,1-33.57.29,111.45,111.45,0,0,1-27.84-8.46,140.55,140.55,0,0,1-18.14-9.91c-2.08-1.39-3.75-2.43-4.83-3.24l-1.68-1.2,1.84-.57c1.17-.37,2.81-.88,4.78-1.6s4.21-1.56,6.56-2.51,4.83-2.12,7.21-3.25,4.73-2.46,6.83-3.66,4-2.47,5.61-3.52,2.87-2,3.75-2.68l1.37-1-2.72.87c-.88.3-2,.54-3.23.87s-2.73.68-4.34,1a110.87,110.87,0,0,1-25.6,1.66,175.36,175.36,0,0,1-27.79-3.6c-1.93-.41-3.73-.77-5.3-1.15l-4.07-1Z" transform="translate(-1398.49 -1522.56)"/><path class="cls-13" d="M2059.56,1883.86c-5.2.27-11.46.85-19,1.81-51.72,6.6-99.34-34.22-115.56-50l-1.77-.44,1,3.54,1.22,4.1c.48,1.59,1.09,3.34,1.74,5.3a202.94,202.94,0,0,0,12.1,28.55c1.36,2.58,2.75,5.2,4.26,7.71l2.25,3.78,2.35,3.63c1.55,2.41,3.17,4.69,4.77,6.86s3.17,4.19,4.68,6.07,3,3.56,4.28,5,2.48,2.82,3.5,3.84l3.22,3.29-1-2c-.64-1.29-1.59-3.09-2.59-5.31s-2.12-4.79-3.23-7.53-2.14-5.72-3.12-8.63-1.79-5.9-2.54-8.61-1.3-5.31-1.78-7.48-.8-4-1-5.26-.35-2-.35-2l1.95,1.15c1.25.77,3.19,1.78,5.6,3.11a156.34,156.34,0,0,0,21,9.21,124.12,124.12,0,0,0,31.67,6.73,110.64,110.64,0,0,0,36.61-3.43C2053.1,1886,2056.36,1885,2059.56,1883.86Z" transform="translate(-1398.49 -1522.56)"/><path class="cls-13" d="M2125.49,1790.47c-.48-1.59-1.09-3.34-1.74-5.29a202.19,202.19,0,0,0-12.1-28.56c-1.36-2.58-2.75-5.2-4.26-7.7l-2.25-3.78-2.35-3.64c-1.55-2.42-3.17-4.69-4.77-6.86s-3.17-4.19-4.68-6.07-3-3.56-4.28-5-2.48-2.82-3.51-3.84l-3.21-3.29,1,2c.64,1.29,1.59,3.09,2.59,5.31s2.12,4.79,3.23,7.53,2.13,5.73,3.12,8.64,1.8,5.89,2.54,8.61,1.3,5.32,1.78,7.49.8,4,1,5.26l.35,2-1.95-1.15c-1.25-.77-3.19-1.77-5.6-3.1a155.5,155.5,0,0,0-21-9.21,123.82,123.82,0,0,0-31.67-6.73,110.47,110.47,0,0,0-36.61,3.42,119.37,119.37,0,0,0-17.47,6.12q-2.06.91-4,1.88c4.88-1.07,10.37-2.25,16.59-3.53,73.62-15.21,131.45,47.19,131.45,47.19l-1-3.54Z" transform="translate(-1398.49 -1522.56)"/></g></g><g id="Document"><path class="cls-14" d="M2410.51,1838.77s7.1-36.78,9-36.78,9,1.07,38.72,8.6,54.86,14,54.86,14,11,3.22,13.55-4.19,1.29-7.42,16.13-3.55,37.43,10.33,37.43,10.33,7.1,2.58,7.1,7.75v9l23.23,5.81s9,1.93,4.52,17.42-55.5,193.61-55.5,193.61Z" transform="translate(-1398.49 -1522.56)"/><path class="cls-15" d="M2406.64,1834.9s7.1-36.78,9-36.78,9,1.07,38.72,8.6,54.86,14,54.86,14,11,3.23,13.55-4.19,1.29-7.42,16.14-3.55,37.43,10.32,37.43,10.32,7.1,2.58,7.1,7.75v9l23.23,5.81s9,1.93,4.52,17.42-55.5,193.61-55.5,193.61Z" transform="translate(-1398.49 -1522.56)"/><path class="cls-16" d="M2563.4,2047.45l-36.73-173.83s1.94-7.74-10.33-12.26-19.36-5.16-19.36-5.16,2.16-12.9-11.18-16.78-52.71-16.14-52.71-16.14l-5.81,3.87v4.52l-76.8-23.87-7.53,2.79,45,164.35,171.66,85.83Z" transform="translate(-1398.49 -1522.56)"/><path class="cls-17" d="M2559.59,2060.77l-38.72-183.28s1.93-7.74-10.33-12.26-19.36-5.16-19.36-5.16,2.16-12.91-11.18-16.78-52.71-16.14-52.71-16.14l-5.81,8.39-76.8-23.88s-3.87-6.45,0,12.27,37.43,154.88,37.43,154.88Z" transform="translate(-1398.49 -1522.56)"/></g></g></g><g id="Laptop"><rect class="cls-18" x="743.92" y="835.07" width="389.91" height="18.11"/><path class="cls-19" d="M2627.16,2137.3H2040.69c-26.88,0-35.18,16.88-30,36.83,0-.25,0-.48,0-.72a13.89,13.89,0,0,0,.42,4.11l42.44,160.21c6.41,24.33,12.17,25.09,43.81,25l490.36,0c25.46,0,37.87,0,42.91-24.37l33.06-160.83a14.88,14.88,0,0,0,.22-1.83.16.16,0,0,1,0,0l1.6-13.63C2667.86,2142.54,2642.11,2137.3,2627.16,2137.3Zm-616.16,34c-.08.38-.15.76-.19,1.14C2010.85,2172,2010.93,2171.65,2011,2171.27Zm1.27-3.73c-.09.18-.2.36-.28.55C2012.08,2167.91,2012.18,2167.73,2012.27,2167.55Zm-.72,1.73c-.11.31-.23.62-.32.93C2011.32,2169.9,2011.44,2169.59,2011.55,2169.28Zm23.94-15.69c.88-.08,1.77-.12,2.66-.12C2037.26,2153.47,2036.37,2153.52,2035.49,2153.6Zm-16.31,6.06.18-.14Zm1.92-1.29.37-.23Zm2.1-1.18.56-.29Zm2.25-1.06.74-.31Zm2.37-.91,1-.3Zm2.48-.73c.4-.1.8-.18,1.2-.27C2031.11,2154.31,2030.71,2154.39,2030.31,2154.49Zm2.56-.55c.52-.09,1-.15,1.55-.21C2033.91,2153.79,2033.39,2153.85,2032.87,2153.94Z" transform="translate(-1398.49 -1522.56)"/><path class="cls-20" d="M2040.69,2137.3h586.47c14.95,0,40.7,5.24,38.44,24.8l-1.6,13.63c-2.16-10.14-14.8-22.26-27.2-22.26H2038.14c-13.49,0-27.59,9.34-27.44,20.66-5.19-19.95,3.11-36.83,30-36.83Z" transform="translate(-1398.49 -1522.56)"/><polygon class="cls-21" points="642.06 642.23 1239.09 641.57 1206.88 828.19 679.5 828.33 642.06 642.23"/><path class="cls-22" d="M2069.88,2368.24H2608.3a16.28,16.28,0,0,1,16.22,16.22v296.89a16.28,16.28,0,0,1-16.22,16.22H2069.88a16.28,16.28,0,0,1-16.22-16.22V2384.46a16.28,16.28,0,0,1,16.22-16.22Z" transform="translate(-1398.49 -1522.56)"/><rect class="cls-18" x="864.32" y="1074.58" width="152.51" height="79.83"/><rect class="cls-23" x="683.48" y="873.49" width="514.25" height="186.93"/><path class="cls-23" d="M2401.15,2637.8c0,19-3.29,34.43-7.34,34.43H2280.62c-4.06,0-7.34-15.42-7.34-34.43h0c0-19,3.29-34.42,7.34-34.42h113.19c4.05,0,7.34,15.41,7.34,34.42Z" transform="translate(-1398.49 -1522.56)"/><g id="Light"><polygon class="cls-24" points="1006.5 641.59 880.73 641.57 748.88 828.29 836.96 828.24 1006.5 641.59"/><polygon class="cls-24" points="1068.85 641.75 904.81 828.24 922.44 828.24 1129.1 641.61 1068.85 641.75"/></g><g id="Keyboard"><path class="cls-25" d="M2093.1,2407.1H2117c1.41,0,2.53,1.51,2.53,3.33v25.71c0,1.82-1.12,3.33-2.53,3.33H2093.1c-1.42,0-2.58-1.5-2.58-3.33v-25.71c0-1.82,1.17-3.33,2.58-3.33Z" transform="translate(-1398.49 -1522.56)"/><path class="cls-25" d="M2131.83,2407.1h23.87c1.41,0,2.58,1.51,2.58,3.33v25.71c0,1.82-1.17,3.33-2.58,3.33h-23.87c-1.41,0-2.58-1.5-2.58-3.33v-25.71c0-1.82,1.17-3.33,2.58-3.33Z" transform="translate(-1398.49 -1522.56)"/><path class="cls-25" d="M2170.61,2407.1h23.82c1.41,0,2.58,1.51,2.58,3.33v25.71c0,1.82-1.17,3.33-2.58,3.33h-23.82c-1.42,0-2.59-1.5-2.59-3.33v-25.71c0-1.82,1.17-3.33,2.59-3.33Z" transform="translate(-1398.49 -1522.56)"/><path class="cls-25" d="M2209.34,2407.1h23.82c1.46,0,2.58,1.51,2.58,3.33v25.71c0,1.82-1.12,3.33-2.58,3.33h-23.82c-1.41,0-2.58-1.5-2.58-3.33v-25.71c0-1.82,1.17-3.33,2.58-3.33Z" transform="translate(-1398.49 -1522.56)"/><path class="cls-25" d="M2248.07,2407.1h23.87c1.41,0,2.58,1.51,2.58,3.33v25.71c0,1.82-1.17,3.33-2.58,3.33h-23.87c-1.41,0-2.58-1.5-2.58-3.33v-25.71c0-1.82,1.17-3.33,2.58-3.33Z" transform="translate(-1398.49 -1522.56)"/><path class="cls-25" d="M2286.85,2407.1h23.83c1.41,0,2.58,1.51,2.58,3.33v25.71c0,1.82-1.17,3.33-2.58,3.33h-23.83c-1.41,0-2.58-1.5-2.58-3.33v-25.71c0-1.82,1.17-3.33,2.58-3.33Z" transform="translate(-1398.49 -1522.56)"/><path class="cls-25" d="M2325.58,2407.1h23.82c1.46,0,2.58,1.51,2.58,3.33v25.71c0,1.82-1.11,3.33-2.58,3.33h-23.82c-1.41,0-2.58-1.5-2.58-3.33v-25.71c0-1.82,1.17-3.33,2.58-3.33Z" transform="translate(-1398.49 -1522.56)"/><path class="cls-25" d="M2364.31,2407.1h23.87c1.41,0,2.58,1.51,2.58,3.33v25.71c0,1.82-1.17,3.33-2.58,3.33h-23.87c-1.41,0-2.58-1.5-2.58-3.33v-25.71c0-1.82,1.17-3.33,2.58-3.33Z" transform="translate(-1398.49 -1522.56)"/><path class="cls-25" d="M2403.09,2407.1h23.82c1.41,0,2.58,1.51,2.58,3.33v25.71c0,1.82-1.17,3.33-2.58,3.33h-23.82c-1.47,0-2.59-1.5-2.59-3.33v-25.71c0-1.82,1.12-3.33,2.59-3.33Z" transform="translate(-1398.49 -1522.56)"/><path class="cls-25" d="M2441.82,2407.1h23.82c1.46,0,2.58,1.51,2.58,3.33v25.71c0,1.82-1.12,3.33-2.58,3.33h-23.82c-1.42,0-2.58-1.5-2.58-3.33v-25.71c0-1.82,1.17-3.33,2.58-3.33Z" transform="translate(-1398.49 -1522.56)"/><path class="cls-25" d="M2480.54,2407.1h23.88c1.41,0,2.57,1.51,2.57,3.33v25.71c0,1.82-1.16,3.33-2.57,3.33h-23.88c-1.41,0-2.57-1.5-2.57-3.33v-25.71c0-1.82,1.16-3.33,2.57-3.33Z" transform="translate(-1398.49 -1522.56)"/><path class="cls-25" d="M2151.27,2452h23.83c1.41,0,2.58,1.5,2.58,3.33V2481c0,1.82-1.17,3.32-2.58,3.32h-23.83c-1.42,0-2.58-1.5-2.58-3.32v-25.71c0-1.82,1.17-3.33,2.58-3.33Z" transform="translate(-1398.49 -1522.56)"/><path class="cls-25" d="M2190,2452h23.87c1.42,0,2.58,1.5,2.58,3.33V2481c0,1.82-1.17,3.32-2.58,3.32H2190c-1.41,0-2.58-1.5-2.58-3.32v-25.71c0-1.82,1.17-3.33,2.58-3.33Z" transform="translate(-1398.49 -1522.56)"/><path class="cls-25" d="M2228.73,2452h23.87c1.41,0,2.58,1.5,2.58,3.33V2481c0,1.82-1.17,3.32-2.58,3.32h-23.87c-1.41,0-2.53-1.5-2.53-3.32v-25.71c0-1.82,1.12-3.33,2.53-3.33Z" transform="translate(-1398.49 -1522.56)"/><path class="cls-25" d="M2267.51,2452h23.82c1.41,0,2.58,1.5,2.58,3.33V2481c0,1.82-1.17,3.32-2.58,3.32h-23.82c-1.41,0-2.58-1.5-2.58-3.32v-25.71c0-1.82,1.17-3.33,2.58-3.33Z" transform="translate(-1398.49 -1522.56)"/><path class="cls-25" d="M2306.24,2452h23.87c1.41,0,2.54,1.5,2.54,3.33V2481c0,1.82-1.12,3.32-2.54,3.32h-23.87c-1.41,0-2.58-1.5-2.58-3.32v-25.71c0-1.82,1.17-3.33,2.58-3.33Z" transform="translate(-1398.49 -1522.56)"/><path class="cls-25" d="M2345,2452h23.87c1.42,0,2.58,1.5,2.58,3.33V2481c0,1.82-1.17,3.32-2.58,3.32H2345c-1.41,0-2.59-1.5-2.59-3.32v-25.71c0-1.82,1.17-3.33,2.59-3.33Z" transform="translate(-1398.49 -1522.56)"/><path class="cls-25" d="M2383.75,2452h23.82c1.41,0,2.58,1.5,2.58,3.33V2481c0,1.82-1.17,3.32-2.58,3.32h-23.82c-1.42,0-2.59-1.5-2.59-3.32v-25.71c0-1.82,1.17-3.33,2.59-3.33Z" transform="translate(-1398.49 -1522.56)"/><path class="cls-25" d="M2422.47,2452h23.88c1.41,0,2.53,1.5,2.53,3.33V2481c0,1.82-1.12,3.32-2.53,3.32h-23.88c-1.41,0-2.58-1.5-2.58-3.32v-25.71c0-1.82,1.17-3.33,2.58-3.33Z" transform="translate(-1398.49 -1522.56)"/><path class="cls-25" d="M2461.2,2452h23.87c1.41,0,2.57,1.5,2.57,3.33V2481c0,1.82-1.16,3.32-2.57,3.32H2461.2c-1.41,0-2.58-1.5-2.58-3.32v-25.71c0-1.82,1.17-3.33,2.58-3.33Z" transform="translate(-1398.49 -1522.56)"/><path class="cls-25" d="M2500,2452h23.83c1.41,0,2.57,1.5,2.57,3.33V2481c0,1.82-1.16,3.32-2.57,3.32H2500c-1.42,0-2.59-1.5-2.59-3.32v-25.71c0-1.82,1.17-3.33,2.59-3.33Z" transform="translate(-1398.49 -1522.56)"/><path class="cls-25" d="M2519.33,2407.1h23.82c1.42,0,2.59,1.51,2.59,3.33v25.71c0,1.82-1.17,3.33-2.59,3.33h-23.82c-1.46,0-2.58-1.5-2.58-3.33v-25.71c0-1.82,1.12-3.33,2.58-3.33Z" transform="translate(-1398.49 -1522.56)"/><path class="cls-25" d="M2558.05,2407.1h23.82c1.41,0,2.58,1.51,2.58,3.33v25.71c0,1.82-1.16,3.33-2.58,3.33h-23.82c-1.42,0-2.58-1.5-2.58-3.33v-25.71c0-1.82,1.17-3.33,2.58-3.33Z" transform="translate(-1398.49 -1522.56)"/><path class="cls-25" d="M2539.35,2452h42.53c1.41,0,2.58,1.5,2.58,3.33V2481c0,1.82-1.16,3.32-2.58,3.32h-42.53c-1.42,0-2.59-1.5-2.59-3.32v-25.71c0-1.82,1.18-3.33,2.59-3.33Z" transform="translate(-1398.49 -1522.56)"/><path class="cls-25" d="M2093.49,2452h44.14c1.41,0,2.58,1.5,2.58,3.33V2481c0,1.82-1.17,3.32-2.58,3.32h-44.14c-1.46,0-2.58-1.5-2.58-3.32v-25.71c0-1.82,1.12-3.33,2.58-3.33Z" transform="translate(-1398.49 -1522.56)"/><path class="cls-25" d="M2093.49,2496.9h52.71c1.41,0,2.58,1.5,2.58,3.32v25.72c0,1.82-1.17,3.32-2.58,3.32h-52.71c-1.46,0-2.58-1.5-2.58-3.32v-25.72c0-1.82,1.12-3.32,2.58-3.32Z" transform="translate(-1398.49 -1522.56)"/><path class="cls-25" d="M2093.49,2541.81h23.77c1.42,0,2.58,1.5,2.58,3.32v25.71c0,1.82-1.17,3.33-2.58,3.33h-23.77c-1.46,0-2.58-1.51-2.58-3.33v-25.71c0-1.82,1.12-3.32,2.58-3.32Z" transform="translate(-1398.49 -1522.56)"/><path class="cls-25" d="M2132.17,2541.81h23.77c1.41,0,2.59,1.5,2.59,3.32v25.71c0,1.82-1.17,3.33-2.59,3.33h-23.77c-1.41,0-2.58-1.51-2.58-3.33v-25.71c0-1.82,1.17-3.32,2.58-3.32Z" transform="translate(-1398.49 -1522.56)"/><path class="cls-25" d="M2170.85,2541.81h23.77c1.46,0,2.58,1.5,2.58,3.32v25.71c0,1.82-1.12,3.33-2.58,3.33h-23.77c-1.41,0-2.58-1.51-2.58-3.33v-25.71c0-1.82,1.17-3.32,2.58-3.32Z" transform="translate(-1398.49 -1522.56)"/><path class="cls-25" d="M2209.53,2541.81h247.72c1.46,0,2.59,1.5,2.59,3.32v25.71c0,1.82-1.13,3.33-2.59,3.33H2209.53c-1.41,0-2.58-1.51-2.58-3.33v-25.71c0-1.82,1.17-3.32,2.58-3.32Z" transform="translate(-1398.49 -1522.56)"/><path class="cls-25" d="M2160.52,2497.34h23.82c1.42,0,2.58,1.5,2.58,3.32v25.71c0,1.82-1.17,3.32-2.58,3.32h-23.82c-1.42,0-2.58-1.5-2.58-3.32v-25.71c0-1.82,1.17-3.32,2.58-3.32Z" transform="translate(-1398.49 -1522.56)"/><path class="cls-25" d="M2199.26,2497.34h23.87c1.41,0,2.58,1.5,2.58,3.32v25.71c0,1.82-1.17,3.32-2.58,3.32h-23.87c-1.41,0-2.58-1.5-2.58-3.32v-25.71c0-1.82,1.17-3.32,2.58-3.32Z" transform="translate(-1398.49 -1522.56)"/><path class="cls-25" d="M2238,2497.34h23.87c1.41,0,2.58,1.5,2.58,3.32v25.71c0,1.82-1.17,3.32-2.58,3.32H2238c-1.41,0-2.53-1.5-2.53-3.32v-25.71c0-1.82,1.12-3.32,2.53-3.32Z" transform="translate(-1398.49 -1522.56)"/><path class="cls-25" d="M2276.76,2497.34h23.83c1.41,0,2.58,1.5,2.58,3.32v25.71c0,1.82-1.17,3.32-2.58,3.32h-23.83c-1.41,0-2.58-1.5-2.58-3.32v-25.71c0-1.82,1.17-3.32,2.58-3.32Z" transform="translate(-1398.49 -1522.56)"/><path class="cls-25" d="M2315.49,2497.34h23.87c1.41,0,2.53,1.5,2.53,3.32v25.71c0,1.82-1.12,3.32-2.53,3.32h-23.87c-1.41,0-2.58-1.5-2.58-3.32v-25.71c0-1.82,1.17-3.32,2.58-3.32Z" transform="translate(-1398.49 -1522.56)"/><path class="cls-25" d="M2354.23,2497.34h23.86c1.41,0,2.58,1.5,2.58,3.32v25.71c0,1.82-1.17,3.32-2.58,3.32h-23.86c-1.42,0-2.59-1.5-2.59-3.32v-25.71c0-1.82,1.17-3.32,2.59-3.32Z" transform="translate(-1398.49 -1522.56)"/><path class="cls-25" d="M2393,2497.34h23.83c1.41,0,2.58,1.5,2.58,3.32v25.71c0,1.82-1.17,3.32-2.58,3.32H2393c-1.42,0-2.58-1.5-2.58-3.32v-25.71c0-1.82,1.16-3.32,2.58-3.32Z" transform="translate(-1398.49 -1522.56)"/><path class="cls-25" d="M2431.73,2497.34h23.87c1.42,0,2.54,1.5,2.54,3.32v25.71c0,1.82-1.12,3.32-2.54,3.32h-23.87c-1.41,0-2.58-1.5-2.58-3.32v-25.71c0-1.82,1.16-3.32,2.58-3.32Z" transform="translate(-1398.49 -1522.56)"/><path class="cls-25" d="M2470.46,2497.34h44.38c1.41,0,2.59,1.5,2.59,3.32v25.71c0,1.82-1.18,3.32-2.59,3.32h-44.38c-1.42,0-2.58-1.5-2.58-3.32v-25.71c0-1.82,1.16-3.32,2.58-3.32Z" transform="translate(-1398.49 -1522.56)"/><path class="cls-25" d="M2528.86,2496.9h52.77c1.41,0,2.58,1.5,2.58,3.32v25.72c0,1.82-1.17,3.32-2.58,3.32h-52.77c-1.41,0-2.57-1.5-2.57-3.32v-25.72c0-1.82,1.17-3.32,2.57-3.32Z" transform="translate(-1398.49 -1522.56)"/><path class="cls-25" d="M2533.6,2541.81h19.87a1.06,1.06,0,0,1,.93,1.12v8.91a1.06,1.06,0,0,1-.93,1.13H2533.6a1,1,0,0,1-.88-1.13v-8.91a1,1,0,0,1,.88-1.12Z" transform="translate(-1398.49 -1522.56)"/><path class="cls-25" d="M2533.6,2561.18h19.87a1.06,1.06,0,0,1,.93,1.13v8.84a1.06,1.06,0,0,1-.93,1.12H2533.6a1,1,0,0,1-.88-1.12v-8.84a1,1,0,0,1,.88-1.13Z" transform="translate(-1398.49 -1522.56)"/><path class="cls-25" d="M2504.12,2561.18H2524a1.06,1.06,0,0,1,.93,1.13v8.84a1.05,1.05,0,0,1-.93,1.12h-19.88a1,1,0,0,1-.87-1.12v-8.84a1,1,0,0,1,.87-1.13Z" transform="translate(-1398.49 -1522.56)"/><path class="cls-25" d="M2563,2561.18h19.87a1,1,0,0,1,.88,1.13v8.84a1,1,0,0,1-.88,1.12H2563a1.05,1.05,0,0,1-.93-1.12v-8.84a1.06,1.06,0,0,1,.93-1.13Z" transform="translate(-1398.49 -1522.56)"/><path class="cls-25" d="M2469.53,2541.81h23.88c1.42,0,2.58,1.5,2.58,3.32v25.71c0,1.82-1.17,3.33-2.58,3.33h-23.88c-1.41,0-2.57-1.51-2.57-3.33v-25.71c0-1.82,1.17-3.32,2.57-3.32Z" transform="translate(-1398.49 -1522.56)"/></g></g></svg>