<svg id="Layer_1" data-name="Layer 1" xmlns="http://www.w3.org/2000/svg" viewBox="0 0 175 175">
    <defs>
        <style>
            .cls-1 {
                fill: none;
                stroke: #c9ccd0;
                stroke-width: 21px;
            }

            .cls-2 {
                fill: #c9ccd0;
            }
        </style>
    </defs>
    <title>3</title>
    <g id="Page-1">
        <g id="Desktop-HD">
            <g id="путь">
                <g id="_3" data-name="3">
                    <circle id="Oval" class="cls-1" cx="87.5" cy="87.5" r="77" />
                </g>
            </g>
        </g>
    </g>
    <path class="cls-2" d="M47,125.66l11.84-15.2c7.36,7.68,19,12.16,29.44,12.16,13,0,20.16-5.6,20.16-13.6,0-8.48-6.56-12.32-21.44-12.32-4.48,0-11.68.16-13.28.32V76.54c1.92.16,9.28.16,13.28.16,11.84,0,19.68-3.52,19.68-11.36,0-8.48-8.64-12.64-19.84-12.64a38.4,38.4,0,0,0-27,11L48.43,49.5c8.64-9.76,22.08-17,40.8-17,25,0,40.32,11.2,40.32,29,0,13.44-11.52,22.24-23.36,24.32,10.88,1.12,25,9.6,25,25.6,0,18.4-16.48,31.36-42.08,31.36C69.39,142.78,54.83,135.26,47,125.66Z" />
</svg>