<svg id="Design_Development" data-name="Design &amp; Development" xmlns="http://www.w3.org/2000/svg" viewBox="0 0 1104.02 968.3"><defs><style>.cls-1{fill:#c5d0de;}.cls-2{fill:#f7c31c;}.cls-3{fill:#dda300;}.cls-4{fill:#dadada;}.cls-5{fill:#ededed;}.cls-6{fill:#81152d;}.cls-7{fill:#fff;}.cls-8{fill:#d7d7d7;}.cls-9{fill:#f3f3f3;}.cls-10{fill:#706f6f;}.cls-11{fill:#afafaf;}.cls-12{fill:#f6f6f6;}.cls-13{fill:#f85359;}.cls-14{fill:#b2b2b2;}.cls-15{fill:#575756;}.cls-16{fill:#e04327;}.cls-17{fill:#29235c;}.cls-18{fill:#333f52;}.cls-19{fill:#f7981c;}.cls-20{fill:#39b54a;}.cls-21{fill:#fbe8cd;}.cls-22{fill:#56d9cf;}.cls-23{fill:#3c3c3b;}.cls-24{fill:#352f2d;}.cls-25{fill:#cafcf6;opacity:0.5;}.cls-26{fill:#c8a65c;}.cls-27{fill:#f8d7a8;}.cls-28{fill:#7f918b;}.cls-29{fill:#ebebeb;}.cls-30{fill:#496058;}</style></defs><title>8</title><g id="Coding"><g id="Background"><circle id="Background_2" data-name="Background 2" class="cls-1" cx="554.82" cy="509.31" r="442.67"/></g><g id="Coding_and_Programing" data-name="Coding and Programing"><g id="Folder"><path class="cls-2" d="M3564.2,1447.36a10.85,10.85,0,0,1-10.85,10.85h-188.2a10.86,10.86,0,0,1-10.86-10.85v-70.65a10.86,10.86,0,0,1,10.86-10.85h188.2a10.85,10.85,0,0,1,10.85,10.85Z" transform="translate(-2743.12 -1315.41)"/><path class="cls-3" d="M3759.54,1639.3a10.85,10.85,0,0,1-10.85,10.85H3365.15a10.86,10.86,0,0,1-10.86-10.85V1406.66h394.4a10.86,10.86,0,0,1,10.85,10.86Z" transform="translate(-2743.12 -1315.41)"/><path class="cls-2" d="M3759.54,1646.57a10.84,10.84,0,0,1-10.85,10.83H3365.15a10.84,10.84,0,0,1-10.86-10.83V1425.44a10.85,10.85,0,0,1,10.86-10.83h383.54a10.84,10.84,0,0,1,10.85,10.83Z" transform="translate(-2743.12 -1315.41)"/><polygon class="cls-4" points="981.75 99.2 741.13 99.2 900.64 0 981.75 99.2"/><polygon class="cls-5" points="981.75 99.2 764.04 99.2 925.08 10.87 981.75 99.2"/><path class="cls-6" d="M3376.3,1395a5.13,5.13,0,0,1-5.13,5.13h0a5.12,5.12,0,0,1-5.12-5.13v-19.44a5.12,5.12,0,0,1,5.12-5.12h0a5.13,5.13,0,0,1,5.13,5.12Z" transform="translate(-2743.12 -1315.41)"/><path class="cls-7" d="M3468.76,1393.72a6.59,6.59,0,0,1-6.75,6.42h-73.38a6.59,6.59,0,0,1-6.75-6.42v-16.86a6.59,6.59,0,0,1,6.75-6.42H3462a6.59,6.59,0,0,1,6.75,6.42Z" transform="translate(-2743.12 -1315.41)"/></g><g id="Computer"><path class="cls-8" d="M3363,2020.55c0-5.89-6.62-10.66-14.8-10.66H3244c-8.18,0-14.8,4.77-14.8,10.66L3204,2113.8c0,5.88,6.63,10.66,14.8,10.66H3379.7c8.16,0,14.79-4.77,14.79-10.66Z" transform="translate(-2743.12 -1315.41)"/><path class="cls-9" d="M3681.07,2009.57a14.8,14.8,0,0,1-14.79,14.81h-721.4a14.81,14.81,0,0,1-14.8-14.81V1521.25a14.8,14.8,0,0,1,14.8-14.8h721.4a14.79,14.79,0,0,1,14.79,14.8Z" transform="translate(-2743.12 -1315.41)"/><rect class="cls-10" x="186.95" y="219.66" width="750.99" height="416.76"/><path class="cls-11" d="M3467,2115.92a14.79,14.79,0,0,1-14.79,14.8H3148.05a14.8,14.8,0,0,1-14.8-14.8V2101a14.8,14.8,0,0,1,14.8-14.79H3452.2A14.79,14.79,0,0,1,3467,2101Z" transform="translate(-2743.12 -1315.41)"/><polygon class="cls-12" points="928.26 249.25 186.95 249.25 186.95 599.43 700.43 599.43 775.28 599.43 937.94 599.43 937.94 402.11 937.94 311.31 937.94 284.32 937.94 249.25 928.26 249.25"/><rect class="cls-13" x="186.95" y="249.25" width="750.99" height="30.36"/><circle class="cls-5" cx="911.09" cy="264.71" r="6.5"/><circle class="cls-5" cx="885.93" cy="264.71" r="6.5"/><circle class="cls-5" cx="860.78" cy="264.71" r="6.5"/><path class="cls-5" d="M3068.42,1580.13a6.5,6.5,0,0,1-6.5,6.5h-86.37a6.5,6.5,0,0,1-6.5-6.5h0a6.5,6.5,0,0,1,6.5-6.5h86.37a6.5,6.5,0,0,1,6.5,6.5Z" transform="translate(-2743.12 -1315.41)"/><rect class="cls-14" x="255.06" y="295.63" width="57.68" height="13.92"/><rect class="cls-14" x="321.33" y="295.63" width="28.84" height="13.92"/><rect class="cls-14" x="355.79" y="295.63" width="62.98" height="13.92"/><rect class="cls-15" x="310.09" y="343.34" width="43.74" height="12.59"/><rect class="cls-15" x="359.35" y="343.34" width="101.84" height="12.59"/><rect class="cls-15" x="469.13" y="343.34" width="87.04" height="12.59"/><rect class="cls-15" x="323.34" y="371.17" width="69.58" height="12.59"/><rect class="cls-15" x="402.87" y="371.17" width="31.81" height="12.59"/><rect class="cls-15" x="442.63" y="371.17" width="31.81" height="12.59"/><rect class="cls-15" x="482.39" y="371.17" width="115.09" height="12.59"/><rect class="cls-15" x="296.84" y="319.48" width="69.58" height="12.59"/><rect class="cls-15" x="376.35" y="319.48" width="21.88" height="12.59"/><rect class="cls-15" x="455.88" y="319.48" width="55.01" height="12.59"/><rect class="cls-15" x="402.87" y="319.48" width="45.06" height="12.59"/><rect class="cls-16" x="255.06" y="400.33" width="57.68" height="13.91"/><rect class="cls-16" x="321.33" y="400.33" width="28.84" height="13.91"/><rect class="cls-16" x="355.79" y="400.33" width="62.98" height="13.91"/><rect class="cls-17" x="422.06" y="400.33" width="62.98" height="13.91"/><rect class="cls-14" x="255.06" y="501.06" width="57.68" height="13.92"/><rect class="cls-16" x="321.33" y="501.06" width="28.84" height="13.92"/><rect class="cls-16" x="355.79" y="501.06" width="62.98" height="13.92"/><rect class="cls-17" x="422.06" y="501.06" width="62.98" height="13.92"/><rect class="cls-15" x="323.34" y="459.97" width="69.58" height="12.59"/><rect class="cls-15" x="402.87" y="459.97" width="31.81" height="12.59"/><rect class="cls-15" x="442.63" y="459.97" width="31.81" height="12.59"/><rect class="cls-15" x="482.39" y="459.97" width="115.09" height="12.59"/><rect class="cls-15" x="296.84" y="429.49" width="69.58" height="12.59"/><rect class="cls-15" x="376.35" y="429.49" width="21.88" height="12.59"/><rect class="cls-15" x="455.88" y="429.49" width="55.01" height="12.59"/><rect class="cls-15" x="402.87" y="429.49" width="45.06" height="12.59"/><rect class="cls-15" x="296.84" y="531.55" width="43.74" height="12.59"/><rect class="cls-15" x="346.09" y="531.55" width="101.84" height="12.59"/><rect class="cls-15" x="455.88" y="531.55" width="87.04" height="12.59"/><rect class="cls-15" x="310.09" y="558.06" width="69.58" height="12.58"/><rect class="cls-15" x="389.61" y="558.06" width="31.81" height="12.58"/><rect class="cls-15" x="429.38" y="558.06" width="31.81" height="12.58"/><rect class="cls-15" x="469.13" y="558.06" width="115.09" height="12.58"/></g><g id="Gear"><path class="cls-18" d="M3506.69,2219.64a141.62,141.62,0,0,0,24.61-15.16l-5.45-31.77a111.12,111.12,0,0,0,11.22-13.16l32.23.26a140.53,140.53,0,0,0,11-26.73l-23.11-22.49a114,114,0,0,0,1.35-17.25l26.25-18.7a139.3,139.3,0,0,0-6.81-28.06L3546,2042c-1.31-2.54-2.7-5.07-4.22-7.55s-3.16-4.85-4.84-7.17l10.25-30.61a138.69,138.69,0,0,0-22-18.7l-28.52,15a114.1,114.1,0,0,0-16-6.56l-9.69-30.75a140.75,140.75,0,0,0-28.82-2.23l-14.26,28.89a111.78,111.78,0,0,0-16.81,4.09l-25.92-19.17a140.82,140.82,0,0,0-24.62,15.16l5.45,31.77a111,111,0,0,0-11.21,13.16l-32.23-.27a140.83,140.83,0,0,0-11,26.74l23.1,22.49a114,114,0,0,0-1.34,17.25l-26.25,18.71a138.67,138.67,0,0,0,6.8,28.05l31.93,4.62c1.32,2.55,2.7,5.08,4.23,7.55s3.15,4.85,4.84,7.17l-10.25,30.6a139.69,139.69,0,0,0,22,18.71l28.52-15a112.84,112.84,0,0,0,16,6.56l9.69,30.75a140.82,140.82,0,0,0,28.82,2.23l14.26-28.9a111.13,111.13,0,0,0,16.81-4.09Z" transform="translate(-2743.12 -1315.41)"/><path class="cls-19" d="M3476.15,2132.59a47.71,47.71,0,1,1,11.5-66.48A47.72,47.72,0,0,1,3476.15,2132.59Z" transform="translate(-2743.12 -1315.41)"/><g id="Gear-2" data-name="Gear"><path class="cls-13" d="M3745.29,2228.73a108.72,108.72,0,0,0,18-13.13l-6.11-24.08a85.31,85.31,0,0,0,7.82-10.8l24.78-1.74a107.67,107.67,0,0,0,6.82-21.21l-19.1-15.89a87.68,87.68,0,0,0,0-13.33l19-16a107.42,107.42,0,0,0-6.92-21.15l-24.82-1.61c-1.16-1.87-2.37-3.74-3.7-5.55s-2.72-3.54-4.15-5.21l6-24.13a106.67,106.67,0,0,0-18-13l-21,13.26a87.6,87.6,0,0,0-12.69-4.08l-9.31-23a109.24,109.24,0,0,0-22.27,0l-9.22,23.07a87,87,0,0,0-12.66,4.15l-21.07-13.16a106.67,106.67,0,0,0-9.34,6.11,108.52,108.52,0,0,0-8.66,7l6.11,24.08a85,85,0,0,0-7.82,10.8l-24.78,1.74a108.33,108.33,0,0,0-6.82,21.21l19.11,15.89a86.81,86.81,0,0,0,0,13.33l-19,16a107.38,107.38,0,0,0,6.93,21.14l24.82,1.62c1.16,1.88,2.38,3.73,3.7,5.55s2.71,3.53,4.15,5.21l-6,24.13a107.62,107.62,0,0,0,18,13l21-13.27a86.88,86.88,0,0,0,12.7,4.08l9.3,23a107.46,107.46,0,0,0,22.27,0l9.21-23.06a85.39,85.39,0,0,0,12.67-4.16Z" transform="translate(-2743.12 -1315.41)"/><circle class="cls-12" cx="3690.98" cy="2135.42" r="44.04" transform="translate(-3292.44 1270.84) rotate(-36.12)"/></g></g><g id="Chat"><path class="cls-20" d="M3235.55,1357.28h-328.8a15.91,15.91,0,0,0-15.91,15.91v161a15.9,15.9,0,0,0,15.91,15.9h250.72c9.87,17.41,34.55,47,87.81,45.35,0,0-38.75-10.34-41.68-45.35h32a15.9,15.9,0,0,0,15.91-15.9v-161A15.91,15.91,0,0,0,3235.55,1357.28Z" transform="translate(-2743.12 -1315.41)"/><path class="cls-7" d="M2985.07,1452.69l53.66,22.07-3.93,11.64-65.29-27.66v-12.09L3034.8,1419l3.93,11.64Z" transform="translate(-2743.12 -1315.41)"/><path class="cls-7" d="M3057.47,1525.86h-14.36l51.24-146.32h14.06Z" transform="translate(-2743.12 -1315.41)"/><path class="cls-7" d="M3112.79,1430.63l3.93-11.64,65.3,27.66v12.09l-65.3,27.66-3.93-11.64,53.66-22.07Z" transform="translate(-2743.12 -1315.41)"/><path class="cls-20" d="M3239.14,2129.08h-328.8a15.9,15.9,0,0,1-15.91-15.9v-161a15.9,15.9,0,0,1,15.91-15.91h250.72c9.87-17.41,34.54-47,87.81-45.34,0,0-38.75,10.34-41.69,45.34h32a15.91,15.91,0,0,1,15.9,15.91v161A15.9,15.9,0,0,1,3239.14,2129.08Z" transform="translate(-2743.12 -1315.41)"/><path class="cls-7" d="M2984,2031.21a12.53,12.53,0,0,0,5.63-1.16,12.31,12.31,0,0,0,3.92-3,12,12,0,0,0,2.33-4.26,16,16,0,0,0,.75-4.88v-24.73a37.31,37.31,0,0,1,1.24-10,16.21,16.21,0,0,1,4.26-7.35,19.82,19.82,0,0,1,8-4.53,41.85,41.85,0,0,1,12.43-1.58h.55v10q-7.82,0-11.2,2.81t-3.37,10.79v21.15q0,9.07-2.4,14a18.2,18.2,0,0,1-6.8,7.7,18.29,18.29,0,0,1,6.8,7.7q2.4,4.94,2.4,14V2079q0,8,3.37,10.78t11.2,2.82v10h-.55a43.89,43.89,0,0,1-12.43-1.51,18.9,18.9,0,0,1-8-4.54,16.64,16.64,0,0,1-4.26-7.42,37.32,37.32,0,0,1-1.24-10v-24.73a16,16,0,0,0-.75-4.88,12,12,0,0,0-2.33-4.26,12.18,12.18,0,0,0-3.92-3,12.43,12.43,0,0,0-5.63-1.17Z" transform="translate(-2743.12 -1315.41)"/><path class="cls-7" d="M3063.29,2007.17h22.26l4.81-25.14h11.54l-4.8,25.14h12.08v10.17H3095l-4.67,24.58h18.81v10.17h-20.74l-4.8,25.14h-11.54l4.81-25.14h-22.26l-4.81,25.14h-11.54l4.81-25.14H3031v-10.17h14l4.67-24.58H3031v-10.17h20.74l4.81-25.14h11.54Zm-6.73,34.75h22.25l4.81-24.58h-22.26Z" transform="translate(-2743.12 -1315.41)"/><path class="cls-7" d="M3156.17,2041.1a12.45,12.45,0,0,0-5.63,1.17,11.94,11.94,0,0,0-6.25,7.28,16,16,0,0,0-.75,4.88v24.73a37.32,37.32,0,0,1-1.24,10,16.69,16.69,0,0,1-4.26,7.42,18.93,18.93,0,0,1-8,4.54,43.88,43.88,0,0,1-12.43,1.51H3117v-10q7.83,0,11.2-2.82t3.37-10.78v-21.16q0-9.06,2.4-14a18.26,18.26,0,0,1,6.8-7.7,18.18,18.18,0,0,1-6.8-7.7q-2.4-4.94-2.4-14V1993.3q0-8-3.37-10.79t-11.2-2.81v-10h.55a41.83,41.83,0,0,1,12.43,1.58,19.85,19.85,0,0,1,8,4.53,16.26,16.26,0,0,1,4.26,7.35,37.31,37.31,0,0,1,1.24,10v24.73a16,16,0,0,0,.75,4.88,12.1,12.1,0,0,0,2.33,4.26,12.31,12.31,0,0,0,3.92,3,12.54,12.54,0,0,0,5.63,1.16Z" transform="translate(-2743.12 -1315.41)"/><path class="cls-20" d="M3829.9,1707.41H3507.2a17.25,17.25,0,0,0-17.25,17.25v174.63a17.25,17.25,0,0,0,17.25,17.25h40.41c.45,16.31-3.19,40.93-28.19,46.19,0,0,58.43,2.49,80.44-46.19h230a17.25,17.25,0,0,0,17.25-17.25V1724.66A17.25,17.25,0,0,0,3829.9,1707.41Z" transform="translate(-2743.12 -1315.41)"/><path class="cls-7" d="M3551,1810.45l44.06,18.13-3.22,9.56-53.62-22.71v-9.93l53.62-22.71,3.22,9.56Z" transform="translate(-2743.12 -1315.41)"/><path class="cls-7" d="M3610.45,1870.53h-11.79l42.07-120.14h11.55Z" transform="translate(-2743.12 -1315.41)"/><path class="cls-7" d="M3672.88,1840.86a8.47,8.47,0,0,1-2.24,5.84,8.71,8.71,0,0,1-12.16,0,8.75,8.75,0,0,1,0-11.67,8.69,8.69,0,0,1,12.16,0A8.45,8.45,0,0,1,3672.88,1840.86Z" transform="translate(-2743.12 -1315.41)"/><path class="cls-7" d="M3703.4,1840.86a8.46,8.46,0,0,1-2.23,5.84,8.71,8.71,0,0,1-12.16,0,8.74,8.74,0,0,1,0-11.67,8.69,8.69,0,0,1,12.16,0A8.44,8.44,0,0,1,3703.4,1840.86Z" transform="translate(-2743.12 -1315.41)"/><path class="cls-7" d="M3733.93,1840.86a8.48,8.48,0,0,1-2.23,5.84,8.72,8.72,0,0,1-12.17,0,8.74,8.74,0,0,1,0-11.67,8.7,8.7,0,0,1,12.17,0A8.46,8.46,0,0,1,3733.93,1840.86Z" transform="translate(-2743.12 -1315.41)"/><path class="cls-7" d="M3747.46,1792.34l3.23-9.56,53.61,22.71v9.93l-53.61,22.71-3.23-9.56,44.06-18.12Z" transform="translate(-2743.12 -1315.41)"/></g><g id="Magnify"><polygon class="cls-21" points="73.22 740.44 72.22 578.36 194.68 498.5 211.74 564.13 153.06 789.37 63.3 772.85 73.22 740.44"/><path class="cls-22" d="M2941.1,1532.91a99.52,99.52,0,0,1,114.94,33.2,102.53,102.53,0,0,1,7.12,10.85,99.61,99.61,0,1,1-122.06-44.06Z" transform="translate(-2743.12 -1315.41)"/><rect class="cls-23" x="2900.92" y="1782.59" width="93.27" height="38.24" transform="translate(-2130.68 3032.18) rotate(-78.91)"/><g id="Magnifiy"><path class="cls-24" d="M3004.45,1491a139.36,139.36,0,1,0,110,163.56A139.37,139.37,0,0,0,3004.45,1491ZM2957.3,1723.8a99.62,99.62,0,1,1,116.92-78.59A99.61,99.61,0,0,1,2957.3,1723.8Z" transform="translate(-2743.12 -1315.41)"/><path class="cls-25" d="M3022.37,1618.55a9.76,9.76,0,0,0,.13,13.82l3.1,3a9.76,9.76,0,0,0,13.81-.14l33.52-34.16a99.51,99.51,0,0,0-9.78-24.14Z" transform="translate(-2743.12 -1315.41)"/><path class="cls-25" d="M2965.29,1627.48l4.79,4.69a15.11,15.11,0,0,0,21.37-.2l64.6-65.85a99.61,99.61,0,0,0-27.3-24.9l-63.67,64.89A15.11,15.11,0,0,0,2965.29,1627.48Z" transform="translate(-2743.12 -1315.41)"/></g><path class="cls-26" d="M2938.87,2045.24c-4.11,21-23.39,34.84-43.06,31s-32.29-24-28.18-44.95l44.79-229,71.23,14Z" transform="translate(-2743.12 -1315.41)"/><path class="cls-27" d="M2890.68,1986a23.76,23.76,0,0,0,28.76,17.37L2965.6,1992a23.78,23.78,0,0,0,17.37-28.78h0a23.77,23.77,0,0,0-28.78-17.38L2908,1957.2a23.77,23.77,0,0,0-17.37,28.78Z" transform="translate(-2743.12 -1315.41)"/><path class="cls-27" d="M2896.5,1939.14a24.34,24.34,0,0,0,29.45,17.79l47.26-11.67a24.33,24.33,0,0,0,17.78-29.47h0a24.32,24.32,0,0,0-29.45-17.79l-47.25,11.67a24.33,24.33,0,0,0-17.79,29.46Z" transform="translate(-2743.12 -1315.41)"/><path class="cls-27" d="M2902.67,2024.27a18.23,18.23,0,0,0,22.08,13.32l35.41-8.74a18.24,18.24,0,0,0,13.33-22.09h0a18.23,18.23,0,0,0-22.08-13.33l-35.42,8.75a18.24,18.24,0,0,0-13.33,22.08Z" transform="translate(-2743.12 -1315.41)"/><path class="cls-21" d="M2889.5,2094.46l55.83-118.31-.92-73.91s37.75,21.73,59.72,13.29c25.71-9.88,23.61-28.76,11.54-35.91s-37-20.9-49.24-38.65-29-11-41.88-2.07-75.54,65.69-75.54,65.69l-34.46,176.07Z" transform="translate(-2743.12 -1315.41)"/><polygon class="cls-28" points="88.56 789.22 184.03 806.78 154.3 968.3 107.28 959.65 0 939.91 29.73 778.39 88.56 789.22"/><rect class="cls-29" x="2843.95" y="2030.84" width="20.47" height="135.05" transform="translate(-2469.19 3210.25) rotate(-79.57)"/><polygon class="cls-30" points="184.03 806.78 154.3 968.3 107.28 959.65 88.56 789.22 184.03 806.78"/></g></g></g></svg>