<svg xmlns="http://www.w3.org/2000/svg" viewBox="0 0 643.04 637.43"><defs><style>.cls-1{isolation:isolate;}.cls-2{fill:#747678;}.cls-3{fill:#8b9092;}.cls-4{fill:#adafb0;}.cls-5{fill:#a0a7ad;}.cls-6{fill:#cacacc;}.cls-7{fill:#f1f4f8;}.cls-8{fill:#39b54a;}.cls-9{fill:#cf3a52;}.cls-10{fill:#f85359;}.cls-11{fill:#8f959b;}.cls-12{fill:#b5b5b7;}.cls-13{fill:#f37c54;}.cls-14{fill:#35ab45;}.cls-15{fill:#5cd2d2;}.cls-16{fill:#35ac45;}.cls-17{fill:#20aae0;}.cls-18{fill:#f6678a;}.cls-19{fill:#4f9cd0;}.cls-20{fill:#f2c06b;}.cls-21{fill:#e5f4f7;}.cls-22{fill:#d1d3d4;}.cls-23{fill:#909193;}.cls-24{fill:#758082;}.cls-25{fill:#adb5b6;}.cls-26{fill:#e4e4e5;}.cls-27{fill:#eb4517;}.cls-28{fill:#fff;}.cls-29{fill:#c76746;}.cls-30{fill:#f8b29b;}.cls-31{fill:#c59e78;}.cls-32{fill:#485654;}.cls-33{fill:#6e8583;}.cls-34{fill:#5b6e6c;}.cls-35{fill:#3b4846;}.cls-36{fill:#262729;}.cls-37{fill:#7f56c5;}.cls-38{fill:#c2a9e3;}.cls-38,.cls-39{mix-blend-mode:overlay;}.cls-39{fill:#e8dbf3;opacity:0.8;}.cls-40{fill:#00a19b;}.cls-41{fill:#7c98ab;}.cls-42{fill:#a7bac9;}.cls-43{fill:#5d7e95;}.cls-44{fill:#e3516e;}.cls-45{fill:#21adad;}.cls-46{fill:#e6e7e8;}.cls-47{fill:#d3d1d3;}.cls-48{mix-blend-mode:multiply;}.cls-49{fill:#a4dae7;}.cls-50{fill:#d3ecf3;}.cls-51{fill:#c8858f;}.cls-52,.cls-53{fill:#446ca9;}.cls-53,.cls-73{opacity:0.5;}.cls-53,.cls-55{mix-blend-mode:screen;}.cls-54{fill:#1e428a;}.cls-55{fill:#959bc4;opacity:0.25;}.cls-56{fill:#e7e9ea;}.cls-57{fill:#afb6bb;}.cls-58{fill:#543e36;}.cls-59{fill:#72594b;}.cls-60{fill:#fffffe;}.cls-61{fill:#d2cfcb;}.cls-62{fill:#b19380;}.cls-63{fill:#a08171;}.cls-64{fill:#008fbe;}.cls-65{fill:#00c1de;}.cls-66{fill:#55565a;}.cls-67{fill:#342e1f;}.cls-68{fill:#6fd1e6;}.cls-69{fill:#f0d0b4;}.cls-70{fill:#222;}.cls-71{fill:#9fe5e5;}.cls-72{fill:#77bc1f;}.cls-73,.cls-75{fill:#bde087;}.cls-74{fill:#a4d55d;}.cls-76{fill:#fd5373;}.cls-77{fill:#cf0a2c;}.cls-78{fill:#f8daa9;}.cls-79{fill:#c69f59;}.cls-80{fill:#f3f4f4;}.cls-81{fill:#e4615b;}.cls-82{fill:#768ebe;}.cls-83{fill:#1ccfc9;}.cls-84{fill:#8ae1db;}.cls-85{fill:#00c4bc;}.cls-86{fill:#edeeee;}.cls-87{fill:#f18b81;}.cls-88{fill:#5e6ca6;}</style></defs><title>about</title><g class="cls-1"><g id="OBJECTS"><polyline class="cls-2" points="189.64 493.76 258.08 533.27 258.08 540.43 189.64 500.95 189.64 493.76"/><polyline class="cls-3" points="261.43 531.35 261.41 538.46 258.08 540.43 258.08 533.27 261.43 531.35"/><polyline class="cls-4" points="192.98 491.83 192.98 491.83 261.43 531.35 258.08 533.27 189.64 493.76 192.98 491.83"/><polyline class="cls-2" points="202.09 486.5 270.53 526.02 270.53 533.18 202.09 493.69 202.09 486.5"/><polyline class="cls-3" points="273.88 524.1 273.86 531.21 270.53 533.18 270.53 526.02 273.88 524.1"/><polyline class="cls-4" points="205.43 484.57 205.43 484.57 273.88 524.1 273.88 524.1 270.53 526.02 202.09 486.5 205.43 484.57"/><polyline class="cls-2" points="214.42 479.42 282.86 518.94 282.86 526.09 214.42 486.61 214.42 479.42"/><polyline class="cls-3" points="286.21 517.01 286.2 524.12 282.86 526.09 282.86 518.94 286.21 517.01"/><polyline class="cls-4" points="217.77 477.49 286.21 517.01 282.86 518.94 214.42 479.42 217.77 477.49"/><path class="cls-5" d="M171.19,558.81l377.59-218a28,28,0,0,0,14-24.25V76.69a14,14,0,0,0-21-12.13L164.22,282.09a28,28,0,0,0-14,24.26V546.69a14,14,0,0,0,21,12.12" transform="translate(-77.07 -62.67)"/><path class="cls-5" d="M410.53,430.44l-.12,36.24a24,24,0,0,0,12,20.86l31.52,18.19L366.81,556,335.2,537.87a24,24,0,0,1-12-20.81v-36.4l87.37-50.22" transform="translate(-77.07 -62.67)"/><polygon class="cls-5" points="88.8 500.61 80.57 496.39 87.66 486.5 88.8 500.61"/><polygon class="cls-5" points="478.89 2 487.27 6.31 483.09 6.28 478.89 2"/><path class="cls-6" d="M180,563.38l377.59-218a28,28,0,0,0,14-24.25V81.26a14,14,0,0,0-21-12.13L173.05,286.66a28,28,0,0,0-14,24.26V551.26a14,14,0,0,0,21,12.12" transform="translate(-77.07 -62.67)"/><polyline class="cls-7" points="475.87 27.11 475.87 256.56 102.16 472.33 102.16 242.01 475.87 27.11"/><polyline class="cls-8" points="457.13 59.05 457.14 87.78 127.41 278.14 127.39 249.45 457.13 59.05"/><polyline class="cls-8" points="457.03 102.25 457.06 188.54 388.72 227.91 388.65 141.77 457.03 102.25"/><polyline class="cls-9" points="376.31 156.05 376.43 242.08 307.87 281.78 307.85 195.56 376.31 156.05"/><path class="cls-10" d="M438.41,298.49,432.27,302h0l6.15-3.55h0m15-79.77-68.47,39.51,0,86.23,28.69-16.62v-9.39l-5.16,4.15a2,2,0,0,1-2.26.17L395,316.27v-4.15l11.24,6.51a2,2,0,0,0,2.26-.18l5.16-4.19h0l-5.16,4.19a2,2,0,0,1-2.26.18L395,312.11l6.29-3.55,4.81,2.77a2,2,0,0,0,2.44-.35l5.11-5.35h0l4.13-2.38,8.21-4.75,1-.6.83-.48h0l4.41-2.55,1.24-.72,6.2,3.61,1,.6-.35.72-1.63-.76-.29.17,0,15,15.06-8.72-.11-86" transform="translate(-77.07 -62.67)"/><polyline class="cls-8" points="283 202.69 283.03 288.98 214.52 328.44 214.28 242.33 283 202.69"/><polyline class="cls-8" points="195.83 253.03 195.84 403.93 127.39 443.45 127.11 292.66 195.83 253.03"/><polyline class="cls-11" points="252.31 414.47 252.31 421.62 246.15 418.02 252.31 414.47"/><polyline class="cls-12" points="252.31 414.4 252.31 414.47 246.15 418.02 246.08 417.99 252.31 414.4"/><path class="cls-5" d="M368.41,441.76c0,3.57,2.89,4.79,6.46,2.74s6.46-6.61,6.46-10.18-2.89-4.79-6.46-2.74S368.41,438.2,368.41,441.76Z" transform="translate(-77.07 -62.67)"/><polyline class="cls-13" points="457.19 59.03 453.98 57.18 124.27 247.66 124.33 276.43 127.38 278.2 127.4 249.45 457.19 59.03"/><polyline class="cls-14" points="124.27 247.66 127.4 249.45 127.38 278.2 124.33 276.35 124.27 247.66"/><polygon class="cls-5" points="471.9 29.39 471.9 258.85 475.87 256.56 475.87 27.11 471.9 29.39"/><polyline class="cls-5" points="471.9 254.31 102.16 467.75 102.16 472.32 475.87 256.6 471.9 254.31"/><polyline class="cls-15" points="457.2 102.14 453.96 100.3 385.52 139.84 385.48 226.01 388.72 227.91 388.65 141.77 457.2 102.14"/><polyline class="cls-16" points="385.52 139.84 388.65 141.77 388.72 227.89 385.48 226.01 385.52 139.84"/><polyline class="cls-16" points="453.96 100.3 457.2 102.14 388.65 141.77 385.52 139.84 453.96 100.3"/><polyline class="cls-17" points="376.31 156.05 366.87 150.6 298.46 190.14 298.52 276.41 307.87 281.78 307.85 195.56 376.31 156.05"/><polyline class="cls-9" points="376.31 156.05 366.87 150.6 298.46 190.14 307.85 195.56 376.31 156.05"/><polyline class="cls-18" points="366.87 150.6 376.31 156.05 307.85 195.56 298.46 190.14 366.87 150.6"/><polygon class="cls-9" points="298.46 190.14 298.52 276.41 307.87 281.78 307.85 195.56 298.46 190.14"/><polyline class="cls-19" points="283 202.69 279.76 200.85 211.32 240.4 211.28 326.56 214.52 328.44 214.28 242.33 283 202.69"/><polyline class="cls-16" points="211.32 240.4 214.28 242.33 214.52 328.44 211.28 326.56 211.32 240.4"/><polyline class="cls-16" points="279.76 200.85 283 202.69 214.28 242.33 211.32 240.4 279.76 200.85"/><polyline class="cls-20" points="195.84 253.02 192.6 251.19 124.16 290.73 124.13 441.58 127.38 443.46 127.45 292.47 195.84 253.02"/><polyline class="cls-21" points="124.16 290.73 124.16 290.73 124.13 441.58 124.13 441.57 124.16 290.73"/><polyline class="cls-22" points="124.16 290.73 124.16 290.73 124.13 441.58 124.13 441.57 124.16 290.73"/><polyline class="cls-14" points="124.16 290.73 127.45 292.47 127.38 443.45 124.13 441.57 124.16 290.73"/><polyline class="cls-16" points="453.99 57.18 457.19 59.03 127.4 249.45 124.27 247.66 453.99 57.18"/><polyline class="cls-16" points="192.6 251.19 195.84 253.02 127.45 292.47 124.16 290.73 192.6 251.19"/><polyline class="cls-21" points="457.2 202.74 457.21 209.93 388.75 249.45 388.75 242.26 457.2 202.74"/><polyline class="cls-23" points="457.2 202.74 457.21 209.93 388.75 249.45 388.75 242.26 457.2 202.74"/><polyline class="cls-21" points="385.43 240.33 388.75 242.26 388.75 249.45 385.5 247.54 385.43 240.33"/><polyline class="cls-24" points="385.43 240.33 388.75 242.26 388.75 249.45 385.5 247.54 385.43 240.33"/><polyline class="cls-21" points="453.88 200.81 457.2 202.74 388.75 242.26 385.43 240.33 453.88 200.81"/><polyline class="cls-25" points="453.88 200.81 457.2 202.74 388.75 242.26 385.43 240.33 453.88 200.81"/><polyline class="cls-21" points="457.2 217.12 457.21 224.31 388.75 263.82 388.75 256.64 457.2 217.12"/><polyline class="cls-23" points="457.2 217.12 457.21 224.31 388.75 263.82 388.75 256.64 457.2 217.12"/><polyline class="cls-21" points="385.43 254.7 388.75 256.64 388.75 263.82 385.5 261.92 385.43 254.7"/><polyline class="cls-24" points="385.43 254.7 388.75 256.64 388.75 263.82 385.5 261.92 385.43 254.7"/><polyline class="cls-21" points="453.88 215.18 457.2 217.12 388.75 256.64 385.43 254.7 453.88 215.18"/><polyline class="cls-25" points="453.88 215.18 457.2 217.12 388.75 256.64 385.43 254.7 453.88 215.18"/><polyline class="cls-21" points="457.2 231.48 457.21 238.67 388.75 278.18 388.75 271 457.2 231.48"/><polyline class="cls-23" points="457.2 231.48 457.21 238.67 388.75 278.18 388.75 271 457.2 231.48"/><polyline class="cls-21" points="385.43 269.06 388.75 271 388.75 278.18 385.5 276.28 385.43 269.06"/><polyline class="cls-24" points="385.43 269.06 388.75 271 388.75 278.18 385.5 276.28 385.43 269.06"/><polyline class="cls-21" points="453.88 229.55 457.2 231.48 388.75 271 385.43 269.06 453.88 229.55"/><polyline class="cls-25" points="453.88 229.55 457.2 231.48 388.75 271 385.43 269.06 453.88 229.55"/><polyline class="cls-21" points="457.2 245.85 457.21 253.04 388.75 292.55 388.75 285.37 457.2 245.85"/><polyline class="cls-23" points="457.2 245.85 457.21 253.04 388.75 292.55 388.75 285.37 457.2 245.85"/><polyline class="cls-21" points="385.43 283.44 388.75 285.37 388.75 292.55 385.5 290.65 385.43 283.44"/><polyline class="cls-24" points="385.43 283.44 388.75 285.37 388.75 292.55 385.5 290.65 385.43 283.44"/><polyline class="cls-21" points="453.88 243.92 457.2 245.85 388.75 285.37 385.43 283.44 453.88 243.92"/><polyline class="cls-25" points="453.88 243.92 457.2 245.85 388.75 285.37 385.43 283.44 453.88 243.92"/><path class="cls-21" d="M413.64,335.07l-34.92,20.16v7.18l10.81-6.24L389,353.7l6.25-3.63,2.42,1.42,16-9.23v-7.19m33.53-19.36-8.72,5v7.18l8.71-5v-7.19" transform="translate(-77.07 -62.67)"/><path class="cls-23" d="M413.64,335.07l-34.92,20.16v7.18l10.81-6.24L389,353.7l6.25-3.63,2.42,1.42,16-9.23v-7.19m33.53-19.36-8.72,5v7.18l8.71-5v-7.19" transform="translate(-77.07 -62.67)"/><polyline class="cls-21" points="298.32 290.63 301.65 292.56 301.65 299.74 298.39 297.84 298.32 290.63"/><polyline class="cls-24" points="298.32 290.63 301.65 292.56 301.65 299.74 298.39 297.84 298.32 290.63"/><path class="cls-21" d="M413.64,331.22,375.4,353.3l3.32,1.93,34.92-20.16v-3.85m30.21-17.44-5.41,3.12v3.85l8.72-5-3.32-1.93" transform="translate(-77.07 -62.67)"/><path class="cls-25" d="M413.64,331.22,375.4,353.3l3.32,1.93,34.92-20.16v-3.85m30.21-17.44-5.41,3.12v3.85l8.72-5-3.32-1.93" transform="translate(-77.07 -62.67)"/><path class="cls-21" d="M390.95,362.55l-12.23,7.06v7.18l13.64-7.88-1.41-6.37m28.86-16.66L395.7,359.8l1.42,6.37,32.58-18.81-.14-.63-9.75,5.62v-6.47m27.37-15.8-7.88,4.55,1.42,6.37,6.46-3.73v-7.19" transform="translate(-77.07 -62.67)"/><path class="cls-23" d="M390.95,362.55l-12.23,7.06v7.18l13.64-7.88-1.41-6.37m28.86-16.66L395.7,359.8l1.42,6.37,32.58-18.81-.14-.63-9.75,5.62v-6.47m27.37-15.8-7.88,4.55,1.42,6.37,6.46-3.73v-7.19" transform="translate(-77.07 -62.67)"/><polyline class="cls-21" points="298.32 305 301.65 306.93 301.65 314.12 298.39 312.21 298.32 305"/><polyline class="cls-24" points="298.32 305 301.65 306.93 301.65 314.12 298.39 312.21 298.32 305"/><path class="cls-21" d="M390.19,359.13l-14.79,8.54,3.32,1.93,12.23-7.06-.76-3.41m29.62-14-6.16,3.55h0v-3.14l-13.13,7.58.89.53-6.25,3.63.55,2.47,24.1-13.91v-.7m24-17-5.38,3.11V332l.27.16.56,2.53,7.88-4.55-3.32-1.93" transform="translate(-77.07 -62.67)"/><path class="cls-25" d="M390.19,359.13l-14.79,8.54,3.32,1.93,12.23-7.06-.76-3.41m29.62-14-6.16,3.55h0v-3.14l-13.13,7.58.89.53-6.25,3.63.55,2.47,24.1-13.91v-.7m24-17-5.38,3.11V332l.27.16.56,2.53,7.88-4.55-3.32-1.93" transform="translate(-77.07 -62.67)"/><path class="cls-21" d="M399.83,378.32l.13.57.43-.25-.56-.32m-6-3L378.72,384v7.18l16.47-9.51-1.41-6.37m53.39-30.83-5,2.91,1.42,6.37,3.64-2.1v-7.19" transform="translate(-77.07 -62.67)"/><path class="cls-23" d="M399.83,378.32l.13.57.43-.25-.56-.32m-6-3L378.72,384v7.18l16.47-9.51-1.41-6.37m53.39-30.83-5,2.91,1.42,6.37,3.64-2.1v-7.19" transform="translate(-77.07 -62.67)"/><polyline class="cls-21" points="298.32 319.36 301.65 321.3 301.65 328.48 298.39 326.58 298.32 319.36"/><polyline class="cls-24" points="298.32 319.36 301.65 321.3 301.65 328.48 298.39 326.58 298.32 319.36"/><path class="cls-21" d="M393,371.86,375.4,382l3.32,1.93,15.06-8.69-.76-3.41m37.33-21.56-32.58,18.81.18.83,32.57-18.74h0l-.2-.89m13.5-7.79L441.36,344l.76,3.41,5-2.91-3.32-1.93" transform="translate(-77.07 -62.67)"/><path class="cls-25" d="M393,371.86,375.4,382l3.32,1.93,15.06-8.69-.76-3.41m37.33-21.56-32.58,18.81.18.83,32.57-18.74h0l-.2-.89m13.5-7.79L441.36,344l.76,3.41,5-2.91-3.32-1.93" transform="translate(-77.07 -62.67)"/><path class="cls-21" d="M396.61,388l-17.88,10.33v7.18L398,394.38,396.61,388m37.33-21.56-32.57,18.8,1.42,6.37,32.57-18.8-1.42-6.37m13.23-7.64L445,360.1l1.42,6.37.8-.46v-7.19" transform="translate(-77.07 -62.67)"/><path class="cls-23" d="M396.61,388l-17.88,10.33v7.18L398,394.38,396.61,388m37.33-21.56-32.57,18.8,1.42,6.37,32.57-18.8-1.42-6.37m13.23-7.64L445,360.1l1.42,6.37.8-.46v-7.19" transform="translate(-77.07 -62.67)"/><polyline class="cls-21" points="298.32 333.73 301.65 335.67 301.65 342.85 298.39 340.95 298.32 333.73"/><polyline class="cls-24" points="298.32 333.73 301.65 335.67 301.65 342.85 298.39 340.95 298.32 333.73"/><path class="cls-21" d="M395.85,384.6,375.4,396.41l3.32,1.93L396.61,388l-.76-3.41m37.52-20.72-29.29,16.91v0l-.81-.47-2.66,1.54.76,3.41,32.57-18.8-.57-2.58m10.93-6.73.66,3,2.22-1.28-2.87-1.67" transform="translate(-77.07 -62.67)"/><path class="cls-25" d="M395.85,384.6,375.4,396.41l3.32,1.93L396.61,388l-.76-3.41m37.52-20.72-29.29,16.91v0l-.81-.47-2.66,1.54.76,3.41,32.57-18.8-.57-2.58m10.93-6.73.66,3,2.22-1.28-2.87-1.67" transform="translate(-77.07 -62.67)"/><polyline class="cls-21" points="282.96 303.38 282.96 310.57 214.51 350.09 214.51 342.9 282.96 303.38"/><polyline class="cls-23" points="282.96 303.38 282.96 310.57 214.51 350.09 214.51 342.9 282.96 303.38"/><polyline class="cls-21" points="211.19 340.97 214.51 342.9 214.51 350.09 211.25 348.18 211.19 340.97"/><polyline class="cls-24" points="211.19 340.97 214.51 342.9 214.51 350.09 211.25 348.18 211.19 340.97"/><polyline class="cls-21" points="279.63 301.45 282.96 303.38 214.51 342.9 211.19 340.97 279.63 301.45"/><polyline class="cls-25" points="279.63 301.45 282.96 303.38 214.51 342.9 211.19 340.97 279.63 301.45"/><polyline class="cls-21" points="282.96 317.76 282.96 324.94 214.51 364.46 214.51 357.28 282.96 317.76"/><polyline class="cls-23" points="282.96 317.76 282.96 324.94 214.51 364.46 214.51 357.28 282.96 317.76"/><polyline class="cls-21" points="211.19 355.34 214.51 357.28 214.51 364.46 211.25 362.56 211.19 355.34"/><polyline class="cls-24" points="211.19 355.34 214.51 357.28 214.51 364.46 211.25 362.56 211.19 355.34"/><polyline class="cls-21" points="279.63 315.82 282.96 317.76 214.51 357.28 211.19 355.34 279.63 315.82"/><polyline class="cls-25" points="279.63 315.82 282.96 317.76 214.51 357.28 211.19 355.34 279.63 315.82"/><polyline class="cls-21" points="282.96 332.12 282.96 339.31 214.51 378.82 214.51 371.64 282.96 332.12"/><polyline class="cls-23" points="282.96 332.12 282.96 339.31 214.51 378.82 214.51 371.64 282.96 332.12"/><polyline class="cls-21" points="211.19 369.7 214.51 371.64 214.51 378.82 211.25 376.92 211.19 369.7"/><polyline class="cls-24" points="211.19 369.7 214.51 371.64 214.51 378.82 211.25 376.92 211.19 369.7"/><polyline class="cls-21" points="279.63 330.19 282.96 332.12 214.51 371.64 211.19 369.7 279.63 330.19"/><polyline class="cls-25" points="279.63 330.19 282.96 332.12 214.51 371.64 211.19 369.7 279.63 330.19"/><polyline class="cls-21" points="282.96 346.49 282.96 353.68 214.51 393.19 214.51 386.01 282.96 346.49"/><polyline class="cls-23" points="282.96 346.49 282.96 353.68 214.51 393.19 214.51 386.01 282.96 346.49"/><polyline class="cls-21" points="211.19 384.08 214.51 386.01 214.51 393.19 211.25 391.29 211.19 384.08"/><polyline class="cls-24" points="211.19 384.08 214.51 386.01 214.51 393.19 211.25 391.29 211.19 384.08"/><polyline class="cls-21" points="279.63 344.56 282.96 346.49 214.51 386.01 211.19 384.08 279.63 344.56"/><polyline class="cls-25" points="279.63 344.56 282.96 346.49 214.51 386.01 211.19 384.08 279.63 344.56"/><path class="cls-6" d="M416.76,426.84l-.12,38.56a20,20,0,0,0,10,17.39l27.3,15.76-87.12,50.3-27.39-15.73a20,20,0,0,1-10-17.34V477.06l87.37-50.22" transform="translate(-77.07 -62.67)"/><polyline class="cls-5" points="376.86 435.88 376.86 443.07 370.63 439.48 376.86 435.88"/><polyline class="cls-26" points="339.67 368.07 339.66 371.19 339.66 371.19 339.67 368.07 339.67 368.07"/><path class="cls-12" d="M406.54,432.72l-77.15,44.35v7.23l80.35-46.4-2.35-1.37-.85-3.81m8.86-5.09,0,3.91-3.38-2-.67.39,1.38,6.21,4-2.33v-3.11l-1.37.79,0-3.91" transform="translate(-77.07 -62.67)"/><polyline class="cls-27" points="491.23 458.11 643.04 370.53 643.04 341.76 491.23 429.34 491.23 458.11"/><polyline class="cls-13" points="491.23 458.11 643.04 370.53 643.04 341.76 491.23 429.34 491.23 458.11"/><polyline class="cls-28" points="639.25 354.06 640.74 353.2 640.74 343.08 639.25 343.94 639.25 354.06"/><polyline class="cls-28" points="635.51 356.21 637 355.35 637 345.24 635.51 346.1 635.51 356.21"/><polyline class="cls-28" points="631.78 358.37 633.27 357.51 633.27 347.4 631.78 348.26 631.78 358.37"/><polyline class="cls-28" points="628.04 360.52 629.53 359.67 629.53 349.56 628.04 350.41 628.04 360.52"/><polyline class="cls-28" points="620.56 364.84 622.05 363.98 622.05 353.87 620.56 354.73 620.56 364.84"/><polyline class="cls-28" points="616.83 366.99 618.32 366.13 618.32 356.02 616.83 356.88 616.83 366.99"/><polyline class="cls-28" points="613.09 369.15 614.58 368.29 614.58 358.18 613.09 359.04 613.09 369.15"/><polyline class="cls-28" points="609.35 371.31 610.84 370.45 610.84 360.34 609.35 361.2 609.35 371.31"/><polyline class="cls-28" points="601.87 375.62 603.36 374.76 603.36 364.65 601.87 365.51 601.87 375.62"/><polyline class="cls-28" points="598.14 377.78 599.63 376.92 599.63 366.81 598.14 367.67 598.14 377.78"/><polyline class="cls-28" points="594.4 379.93 595.89 379.07 595.89 368.96 594.4 369.82 594.4 379.93"/><polyline class="cls-28" points="590.66 382.09 592.15 381.23 592.15 371.12 590.66 371.98 590.66 382.09"/><polyline class="cls-28" points="583.18 386.4 584.67 385.54 584.67 375.43 583.18 376.29 583.18 386.4"/><polyline class="cls-28" points="579.45 388.56 580.94 387.7 580.94 377.59 579.45 378.45 579.45 388.56"/><polyline class="cls-28" points="575.71 390.71 577.2 389.86 577.2 379.75 575.71 380.6 575.71 390.71"/><polyline class="cls-28" points="571.97 392.87 573.46 392.01 573.46 381.9 571.97 382.76 571.97 392.87"/><polyline class="cls-28" points="564.5 397.18 565.98 396.32 565.98 386.21 564.5 387.07 564.5 397.18"/><polyline class="cls-28" points="560.76 399.34 562.25 398.48 562.25 388.37 560.76 389.23 560.76 399.34"/><polyline class="cls-28" points="557.02 401.5 558.51 400.64 558.51 390.53 557.02 391.39 557.02 401.5"/><polyline class="cls-28" points="553.28 403.65 554.77 402.79 554.77 392.68 553.28 393.54 553.28 403.65"/><polyline class="cls-28" points="545.81 407.97 547.29 407.11 547.29 397 545.81 397.86 545.81 407.97"/><polyline class="cls-28" points="542.07 410.12 543.56 409.26 543.56 399.15 542.07 400.01 542.07 410.12"/><polyline class="cls-28" points="538.33 412.28 539.82 411.42 539.82 401.31 538.33 402.17 538.33 412.28"/><polyline class="cls-28" points="534.59 414.44 536.08 413.58 536.08 403.47 534.59 404.32 534.59 414.44"/><polyline class="cls-28" points="527.12 418.75 528.61 417.89 528.61 407.78 527.12 408.64 527.12 418.75"/><polyline class="cls-28" points="523.38 420.9 524.87 420.05 524.87 409.94 523.38 410.79 523.38 420.9"/><polyline class="cls-28" points="519.64 423.06 521.13 422.2 521.13 412.09 519.64 412.95 519.64 423.06"/><polyline class="cls-28" points="515.9 425.22 517.39 424.36 517.39 414.25 515.9 415.11 515.9 425.22"/><polyline class="cls-28" points="508.43 429.53 509.92 428.67 509.92 418.56 508.43 419.42 508.43 429.53"/><polyline class="cls-28" points="504.69 431.69 506.18 430.83 506.18 420.72 504.69 421.58 504.69 431.69"/><polyline class="cls-28" points="500.95 433.84 502.44 432.99 502.44 422.87 500.95 423.73 500.95 433.84"/><polyline class="cls-28" points="497.21 436 498.7 435.14 498.7 425.03 497.21 425.89 497.21 436"/><polyline class="cls-28" points="624.3 366.95 625.79 366.1 625.79 351.71 624.3 352.57 624.3 366.95"/><polyline class="cls-28" points="605.61 377.74 607.1 376.88 607.1 362.49 605.61 363.35 605.61 377.74"/><polyline class="cls-28" points="586.92 388.52 588.41 387.66 588.41 373.28 586.92 374.13 586.92 388.52"/><polyline class="cls-28" points="568.23 399.3 569.72 398.44 569.72 384.06 568.23 384.92 568.23 399.3"/><polyline class="cls-28" points="549.54 410.08 551.03 409.22 551.03 394.84 549.54 395.7 549.54 410.08"/><polyline class="cls-28" points="530.85 420.87 532.34 420.01 532.34 405.62 530.85 406.48 530.85 420.87"/><polyline class="cls-28" points="512.16 431.65 513.65 430.79 513.65 416.4 512.16 417.26 512.16 431.65"/><polyline class="cls-28" points="493.48 442.43 494.96 441.57 494.96 427.19 493.48 428.05 493.48 442.43"/><polyline class="cls-13" points="484.79 426.03 484.79 454.69 491.23 458.11 491.23 429.34 484.79 426.03"/><polyline class="cls-29" points="484.79 426.03 491.23 429.34 491.23 458.11 484.79 454.69 484.79 426.03"/><polyline class="cls-13" points="643.04 341.76 636.62 338.03 484.79 426.03 491.23 429.34 643.04 341.76"/><polyline class="cls-30" points="636.62 338.03 643.04 341.76 491.23 429.34 484.79 426.03 636.62 338.03"/><path class="cls-31" d="M177.1,609.23a4.56,4.56,0,0,0,1.59,3.84l.72.4,0,0c1.43.6,3.42.33,5.61-.95a17,17,0,0,0,5.16-4.9h0A14.18,14.18,0,0,0,193,600a4.53,4.53,0,0,0-1.66-3.91l-.06,0-.34-.19,0,0c-1.45-.75-3.54-.53-5.86.82a16.79,16.79,0,0,0-5.22,5l0,.07a14,14,0,0,0-2.69,7.51" transform="translate(-77.07 -62.67)"/><path class="cls-32" d="M179.8,601.72l.51.2.05,0,4.32,2.5,5.54,3.21,68.12,39.46,54.06,31.34h0l.79.45,10.5-6.31-.27-.15L191.34,596.09l-.06,0-.34-.19,0,0c-1.45-.75-3.54-.53-5.86.82a16.79,16.79,0,0,0-5.22,5l0,.07" transform="translate(-77.07 -62.67)"/><path class="cls-33" d="M189,595.42a4.06,4.06,0,0,1,1.87.42l0,0,.34.19.06,0,132,76.32a4.14,4.14,0,0,0-1.69-.34,8.07,8.07,0,0,0-4,1.24,16.84,16.84,0,0,0-5.3,5.14l-54.06-31.34-68.11-39.46-5.55-3.2-4.32-2.5-.05,0-.47-.27a16.79,16.79,0,0,1,5.22-5,8.1,8.1,0,0,1,4-1.25" transform="translate(-77.07 -62.67)"/><path class="cls-32" d="M177.1,609.23a4.56,4.56,0,0,0,1.59,3.84l.72.4,0,0,132.32,76.39.12.08v0l.5-11.48h0l-54-31.35-68.11-39.46-5.55-3.2-4.37-2.52-.47-.27,0,.07a14,14,0,0,0-2.69,7.51" transform="translate(-77.07 -62.67)"/><path class="cls-32" d="M332,688.31l-1.53-3.14-.07-.14-5.26-10.76-.19-.39h0c-1.21-2.12-4-2.47-7.27-.57a16.85,16.85,0,0,0-5.31,5.14h0a13.91,13.91,0,0,0-2.6,7.36c0,2.94,1.61,4.56,4,4.54h0l13-.27h.44L331,690a1.19,1.19,0,0,0,.83-.36l.14-.18.1-.18a1.17,1.17,0,0,0,0-1" transform="translate(-77.07 -62.67)"/><path class="cls-34" d="M313.56,690.35h0m-1.73-.43a3.77,3.77,0,0,0,1.14.37,3.83,3.83,0,0,1-1.08-.35l-.06,0m-1.11-8.37a11.45,11.45,0,0,0-.93,4.26,5.29,5.29,0,0,0,.76,2.94,5.32,5.32,0,0,1-.76-2.94h0a7,7,0,0,1,0-.83v0c0-.24.06-.48.1-.73a12.37,12.37,0,0,1,.55-2.05l.08-.19c0-.13.1-.27.15-.4m1.66-3.1h0a17.71,17.71,0,0,0-1.52,2.75v0q.2-.46.44-.91c.15-.29.32-.6.48-.89l.06-.08q.2-.36.44-.71l.09-.14h0m9.28-6.39a8.07,8.07,0,0,0-4,1.24,16.85,16.85,0,0,0-5.31,5.14h0l.79.45,9.6,5.4,3.8,2.13.35.2,2.84,1.59,2.19,1.24h0l.1-.18a1.18,1.18,0,0,0,.09-.45,1.19,1.19,0,0,0-.12-.52l-1.53-3.14-.07-.14-5.26-10.76-.19-.39h0a3.61,3.61,0,0,0-3.3-1.81" transform="translate(-77.07 -62.67)"/><path class="cls-32" d="M332,689.46l-.14.18a1.13,1.13,0,0,1-.83.37l-1,0-3,.07h-.17l-13,.27h0a4.05,4.05,0,0,1-1.88-.41l-.12-.06c-1.23-.68-2-2.07-2-4.08a7,7,0,0,1,0-.83v0c0-.24.06-.48.1-.73a12.37,12.37,0,0,1,.55-2.05l.08-.19c.08-.24.18-.48.28-.72l0,0q.2-.46.44-.91c.15-.29.32-.6.48-.89l.06-.08q.2-.36.44-.71l.09-.14h0l.79.45,9.6,5.4,3.8,2.13.35.2,2.84,1.59,2.19,1.24" transform="translate(-77.07 -62.67)"/><path class="cls-35" d="M312.39,678.45h0l.79.45,9.6,5.4,3.8,2.13.35.2,2.84,1.59,2.19,1.24h0l-.14.18a1.13,1.13,0,0,1-.83.37l-1,0-3,.07h-.17l-13,.27h-.08a4,4,0,0,1-1.81-.41l-.12-.06c-1.23-.68-2-2.07-2-4.08a7,7,0,0,1,0-.83v0c0-.24.06-.48.1-.73a12.37,12.37,0,0,1,.55-2.05l.08-.19c.08-.24.18-.48.28-.72l0,0q.2-.46.44-.91c.15-.29.32-.6.48-.89l.06-.08q.2-.36.44-.71l.09-.14h0" transform="translate(-77.07 -62.67)"/><path class="cls-36" d="M332.06,689.28l-.09.18h0l-.14.18a1.14,1.14,0,0,1-.83.37l-1,0-3,.07h0v-3.53l3.56-1.4,1.53,3.14A1.17,1.17,0,0,1,332.06,689.28Z" transform="translate(-77.07 -62.67)"/><path class="cls-36" d="M330.62,685.88a5.06,5.06,0,0,1-2.43,3.84c-1.34.78-2.43.33-2.43-1a5.06,5.06,0,0,1,2.43-3.84C329.54,684.08,330.62,684.54,330.62,685.88Z" transform="translate(-77.07 -62.67)"/><polyline class="cls-37" points="475.92 522.48 475.92 500.93 457.25 511.7 457.25 533.26 475.92 522.48"/><polyline class="cls-38" points="475.92 500.93 475.92 522.48 457.25 533.26 457.25 511.7 475.92 500.93"/><polyline class="cls-37" points="475.92 500.93 457.25 490.15 438.58 500.93 457.25 511.7 475.92 500.93"/><polyline class="cls-39" points="457.25 490.15 475.92 500.93 457.25 511.7 438.58 500.93 457.25 490.15"/><polygon class="cls-40" points="457.25 511.7 438.58 500.93 438.58 522.48 457.25 533.26 457.25 511.7"/><polygon class="cls-37" points="457.25 511.7 438.58 500.93 438.58 522.48 457.25 533.26 457.25 511.7"/><polygon class="cls-41" points="538 314.07 538 292.51 519.33 303.29 519.33 324.85 538 314.07"/><polygon class="cls-42" points="538 292.51 519.33 281.73 500.66 292.51 519.33 303.29 538 292.51"/><polygon class="cls-40" points="519.33 303.29 500.66 292.51 500.66 314.07 519.33 324.85 519.33 303.29"/><polygon class="cls-43" points="519.33 303.29 500.66 292.51 500.66 314.07 519.33 324.85 519.33 303.29"/><polyline class="cls-9" points="550.5 357.32 550.5 335.76 531.83 346.54 531.83 368.1 550.5 357.32"/><polyline class="cls-44" points="550.5 335.76 550.5 357.32 531.83 368.1 531.83 346.54 550.5 335.76"/><polyline class="cls-9" points="550.5 335.76 531.83 324.98 513.16 335.76 531.83 346.54 550.5 335.76"/><polyline class="cls-18" points="531.83 324.98 550.5 335.76 531.83 346.54 513.16 335.76 531.83 324.98"/><polygon class="cls-9" points="531.83 346.54 513.16 335.76 513.16 357.32 531.83 368.1 531.83 346.54"/><polyline class="cls-15" points="581.53 238.55 631.21 267.35 631.18 324.84 581.53 296.06 581.53 238.55"/><polyline class="cls-45" points="581.53 238.55 631.21 267.35 631.18 324.84 581.53 296.06 581.53 238.55"/><path class="cls-28" d="M668.74,346.46c0-3.28,2.66-4.41,5.95-2.52s5.95,6.09,5.95,9.37-2.66,4.41-5.95,2.52S668.74,349.75,668.74,346.46Z" transform="translate(-77.07 -62.67)"/><path class="cls-28" d="M668.74,323.25c0-3.29,2.66-4.42,5.95-2.52s5.95,6.09,5.95,9.37-2.66,4.42-5.95,2.52S668.74,326.53,668.74,323.25Z" transform="translate(-77.07 -62.67)"/><path class="cls-28" d="M688,345.92c0-3.28,2.66-4.41,5.95-2.52s5.95,6.09,5.95,9.37-2.66,4.41-5.95,2.52S688,349.2,688,345.92Z" transform="translate(-77.07 -62.67)"/><polygon class="cls-28" points="615.6 284.59 617.48 288.77 598.84 289.3 596.96 285.12 615.6 284.59"/><polygon class="cls-28" points="598.84 263.33 617.48 285.32 615.6 287.34 596.96 265.35 598.84 263.33"/><polygon class="cls-28" points="550.52 579.9 500.68 551.19 450.96 579.9 500.73 608.63 550.52 579.9"/><polygon class="cls-46" points="550.52 579.9 550.52 587.08 500.71 615.85 450.96 587.08 450.96 579.9 500.73 608.63 550.52 579.9"/><polygon class="cls-47" points="500.73 608.63 500.71 615.85 450.96 587.08 450.96 579.9 500.73 608.63"/><polyline class="cls-15" points="631.18 324.84 637.58 321.1 637.58 263.85 631.21 267.35 631.18 324.84"/><polyline class="cls-3" points="273.88 524.1 273.86 531.21 273.88 524.1 273.88 524.1"/><g class="cls-48"><polyline class="cls-49" points="205.43 484.57 273.88 524.1 273.86 531.21 270.53 533.18 202.09 493.69 202.09 486.5 205.43 484.57"/><polyline class="cls-50" points="273.88 524.1 273.86 531.21 270.53 533.18 270.53 526.02 273.88 524.1"/><polyline class="cls-50" points="205.43 484.57 205.43 484.57 273.88 524.1 273.88 524.1 270.53 526.02 202.09 486.5 205.43 484.57"/></g><g class="cls-48"><polyline class="cls-49" points="217.77 477.49 286.21 517.01 286.2 524.12 282.86 526.09 214.42 486.61 214.42 479.42 217.77 477.49"/><polyline class="cls-50" points="286.21 517.01 286.2 524.12 282.86 526.09 282.86 518.94 286.21 517.01"/><polyline class="cls-50" points="217.77 477.49 286.21 517.01 282.86 518.94 214.42 479.42 217.77 477.49"/></g><polyline class="cls-2" points="189.64 493.76 189.64 493.76 189.64 500.95 258.08 540.43 189.64 500.95 189.64 493.76"/><g class="cls-48"><polyline class="cls-49" points="192.98 491.83 261.43 531.35 261.41 538.46 258.08 540.43 189.64 500.95 189.64 493.76 192.98 491.83"/><polyline class="cls-50" points="261.43 531.35 261.41 538.46 258.08 540.43 258.08 533.27 261.43 531.35"/><polyline class="cls-50" points="192.98 491.83 192.98 491.83 261.43 531.35 258.08 533.27 189.64 493.76 192.98 491.83"/></g><path class="cls-51" d="M177.07,609.23a4.57,4.57,0,0,0,1.54,3.8l0,0,.75.43,0,0,8.33,4.81a4.55,4.55,0,0,1-1.57-3.82,14,14,0,0,1,2.7-7.51l0-.07a16.81,16.81,0,0,1,5.22-5c2.31-1.35,4.39-1.57,5.84-.83l-9.35-5.36c-1.43-.61-3.41-.34-5.59.93a16.71,16.71,0,0,0-5.22,5l0,.07A14.05,14.05,0,0,0,177.07,609.23Z" transform="translate(-77.07 -62.67)"/><polygon class="cls-42" points="110.69 555.66 110.66 555.64 111.15 555.92 110.69 555.66"/><polygon class="cls-42" points="122.94 538.45 123.27 538.64 123.33 538.67 122.89 538.42 122.91 538.43 122.94 538.45"/><polygon class="cls-42" points="111.44 556.09 111.15 555.92 111.41 556.07 111.44 556.09"/><polygon class="cls-51" points="115.48 534.13 114.33 533.48 114.46 533.59 115.24 534.03 115.48 534.13"/><polygon class="cls-51" points="103.23 551.33 101.98 550.61 103.25 551.35 103.23 551.33"/><polygon class="cls-42" points="103.28 551.37 103.25 551.35 103.75 551.63 103.28 551.37"/><polygon class="cls-42" points="115.53 534.16 115.86 534.35 115.92 534.38 115.48 534.13 115.5 534.14 115.53 534.16"/><polygon class="cls-42" points="104.03 551.8 103.75 551.63 104 551.78 104.03 551.8"/><polyline class="cls-9" points="401.75 565.26 351.9 536.56 302.18 565.26 351.96 594 401.75 565.26"/><polyline class="cls-18" points="351.9 536.56 401.75 565.26 351.96 594 302.18 565.26 351.9 536.56"/><polyline class="cls-9" points="401.75 565.26 401.75 572.45 351.93 601.21 302.18 572.45 302.18 565.26 351.96 594 401.75 565.26"/><polygon class="cls-28" points="338.1 558.02 341.76 565.49 333.08 572.43 346.63 571.61 353.86 577.82 358.58 569.84 371.73 566.74 361.08 562.64 361.98 554.5 350.69 559.95 338.1 558.02"/><polyline class="cls-44" points="401.75 565.26 401.75 572.45 351.93 601.21 351.96 594 401.75 565.26"/><polyline class="cls-52" points="606.8 481.16 556.96 452.45 507.24 481.16 557.01 509.89 606.8 481.16"/><polyline class="cls-53" points="556.96 452.45 606.8 481.16 557.01 509.89 507.24 481.16 556.96 452.45"/><polyline class="cls-54" points="606.8 481.16 606.8 488.35 556.99 517.11 507.24 488.35 507.24 481.16 557.01 509.89 606.8 481.16"/><path class="cls-28" d="M636.1,531.77l-20.89,12.06a2,2,0,0,0,0,3.46l14.67,8.47a2,2,0,0,0,2,0l11.18-6.44,9.74-5.61a2,2,0,0,0,0-3.46l-14.69-8.48A2,2,0,0,0,636.1,531.77Z" transform="translate(-77.07 -62.67)"/><polygon class="cls-28" points="566.25 493.67 560.03 490.08 565.98 486.66 566.25 493.67"/><polyline class="cls-55" points="606.8 481.16 606.8 488.35 556.99 517.11 557.01 509.89 606.8 481.16"/><polyline class="cls-56" points="370.64 439.48 376.86 443.07 289.74 493.37 376.86 443.07 370.63 439.48 370.64 439.48"/><polyline class="cls-57" points="370.63 439.48 376.86 443.07 289.74 493.37 289.74 486.18 370.63 439.48"/><polyline class="cls-57" points="376.86 435.88 376.86 443.07 370.64 439.48 376.86 435.88"/><polyline class="cls-58" points="361.66 269.44 355.49 265.8 349.24 269.44 367.63 352.27 373.84 355.88 355.41 273.07 361.66 269.44"/><polyline class="cls-59" points="364.35 289.37 364.35 296.55 327 318.11 327.04 310.91 364.35 289.37"/><polyline class="cls-58" points="364.35 289.37 358.19 285.81 320.79 307.33 320.79 314.52 327 318.11 327.04 310.91 364.35 289.37"/><polyline class="cls-60" points="353.46 288.53 353.46 288.54 320.89 307.27 353.46 288.53"/><polyline class="cls-61" points="353.46 288.53 353.46 288.54 320.89 307.27 353.46 288.53"/><polyline class="cls-62" points="359.64 292.09 359.64 292.09 327.04 310.91 359.64 292.09"/><polyline class="cls-63" points="353.46 288.54 359.64 292.09 327.04 310.91 327 318.11 322.75 315.65 320.89 307.27 353.46 288.54"/><polyline class="cls-59" points="370.02 314.72 370.02 321.91 332.67 343.46 332.71 336.26 370.02 314.72"/><polyline class="cls-58" points="370.02 314.72 363.86 311.17 326.45 332.69 326.45 339.87 332.67 343.46 332.71 336.26 370.02 314.72"/><polyline class="cls-60" points="359.11 313.89 359.11 313.9 326.53 332.64 326.53 332.64 359.11 313.89"/><polyline class="cls-28" points="359.11 313.89 359.11 313.9 326.53 332.64 326.53 332.64 359.11 313.89"/><polyline class="cls-63" points="359.12 313.89 359.12 313.89 359.11 313.9 359.11 313.89 359.12 313.89"/><polyline class="cls-63" points="359.12 313.89 365.28 317.43 332.71 336.26 332.67 343.46 328.39 340.99 326.53 332.64 359.11 313.9 359.12 313.89"/><polyline class="cls-58" points="324.33 291.03 318.16 287.39 311.91 291.03 330.31 373.86 336.51 377.47 318.08 294.66 324.33 291.03"/><polyline class="cls-59" points="380.07 352.26 373.84 355.88 355.41 273.07 361.66 269.44 380.07 352.26"/><polyline class="cls-63" points="361.39 269.28 361.65 269.44 361.39 269.59 361.39 269.28"/><polyline class="cls-63" points="318.16 287.39 323.44 290.5 324.33 291.03 318.08 294.66 311.91 291.03 318.16 287.39"/><polyline class="cls-58" points="372.95 320.19 366.78 316.56 360.53 320.19 393.05 466.63 399.25 470.25 366.7 323.82 372.95 320.19"/><polyline class="cls-59" points="375.65 340.12 375.65 347.31 338.3 368.87 338.33 361.66 375.65 340.12"/><polyline class="cls-59" points="382.25 393.76 385.31 399.19 347.96 420.75 348 413.54 382.25 393.76"/><polyline class="cls-59" points="387.91 419.26 391.53 424.39 354.18 445.95 354.22 438.74 387.91 419.26"/><polyline class="cls-59" points="376.57 368.19 377.96 374.6 343.97 394.22 344 387.01 376.57 368.19"/><polyline class="cls-59" points="393.58 444.68 397.77 449.48 360.42 471.03 360.45 463.83 393.58 444.68"/><polyline class="cls-58" points="393.58 444.68 387.46 441.1 354.2 460.25 354.2 467.44 360.42 471.03 360.45 463.83 393.58 444.68"/><polyline class="cls-58" points="375.65 340.12 369.49 336.57 332.08 358.08 332.08 365.27 338.3 368.87 338.33 361.66 375.65 340.12"/><polyline class="cls-58" points="376.57 368.19 370.41 364.64 337.75 383.44 337.75 390.63 343.97 394.22 344 387.01 376.57 368.19"/><polyline class="cls-58" points="382.25 393.76 376.06 390.2 341.75 409.97 341.75 417.15 347.96 420.75 348 413.54 382.25 393.76"/><polyline class="cls-58" points="387.91 419.26 381.75 415.72 347.96 435.17 347.96 442.35 354.18 445.95 354.22 438.74 387.91 419.26"/><polyline class="cls-63" points="364.77 339.28 370.96 342.83 338.33 361.66 338.3 368.87 332.08 365.27 332.08 358.08 364.77 339.28"/><polyline class="cls-63" points="370.41 364.64 376.57 368.19 344 387.01 343.97 394.22 337.75 390.63 337.75 383.44 339.62 382.36 370.41 364.64"/><polyline class="cls-63" points="376.06 390.2 376.08 390.21 382.25 393.76 348 413.54 347.96 420.75 341.75 417.15 341.75 411.89 341.75 409.97 376.06 390.2"/><polyline class="cls-63" points="381.75 415.72 387.91 419.26 354.22 438.74 354.18 445.95 347.96 442.35 347.96 435.17 361.81 427.19 381.75 415.72"/><polyline class="cls-63" points="387.46 441.1 393.58 444.68 360.45 463.83 360.42 471.03 354.2 467.44 354.2 460.25 387.46 441.1"/><polygon class="cls-58" points="335.62 341.78 329.45 338.15 323.2 341.78 355.72 488.23 361.92 491.84 329.38 345.41 335.62 341.78"/><polygon class="cls-59" points="405.48 466.63 399.22 470.25 363.03 307.26 372.95 320.19 405.48 466.63"/><polygon class="cls-59" points="368.92 315.33 368.92 322.52 331.57 344.07 331.6 336.87 368.92 315.33"/><polygon class="cls-59" points="368.15 488.22 361.92 491.84 323.75 319.92 335.62 341.78 368.15 488.22"/><polygon class="cls-58" points="366.21 340.09 364.77 339.28 364.48 338.08 369.49 336.41 369.83 337.94 366.21 340.09"/><polygon class="cls-59" points="342.74 373.85 336.51 377.47 318.08 294.66 324.33 291.03 342.74 373.85"/><polyline class="cls-64" points="363.61 235.69 362.62 235.09 356.42 231.48 355.18 232.2 348.91 235.82 355.18 239.38 361.34 235.82 361.34 235.82 361.63 235.66 363.26 236.41 363.61 235.69"/><path class="cls-64" d="M427,297.9l-1,.6h0l1-.6m6.48-3.74-1.24.72-4.41,2.55h0l4.41-2.54V302l6.15-3.55h0l.29-.17,1.63.76.35-.72-1-.6-6.2-3.61" transform="translate(-77.07 -62.67)"/><polyline class="cls-65" points="342.73 246.57 342.73 289.68 361.4 278.92 361.34 235.82 342.73 246.57"/><polyline class="cls-65" points="336.57 242.95 336.57 286.06 355.24 275.3 355.18 232.2 336.57 242.95"/><polygon class="cls-66" points="342.73 289.68 342.73 332.79 352.34 327.27 352.34 284.15 342.73 289.68"/><polygon class="cls-66" points="352.34 284.15 352.34 327.27 361.4 321.99 361.4 278.87 352.34 284.15"/><polyline class="cls-64" points="336.57 242.95 336.57 286.06 342.73 282.5 342.73 246.57 336.57 242.95"/><polygon class="cls-64" points="342.77 282.51 342.73 282.53 336.57 286.06 342.73 289.68 342.77 282.51"/><polygon class="cls-67" points="354.05 326.28 350.63 328.26 350.63 285.15 354.05 283.16 354.05 326.28"/><path class="cls-65" d="M419.81,309.24l-11.32,9.21a2,2,0,0,1-2.26.18L395,312.11v4.15l11.24,6.51a2,2,0,0,0,2.26-.17l11.32-9.11v-4.25" transform="translate(-77.07 -62.67)"/><polyline class="cls-64" points="348.91 235.82 336.57 242.95 342.73 246.57 355.18 239.38 348.91 235.82"/><path class="cls-64" d="M401.27,308.56,395,312.11l11.24,6.51a2,2,0,0,0,2.26-.18l11.32-9.21-6.16-3.62L408.53,311a2,2,0,0,1-2.44.35l-4.81-2.77" transform="translate(-77.07 -62.67)"/><polyline class="cls-64" points="350.77 234.74 350.77 234.75 348.91 235.82 348.91 235.82 349.94 235.22 350.77 234.74"/><polyline class="cls-68" points="350.77 234.75 355.18 239.38 348.91 235.82 350.77 234.75"/><polyline class="cls-60" points="350.77 234.75 355.18 239.38 348.91 235.82 350.77 234.75"/><polyline class="cls-64" points="348.91 235.82 348.91 235.82 355.18 239.38 342.73 246.57 342.73 246.57 342.73 246.57 336.57 242.95 348.91 235.82"/><path class="cls-64" d="M413.64,305.62h0l6.16,3.62-11.32,9.21a2,2,0,0,1-2.26.18L395,312.11l6.29-3.55,4.81,2.77a2,2,0,0,0,2.44-.35l5.11-5.35" transform="translate(-77.07 -62.67)"/><polygon class="cls-69" points="320.9 244.06 324.12 245.87 317.88 249.47 314.61 247.61 320.9 244.06"/><polygon class="cls-69" points="317.88 249.47 314.61 247.61 314.61 251.77 317.88 253.62 317.88 249.47"/><polygon class="cls-69" points="361.4 278.92 364.59 277.13 364.59 273.91 361.4 275.67 361.4 278.92"/><polygon class="cls-67" points="338.17 324.79 331.92 321.23 338.17 317.54 338.17 324.79"/><path class="cls-67" d="M412.24,383.89l7.57,4.39v7.18l-12.41-7.2v-1.58A3.23,3.23,0,0,1,412.24,383.89Z" transform="translate(-77.07 -62.67)"/><polygon class="cls-67" points="336.57 286.06 336.57 329.24 342.73 332.79 342.73 289.68 336.57 286.06"/><path class="cls-70" d="M414.86,286.84l9.95-5.69,7.62,4.22a4,4,0,0,1,2.06,3.47l.09,11.83-10.3,6-5.91-3.4a7,7,0,0,1-3.51-6.07Z" transform="translate(-77.07 -62.67)"/><path class="cls-69" d="M414.86,289.27l5.26,3.07a4,4,0,0,1,2,3.46v9.64l-3.75-2.16a7,7,0,0,1-3.5-6.06Z" transform="translate(-77.07 -62.67)"/><path class="cls-70" d="M422.87,280l-9.93,5.73v.17a3.89,3.89,0,0,0,1.92,3.36v-2.42l9.95-5.69Z" transform="translate(-77.07 -62.67)"/><path class="cls-65" d="M441.66,336.62l-3.25,1.82V298.49l.24-.14a2,2,0,0,1,3,1.73Z" transform="translate(-77.07 -62.67)"/><polyline class="cls-15" points="637.58 263.85 587.58 235.09 581.53 238.55 631.21 267.35 637.58 263.85"/><polyline class="cls-71" points="587.58 235.09 637.58 263.85 631.21 267.35 581.53 238.55 587.58 235.09"/><polygon class="cls-9" points="482.08 317.7 463.41 306.93 444.75 317.7 463.41 328.48 482.08 317.7"/><polygon class="cls-28" points="482.08 317.7 463.41 306.93 444.75 317.7 463.41 328.48 482.08 317.7"/><polygon class="cls-47" points="463.41 328.48 444.75 317.7 444.75 339.26 463.41 350.04 463.41 328.48"/><polygon class="cls-46" points="482.08 339.26 482.08 317.7 463.41 328.48 463.41 350.04 482.08 339.26"/><polyline class="cls-72" points="208.25 547.48 208.25 525.93 189.58 536.71 189.58 558.26 208.25 547.48"/><polyline class="cls-73" points="208.25 525.93 208.25 547.48 189.58 558.26 189.58 536.71 208.25 525.93"/><polyline class="cls-74" points="208.25 525.93 189.58 515.15 170.91 525.93 189.58 536.71 208.25 525.93"/><polyline class="cls-75" points="189.58 515.15 208.25 525.93 189.58 536.71 170.91 525.93 189.58 515.15"/><polygon class="cls-40" points="189.58 536.71 170.91 525.93 170.91 547.48 189.58 558.26 189.58 536.71"/><polygon class="cls-72" points="189.58 536.71 170.91 525.93 170.91 547.48 189.58 558.26 189.58 536.71"/><polygon class="cls-72" points="189.58 536.71 170.91 525.93 170.91 547.48 189.58 558.26 189.58 536.71"/><polyline class="cls-76" points="102.56 601.48 52.72 572.77 3 601.48 52.78 630.21 102.56 601.48"/><polyline class="cls-77" points="102.56 601.48 102.56 608.67 52.75 637.43 3 608.67 3 601.48 52.78 630.21 102.56 601.48"/><polyline class="cls-20" points="519.25 385.76 469.4 357.06 419.68 385.76 469.46 414.5 519.25 385.76"/><polyline class="cls-78" points="469.4 357.06 519.25 385.76 469.46 414.5 419.68 385.76 469.4 357.06"/><polyline class="cls-20" points="519.25 385.76 519.25 392.95 469.43 421.71 419.68 392.95 419.68 385.76 469.46 414.5 519.25 385.76"/><path class="cls-28" d="M548.31,447.54l17.36,2.76-.26-.19-21.88-13.56-.3-.16,3.82,10.37A1.54,1.54,0,0,0,548.31,447.54Z" transform="translate(-77.07 -62.67)"/><path class="cls-28" d="M540.22,436.83l-11.4,6.6c-1.07.62-1,1.73.22,2.46L550.13,459a4.42,4.42,0,0,0,4.1.22l11.4-6.6a1.45,1.45,0,0,0,.53-.47l-17.51-2.67a6.53,6.53,0,0,1-2.42-.85,3.1,3.1,0,0,1-1.34-1.48L541,436.53A2.6,2.6,0,0,0,540.22,436.83Z" transform="translate(-77.07 -62.67)"/><polyline class="cls-79" points="419.68 385.76 419.68 385.76 469.46 414.5 469.43 421.71 419.68 392.95 419.68 385.76"/><polyline class="cls-80" points="102.6 605.24 102.6 608.67 52.78 637.43 52.78 637.41 102.56 608.67 102.56 605.26 102.6 605.24"/><polyline class="cls-81" points="102.56 605.26 102.56 608.67 52.78 637.41 52.81 630.28 56 632.13 56.03 632.11 56.03 632.13 102.56 605.26"/><polyline class="cls-52" points="105.81 596.18 55.97 567.47 6.25 596.18 56.03 624.91 105.81 596.18"/><polyline class="cls-82" points="99.49 592.54 105.81 596.18 56.03 624.91 6.25 596.18 6.31 596.15 49.75 621.26 99.49 592.54"/><polyline class="cls-54" points="105.81 596.18 105.81 603.37 56 632.13 6.25 603.37 6.25 596.18 56.03 624.91 105.81 596.18"/><polyline class="cls-83" points="99.56 585.31 49.72 556.61 0 585.31 49.78 614.05 99.56 585.31"/><polyline class="cls-84" points="49.72 556.61 99.56 585.31 49.78 614.05 0 585.31 49.72 556.61"/><polyline class="cls-40" points="99.56 585.31 99.56 592.5 49.75 621.26 0 592.5 0 585.31 49.78 614.05 99.56 585.31"/><path class="cls-28" d="M108.17,651.26c.14-1.6,1.36-3.11,3.21-4.25a15.08,15.08,0,0,1,7-2.08l2.85-.15.15-1.71c.14-1.6,1.36-3.11,3.21-4.25a15.08,15.08,0,0,1,7-2.08c5.34-.27,9.44,2.1,9.15,5.3l-.16,1.73-.13,1.46-.19,2.12-.73,8.05-13.39.7-3.54.18-2.42.13-2.85.15C112,656.85,107.87,654.48,108.17,651.26Z" transform="translate(-77.07 -62.67)"/><polyline class="cls-85" points="99.56 585.31 99.56 592.5 49.75 621.26 49.78 614.05 99.56 585.31"/><polyline class="cls-80" points="105.85 596.18 105.85 603.37 102.6 605.24 102.6 605.22 105.81 603.37 105.81 596.2 105.85 596.18"/><polyline class="cls-86" points="102.6 605.22 102.6 605.24 102.56 605.26 102.56 605.24 102.6 605.22"/><polyline class="cls-87" points="102.56 605.24 102.56 605.26 56.03 632.13 56.03 632.11 102.56 605.24"/><polyline class="cls-28" points="102.56 605.24 102.56 605.26 56.03 632.13 56.03 632.11 102.56 605.24"/><polyline class="cls-88" points="105.81 596.2 105.81 603.37 102.6 605.22 102.56 605.24 56.03 632.11 56.06 624.91 105.81 596.2"/><polygon class="cls-59" points="336.51 377.47 342.74 373.85 324.33 291.03 318.08 294.66 336.51 377.47"/></g></g></svg>