<?xml version="1.0" encoding="iso-8859-1"?>
<!-- Generator: Adobe Illustrator 19.0.0, SVG Export Plug-In . SVG Version: 6.00 Build 0)  -->
<svg xmlns="http://www.w3.org/2000/svg" xmlns:xlink="http://www.w3.org/1999/xlink" version="1.1" id="Capa_1" x="0px" y="0px" viewBox="0 0 512 512" style="enable-background:new 0 0 512 512;" xml:space="preserve">
<path style="fill:#3E575F;" d="M332,437v-45H226v105l151-15C352.25,482,332,461.75,332,437z"/>
<path style="fill:#5C6F74;" d="M180,392v45c0,24.75-20.25,45-45,45l121,15V392H180z"/>
<polygon style="fill:#CED0CE;" points="512,347 512,32 256,32 186,377 "/>
<polygon style="fill:#D2ECFD;" points="256,32 0,32 0,347 256,377 "/>
<polygon style="fill:#EAF7FF;" points="482,317 482,62 256,62 186,189.5 256,317 "/>
<rect x="30" y="62" style="fill:#FFFFFF;" width="226" height="255"/>
<polygon style="fill:#7ACBFC;" points="452,0 256,0 196,188.5 256,377 452,377 "/>
<rect x="60" style="fill:#A7DCFC;" width="196" height="377"/>
<rect x="120" y="68.5" style="fill:#CD6EFF;" width="90" height="90"/>
<rect x="120" y="188.5" style="fill:#5C6F74;" width="90" height="30"/>
<g>
	<rect x="256" y="188.5" style="fill:#2B5C74;" width="136" height="30"/>
	<rect x="256" y="248.5" style="fill:#2B5C74;" width="136" height="30"/>
	<rect x="256" y="128.5" style="fill:#2B5C74;" width="136" height="30"/>
	<rect x="256" y="68.5" style="fill:#2B5C74;" width="136" height="30"/>
</g>
<polygon style="fill:#7A888A;" points="512,347 256,347 216,384.5 256,422 512,422 "/>
<rect y="347" style="fill:#98A09F;" width="256" height="75"/>
<polygon style="fill:#5C6F74;" points="256,482 226,497 256,512 437,512 437,482 "/>
<rect x="75" y="482" style="fill:#7A888A;" width="181" height="30"/>
<g>
</g>
<g>
</g>
<g>
</g>
<g>
</g>
<g>
</g>
<g>
</g>
<g>
</g>
<g>
</g>
<g>
</g>
<g>
</g>
<g>
</g>
<g>
</g>
<g>
</g>
<g>
</g>
<g>
</g>
</svg>
