<?xml version="1.0" encoding="iso-8859-1"?>
<!-- Generator: Adobe Illustrator 19.0.0, SVG Export Plug-In . SVG Version: 6.00 Build 0)  -->
<svg xmlns="http://www.w3.org/2000/svg" xmlns:xlink="http://www.w3.org/1999/xlink" version="1.1" id="Capa_1" x="0px" y="0px" viewBox="0 0 512 512" style="enable-background:new 0 0 512 512;" xml:space="preserve">
<polygon style="fill:#5C6F74;" points="139.516,45 256,482 512,482 512,135 "/>
<polygon style="fill:#7A888A;" points="0,135 0,482 256,482 256,45 "/>
<polygon style="fill:#EAF7FF;" points="199.516,105 256,452 482,452 482,105 "/>
<rect x="30" y="105" style="fill:#FFFFFF;" width="226" height="347"/>
<polygon style="fill:#F85B3F;" points="512,135 512,30 407,30 377,82.5 407,135 "/>
<polygon style="fill:#3E575F;" points="407,135 407,30 256,30 226,82.5 256,135 "/>
<rect y="30" style="fill:#5C6F74;" width="256" height="105"/>
<path style="fill:#7A888A;" d="M256,217.5l-21.509,76l21.509,76c41.906,0,76-34.094,76-76S297.906,217.5,256,217.5z"/>
<path style="fill:#B6B8B5;" d="M180,293.5c0,41.906,34.093,76,76,76v-152C214.093,217.5,180,251.594,180,293.5z"/>
<rect x="241" y="172.5" style="fill:#7A888A;" width="30" height="45"/>
<g>
	<rect x="241" y="369.5" style="fill:#3E575F;" width="30" height="45"/>
	<rect x="332" y="278.5" style="fill:#3E575F;" width="45" height="30"/>
</g>
<g>
	<rect x="135" y="278.5" style="fill:#7A888A;" width="45" height="30"/>
	
		<rect x="163.844" y="208.843" transform="matrix(-0.7071 -0.7071 0.7071 -0.7071 159.8282 513.8878)" style="fill:#7A888A;" width="45" height="30"/>
</g>
<g>
	
		<rect x="303.144" y="348.141" transform="matrix(-0.7071 -0.7071 0.7071 -0.7071 299.1296 850.1844)" style="fill:#3E575F;" width="45" height="30"/>
	
		<rect x="310.653" y="201.352" transform="matrix(-0.7071 -0.7071 0.7071 -0.7071 397.6372 612.4096)" style="fill:#3E575F;" width="30" height="45"/>
</g>
<rect x="171.355" y="340.647" transform="matrix(-0.7071 -0.7071 0.7071 -0.7071 61.3441 751.7025)" style="fill:#7A888A;" width="30" height="45"/>
<path style="fill:#3E575F;" d="M256,384.5l-20-15l20-15c33.636,0,61-27.364,61-61s-27.364-61-61-61l-20-15l20-15  c50.178,0,91,40.822,91,91S306.178,384.5,256,384.5z"/>
<path style="fill:#7A888A;" d="M256,384.5c-50.178,0-91-40.822-91-91s40.822-91,91-91v30c-33.636,0-61,27.364-61,61s27.364,61,61,61  V384.5z"/>
<path style="fill:#FFFFFF;" d="M256,308.5c-8.271,0-15-6.729-15-15s6.729-15,15-15s15,6.729,15,15S264.271,308.5,256,308.5z"/>
<g>
</g>
<g>
</g>
<g>
</g>
<g>
</g>
<g>
</g>
<g>
</g>
<g>
</g>
<g>
</g>
<g>
</g>
<g>
</g>
<g>
</g>
<g>
</g>
<g>
</g>
<g>
</g>
<g>
</g>
</svg>
