<?xml version="1.0" encoding="iso-8859-1"?>
<!-- Generator: Adobe Illustrator 19.0.0, SVG Export Plug-In . SVG Version: 6.00 Build 0)  -->
<svg xmlns="http://www.w3.org/2000/svg" xmlns:xlink="http://www.w3.org/1999/xlink" version="1.1" id="Capa_1" x="0px" y="0px" viewBox="0 0 512 512" style="enable-background:new 0 0 512 512;" xml:space="preserve">
<g>
	<polygon style="fill:#4BB4F5;" points="30,150 0,150 0,0 150,0 150,30 30,30  "/>
	<polygon style="fill:#4BB4F5;" points="150,512 0,512 0,362 30,362 30,482 150,482  "/>
</g>
<g>
	<polygon style="fill:#4097CA;" points="512,512 362,512 362,482 482,482 482,362 512,362  "/>
	<polygon style="fill:#4097CA;" points="512,150 482,150 482,30 362,30 362,0 512,0  "/>
</g>
<g>
	<rect x="60" y="421" style="fill:#367A9F;" width="181" height="30"/>
	<rect x="60" y="361" style="fill:#367A9F;" width="181" height="30"/>
	<rect x="60" y="301" style="fill:#367A9F;" width="181" height="30"/>
</g>
<g>
	<rect x="271" y="241" style="fill:#2B5C74;" width="181" height="30"/>
	<rect x="271" y="181" style="fill:#2B5C74;" width="181" height="30"/>
	<rect x="271" y="121" style="fill:#2B5C74;" width="181" height="30"/>
</g>
<polygon style="fill:#203F49;" points="452,91 256,91 236,76 256,61 452,61 "/>
<rect x="271" y="301" style="fill:#A5B849;" width="181" height="150"/>
<rect x="60" y="119" style="fill:#FABE5C;" width="181" height="152"/>
<rect x="60" y="61" style="fill:#2B5C74;" width="196" height="30"/>
<g>
</g>
<g>
</g>
<g>
</g>
<g>
</g>
<g>
</g>
<g>
</g>
<g>
</g>
<g>
</g>
<g>
</g>
<g>
</g>
<g>
</g>
<g>
</g>
<g>
</g>
<g>
</g>
<g>
</g>
</svg>
