<?xml version="1.0" encoding="iso-8859-1"?>
<!-- Generator: Adobe Illustrator 19.0.0, SVG Export Plug-In . SVG Version: 6.00 Build 0)  -->
<svg xmlns="http://www.w3.org/2000/svg" xmlns:xlink="http://www.w3.org/1999/xlink" version="1.1" id="Capa_1" x="0px" y="0px" viewBox="0 0 512 512" style="enable-background:new 0 0 512 512;" xml:space="preserve">
<path style="fill:#4BB4F5;" d="M437,0H278.498l-60,120.5l60,120.5H437c41.355,0,75-33.645,75-75V75C512,33.645,478.355,0,437,0z"/>
<path style="fill:#7ACBFC;" d="M120,0C78.645,0,45,33.645,45,75v6.897l-45,29.5v18.205l45,29.5V166c0,41.355,33.645,75,75,75  h158.498V0H120z"/>
<rect x="323.5" y="105.5" style="fill:#D2ECFD;" width="30" height="30"/>
<rect x="203.5" y="105.5" style="fill:#FFFFFF;" width="30" height="30"/>
<rect x="263.5" y="105.5" style="fill:#D2ECFD;" width="30" height="30"/>
<path style="fill:#BE40FF;" d="M437,271H278.498l-60,120.5l60,120.5H437c41.355,0,75-33.645,75-75v-91  C512,304.645,478.355,271,437,271z"/>
<path style="fill:#CD6EFF;" d="M120,271c-41.355,0-75,33.645-75,75v6.897l-45,29.5v18.205l45,29.5V437c0,41.355,33.645,75,75,75  h158.498V271H120z"/>
<rect x="323.5" y="376.5" style="fill:#E6B5FF;" width="30" height="30"/>
<rect x="203.5" y="376.5" style="fill:#FFFFFF;" width="30" height="30"/>
<rect x="263.5" y="376.5" style="fill:#E6B5FF;" width="30" height="30"/>
<g>
</g>
<g>
</g>
<g>
</g>
<g>
</g>
<g>
</g>
<g>
</g>
<g>
</g>
<g>
</g>
<g>
</g>
<g>
</g>
<g>
</g>
<g>
</g>
<g>
</g>
<g>
</g>
<g>
</g>
</svg>
