<?xml version="1.0" encoding="UTF-8"?>
<svg width="60px" height="60px" viewBox="0 0 60 60" version="1.1" xmlns="http://www.w3.org/2000/svg" xmlns:xlink="http://www.w3.org/1999/xlink">
    <!-- Generator: Sketch 51.1 (57501) - http://www.bohemiancoding.com/sketch -->
    <title>icons/Discord</title>
    <desc>Created with Sketch.</desc>
    <defs></defs>
    <g id="Page-1" stroke="none" stroke-width="1" fill="none" fill-rule="evenodd">
        <g id="Desktop-HD" transform="translate(-1223.000000, -2710.000000)">
            <g id="social" transform="translate(0.000000, 2465.000000)">
                <g id="icons/Discord" transform="translate(1223.000000, 245.000000)">
                    <path d="M0,30 C0,13.4314567 13.4314567,0 30,0 C46.5685433,0 60,13.4314567 60,30 C60,46.5685433 46.5685433,60 30,60 C13.4314567,60 0,46.5685433 0,30 Z" id="back" fill="#7289DA"></path>
                    <g id="discord" stroke-width="1" transform="translate(16.000000, 14.000000)" fill="#FFFFFF">
                        <path d="M11.6133568,14 C10.711775,14 10,14.9009009 10,16 C10,17.0990991 10.7275923,18 11.6133568,18 C12.5149385,18 13.2267135,17.0990991 13.2267135,16 C13.2425308,14.9009009 12.5149385,14 11.6133568,14 Z M17.3866432,14 C16.4850615,14 15.7732865,14.9009009 15.7732865,16 C15.7732865,17.0990991 16.5008787,18 17.3866432,18 C18.288225,18 19,17.0990991 19,16 C19,14.9009009 18.288225,14 17.3866432,14 Z" id="Shape" fill-rule="nonzero"></path>
                        <path d="M25.6028571,0 L3.39714286,0 C1.52457143,0 0,1.518 0,3.399 L0,25.707 C0,27.588 1.52457143,29.106 3.39714286,29.106 L22.1891429,29.106 L21.3108571,26.0535 L23.432,28.017 L25.4371429,29.865 L29,33 L29,3.399 C29,1.518 27.4754286,0 25.6028571,0 Z M19.2062857,21.549 C19.2062857,21.549 18.6097143,20.8395 18.1125714,20.2125 C20.2834286,19.602 21.112,18.249 21.112,18.249 C20.4325714,18.6945 19.7862857,19.008 19.2062857,19.2225 C18.3777143,19.569 17.5822857,19.8 16.8034286,19.932 C15.2125714,20.229 13.7542857,20.1465 12.5114286,19.9155 C11.5668571,19.734 10.7548571,19.47 10.0754286,19.206 C9.69428571,19.0575 9.28,18.876 8.86571429,18.645 C8.816,18.612 8.76628571,18.5955 8.71657143,18.5625 C8.68342857,18.546 8.66685714,18.5295 8.65028571,18.513 C8.352,18.348 8.18628571,18.2325 8.18628571,18.2325 C8.18628571,18.2325 8.98171429,19.5525 11.0862857,20.1795 C10.5891429,20.8065 9.976,21.549 9.976,21.549 C6.31371429,21.4335 4.92171429,19.041 4.92171429,19.041 C4.92171429,13.728 7.308,9.4215 7.308,9.4215 C9.69428571,7.6395 11.9645714,7.689 11.9645714,7.689 L12.1302857,7.887 C9.14742857,8.745 7.772,10.0485 7.772,10.0485 C7.772,10.0485 8.13657143,9.8505 8.74971429,9.57 C10.5228571,8.7945 11.9314286,8.58 12.5114286,8.5305 C12.6108571,8.514 12.6937143,8.4975 12.7931429,8.4975 C13.804,8.3655 14.9474286,8.3325 16.1405714,8.4645 C17.7148571,8.646 19.4051429,9.108 21.1285714,10.0485 C21.1285714,10.0485 19.8194286,8.811 17.0022857,7.953 L17.2342857,7.689 C17.2342857,7.689 19.5045714,7.6395 21.8908571,9.4215 C21.8908571,9.4215 24.2771429,13.728 24.2771429,19.041 C24.2771429,19.041 22.8685714,21.4335 19.2062857,21.549 Z" id="Shape" fill-rule="nonzero"></path>
                    </g>
                </g>
            </g>
        </g>
    </g>
</svg>