<?xml version="1.0" encoding="utf-8"?>
<!-- Generator: Adobe Illustrator 21.0.0, SVG Export Plug-In . SVG Version: 6.00 Build 0)  -->
<svg version="1.1" id="Layer_1" xmlns="http://www.w3.org/2000/svg" xmlns:xlink="http://www.w3.org/1999/xlink" x="0px" y="0px"
	 viewBox="0 0 24 24" style="enable-background:new 0 0 24 24;" xml:space="preserve">
<style type="text/css">
	.st0{fill:#8790AB;}
</style>
<g id="Page-1">
	<g id="CSGO_Desktop-THX" transform="translate(-1535.000000, -1027.000000)">
		<g id="footer" transform="translate(0.000000, 999.000000)">
			<g id="instagram-logo" transform="translate(1535.000000, 28.000000)">
				<path id="Shape" class="st0" d="M11.9,14.3c1.3,0,2.4-1.1,2.4-2.4c0-0.5-0.2-1-0.5-1.4c-0.4-0.6-1.1-1-1.9-1
					c-0.8,0-1.5,0.4-1.9,1c-0.3,0.4-0.5,0.9-0.5,1.4C9.5,13.2,10.6,14.3,11.9,14.3z"/>
				<polygon id="Shape_1_" class="st0" points="17.1,9 17.1,7 17.1,6.7 16.8,6.7 14.8,6.7 14.8,9 				"/>
				<path id="Shape_2_" class="st0" d="M11.9,0C5.3,0,0,5.3,0,11.9c0,6.6,5.3,11.9,11.9,11.9c6.6,0,11.9-5.3,11.9-11.9
					C23.8,5.3,18.5,0,11.9,0z M18.7,10.5v5.5c0,1.4-1.2,2.6-2.6,2.6H7.8c-1.4,0-2.6-1.2-2.6-2.6v-5.5V7.8c0-1.4,1.2-2.6,2.6-2.6h8.3
					c1.4,0,2.6,1.2,2.6,2.6V10.5z"/>
				<path id="Shape_3_" class="st0" d="M15.6,11.9c0,2-1.7,3.7-3.7,3.7S8.2,14,8.2,11.9c0-0.5,0.1-1,0.3-1.4h-2v5.5
					c0,0.7,0.6,1.3,1.3,1.3h8.3c0.7,0,1.3-0.6,1.3-1.3v-5.5h-2C15.5,11,15.6,11.4,15.6,11.9z"/>
			</g>
		</g>
	</g>
</g>
</svg>
