<?xml version="1.0" encoding="iso-8859-1"?>
<!-- Generator: Adobe Illustrator 19.0.0, SVG Export Plug-In . SVG Version: 6.00 Build 0)  -->
<svg xmlns="http://www.w3.org/2000/svg" xmlns:xlink="http://www.w3.org/1999/xlink" version="1.1" id="Capa_1" x="0px" y="0px" viewBox="0 0 512 512" style="enable-background:new 0 0 512 512;" xml:space="preserve">
<polygon style="fill:#7A888A;" points="467,30 256,30 206,332 467,332 "/>
<rect x="45" y="30" style="fill:#98A09F;" width="211" height="302"/>
<polygon style="fill:#EAF7FF;" points="437,60 256,60 196,173.5 256,287 437,287 "/>
<rect x="75" y="60" style="fill:#FFFFFF;" width="181" height="227"/>
<polygon style="fill:#7A888A;" points="512,407 196,357 256,482 512,482 "/>
<polygon style="fill:#98A09F;" points="0,407 0,482 256,482 256,357 "/>
<rect x="241" y="387" style="fill:#203F49;" width="30" height="50"/>
<polygon style="fill:#B6B8B5;" points="467,317 256,317 226,362 256,407 512,407 "/>
<polygon style="fill:#CED0CE;" points="45,317 0,407 256,407 256,317 "/>
<polygon style="fill:#FFCCC3;" points="136,164.667 136,252 246,252 216,164.667 "/>
<polygon style="fill:#FFA99B;" points="216,127.333 216,252 286,252 256,127.333 "/>
<polygon style="fill:#FF7F67;" points="296,127.333 256,127.333 256,252 326,252 "/>
<rect x="296" y="90" style="fill:#F85B3F;" width="80" height="162"/>
<polygon style="fill:#3E575F;" points="407,257 256,257 236,242 256,227 407,227 "/>
<rect x="105" y="227" style="fill:#5C6F74;" width="151" height="30"/>
<g>
</g>
<g>
</g>
<g>
</g>
<g>
</g>
<g>
</g>
<g>
</g>
<g>
</g>
<g>
</g>
<g>
</g>
<g>
</g>
<g>
</g>
<g>
</g>
<g>
</g>
<g>
</g>
<g>
</g>
</svg>
