<svg xmlns="http://www.w3.org/2000/svg" viewBox="0 0 761.36 152"><defs><style>.cls-1{fill:#3bb84b;}.cls-2{fill:#3ea308;}</style></defs><title>Asset 1</title><g id="Layer_2" data-name="Layer 2"><g id="Layer_1-2" data-name="Layer 1"><path d="M191.14,89.62q.44,3.71,1.91,5.27,2.6,2.78,9.62,2.78a14.71,14.71,0,0,0,6.55-1.22,4.09,4.09,0,0,0,.47-7.23q-2-1.22-14.56-4.2-9.07-2.25-12.78-5.62t-3.71-9.57a16.58,16.58,0,0,1,5.8-12.67q5.8-5.3,16.32-5.3,10,0,16.27,4t7.22,13.75H210.33a8.23,8.23,0,0,0-1.52-4.25q-2.3-2.83-7.83-2.83-4.55,0-6.49,1.42a4.07,4.07,0,0,0-1.93,3.32,3.63,3.63,0,0,0,2.06,3.47q2.06,1.12,14.53,3.86,8.32,2,12.47,5.91a13.41,13.41,0,0,1,4.1,10,16.16,16.16,0,0,1-5.9,12.92q-5.89,5-18.22,5-12.58,0-18.57-5.3a17.22,17.22,0,0,1-6-13.5Z"/><path d="M250.27,47H236.16V34.2h14.11Zm-14.11,6.35h14.11v53.22H236.16Z"/><path d="M258.28,63.79V53.88h7.42V39h13.77V53.88h8.64v9.91h-8.64V91.92q0,3.27.83,4.08t5.08.81l1.34,0,1.39-.07v10.4l-6.59.24q-9.86.34-13.48-3.42-2.34-2.39-2.34-7.37V63.79Z"/><path d="M331.73,54.47a21.65,21.65,0,0,1,9.2,7.87,26.15,26.15,0,0,1,4.24,11,68,68,0,0,1,.46,10.56H306.86q.32,8,5.57,11.23a14.14,14.14,0,0,0,7.67,2A10.81,10.81,0,0,0,330.7,91H344.9q-.56,4.74-5.16,9.62-7.15,7.76-20,7.76A29,29,0,0,1,301,101.87q-8.12-6.55-8.12-21.31,0-13.83,7.33-21.21t19-7.38A30.3,30.3,0,0,1,331.73,54.47Zm-20.82,12a14.46,14.46,0,0,0-3.71,8.24h24q-.38-5.54-3.71-8.41a12.19,12.19,0,0,0-8.25-2.87Q313.86,63.45,310.91,66.49Z"/><path d="M419.07,53.59a15.48,15.48,0,0,1,6.2,4.79,15.3,15.3,0,0,1,3,6.84,47.29,47.29,0,0,1,.49,7.86l-.1,33.54H414.43V72.73a11.13,11.13,0,0,0-1-5Q411.6,64,406.62,64q-5.76,0-8,4.79a15,15,0,0,0-1.12,6.1v31.69h-14V74.92a17.81,17.81,0,0,0-1-6.88q-1.76-3.86-6.88-3.86-6,0-8,3.86a14.86,14.86,0,0,0-1.12,6.54v32H352.42V53.49h13.53v7.76a22.38,22.38,0,0,1,4.88-5.91q4.05-3.12,10.5-3.12,6.1,0,9.86,2.69a15.63,15.63,0,0,1,4.59,6.4,17.69,17.69,0,0,1,6.79-6.88,20.71,20.71,0,0,1,9.57-2.2A18.53,18.53,0,0,1,419.07,53.59Z"/><path d="M462.66,74.24A22,22,0,0,0,468.22,73q3-1.27,3-4,0-3.27-2.3-4.52a14.54,14.54,0,0,0-6.76-1.25q-5,0-7.08,2.44a10.07,10.07,0,0,0-2,4.88H439.68a20.36,20.36,0,0,1,3.92-11.47q5.54-7,19-7a33.93,33.93,0,0,1,15.59,3.47Q485,59.05,485,68.67V93.09q0,2.54.1,6.15A7.73,7.73,0,0,0,486,103a5,5,0,0,0,2.05,1.61v2.05H472.88a15.4,15.4,0,0,1-.88-3q-.24-1.42-.39-3.22a28.74,28.74,0,0,1-6.68,5.32,20.19,20.19,0,0,1-10.22,2.59,17.63,17.63,0,0,1-12-4.13Q438,100,438,92.45q0-9.81,7.62-14.21,4.18-2.39,12.3-3.42Zm8.51,6.49a15.38,15.38,0,0,1-2.7,1.34,22.83,22.83,0,0,1-3.74,1l-3.17.59a20.84,20.84,0,0,0-6.4,1.9,6.36,6.36,0,0,0-3.29,5.91q0,3.56,2,5.15a7.63,7.63,0,0,0,4.88,1.59,14.54,14.54,0,0,0,8.4-2.64q3.84-2.64,4-9.62Z"/><path d="M540.11,56.44q5.23,4.32,5.23,14.33v35.84H531.08V74.24A14.87,14.87,0,0,0,530,67.79q-2-4.1-7.76-4.1-7,0-9.65,6a20.76,20.76,0,0,0-1.36,8.11v28.81H497.29V53.49h13.48v7.76a23.59,23.59,0,0,1,5.06-5.91,17.52,17.52,0,0,1,10.84-3.22Q534.89,52.12,540.11,56.44Z"/><path d="M579.36,74.24A22,22,0,0,0,584.92,73q3-1.27,3-4,0-3.27-2.3-4.52a14.54,14.54,0,0,0-6.76-1.25q-5,0-7.08,2.44a10.07,10.07,0,0,0-2,4.88H556.38a20.36,20.36,0,0,1,3.92-11.47q5.54-7,19-7a33.93,33.93,0,0,1,15.59,3.47q6.82,3.47,6.82,13.09V93.09q0,2.54.1,6.15a7.73,7.73,0,0,0,.83,3.71,5,5,0,0,0,2.05,1.61v2.05H589.58a15.4,15.4,0,0,1-.88-3q-.24-1.42-.39-3.22a28.74,28.74,0,0,1-6.68,5.32,20.19,20.19,0,0,1-10.22,2.59,17.63,17.63,0,0,1-12-4.13q-4.74-4.13-4.74-11.69,0-9.81,7.62-14.21,4.18-2.39,12.3-3.42Zm8.51,6.49a15.38,15.38,0,0,1-2.7,1.34,22.83,22.83,0,0,1-3.74,1l-3.17.59a20.84,20.84,0,0,0-6.4,1.9,6.36,6.36,0,0,0-3.29,5.91q0,3.56,2,5.15a7.63,7.63,0,0,0,4.88,1.59,14.54,14.54,0,0,0,8.4-2.64q3.84-2.64,4-9.62Z"/><path d="M640.23,53.34a16.71,16.71,0,0,1,8.19,7.71V53.39H662v50.49q0,10.3-3.47,15.53-6,9-22.85,9-10.21,0-16.65-4a14.77,14.77,0,0,1-7.13-12H627a6.27,6.27,0,0,0,1.9,3.52q2.25,1.9,7.57,1.9,7.52,0,10.06-5,1.66-3.22,1.66-10.84V98.56a17,17,0,0,1-4.3,5.13q-4.15,3.17-10.79,3.17-10.25,0-16.38-7.2t-6.13-19.51q0-11.87,5.9-19.95t16.73-8.08A18.3,18.3,0,0,1,640.23,53.34ZM645,91.5q3.36-3.69,3.36-11.74,0-7.57-3.19-11.52a10.39,10.39,0,0,0-8.53-4q-7.29,0-10.07,6.88a24.5,24.5,0,0,0-1.46,9,20.67,20.67,0,0,0,1.56,8.25,10.14,10.14,0,0,0,10.11,6.74A10.69,10.69,0,0,0,645,91.5Z"/><path d="M709.66,54.47a21.65,21.65,0,0,1,9.2,7.87,26.15,26.15,0,0,1,4.24,11,68,68,0,0,1,.46,10.56H684.79q.32,8,5.57,11.23a14.14,14.14,0,0,0,7.67,2A10.81,10.81,0,0,0,708.62,91h14.21q-.56,4.74-5.16,9.62-7.15,7.76-20,7.76a29,29,0,0,1-18.75-6.55q-8.12-6.55-8.12-21.31,0-13.83,7.33-21.21t19-7.38A30.3,30.3,0,0,1,709.66,54.47Zm-20.82,12a14.46,14.46,0,0,0-3.71,8.24h24q-.38-5.54-3.71-8.41a12.19,12.19,0,0,0-8.25-2.87Q691.79,63.45,688.84,66.49Z"/><path d="M760.16,52.15l1.2.07V66.48q-1.32-.15-2.34-.2t-1.66,0q-8.4,0-11.28,5.47-1.61,3.08-1.61,9.47v25.44h-14V53.39h13.28v9.28q3.22-5.32,5.62-7.28a15.29,15.29,0,0,1,10.16-3.27Z"/><rect class="cls-1" x="58.86" y="46" width="28" height="16"/><path class="cls-2" d="M22.86,73.56V67.11L81.43,85.86V61.49A10,10,0,0,0,74.59,52L0,27.14V92.49l56.86,19v6.44L0,98.94v19.43a9,9,0,0,0,6.15,8.54L81.43,152V92.86Z"/><path class="cls-1" d="M156,24.86,81.43,0,0,27.14,81.43,54.29V152l25.43-8.48V69l9-3v74.52l19-6.33V60l9-3v74.19l19-6.33V34.35A10,10,0,0,0,156,24.86Z"/></g></g></svg>