<?xml version="1.0" encoding="UTF-8"?>
<svg width="133px" height="127px" viewBox="0 0 133 127" version="1.1" xmlns="http://www.w3.org/2000/svg" xmlns:xlink="http://www.w3.org/1999/xlink">
    <!-- Generator: Sketch 51.1 (57501) - http://www.bohemiancoding.com/sketch -->
    <title>logo</title>
    <desc>Created with Sketch.</desc>
    <defs>
        <polygon id="path-1" points="0 0.0578455622 132.978356 0.0578455622 132.978356 53.6209553 0 53.6209553"></polygon>
        <polygon id="path-3" points="0.0108081792 0.0649553571 110.913535 0.0649553571 110.913535 96.9241971 0.0108081792 96.9241971"></polygon>
    </defs>
    <g id="Page-1" stroke="none" stroke-width="1" fill="none" fill-rule="evenodd">
        <g id="Desktop-HD" transform="translate(-320.000000, -35.000000)">
            <g id="head" transform="translate(6.000000, -4.000000)">
                <g id="logo" transform="translate(314.000000, 39.000000)">
                    <g id="Group-3" transform="translate(0.000000, 73.000000)">
                        <mask id="mask-2" fill="white">
                            <use xlink:href="#path-1"></use>
                        </mask>
                        <g id="Clip-2"></g>
                        <path d="M74.5297587,41.5287017 L65.5801248,35.217758 L49.4339897,38.0091369 L30.2685707,41.3190725 L30.2793925,41.2748297 L13.5055927,44.1766501 L18.3754055,29.8446293 L-2.16436127e-05,22.1435127 L22.1305723,18.4805174 C22.1738596,18.2928441 22.1955032,18.1715901 22.206325,18.1384907 L23.0071386,12.9749913 L28.0609222,12.1364743 L53.6761378,7.70105043 L53.6544942,7.74529323 L55.5158449,7.42522247 C55.9054299,7.35913409 56.295015,7.29293538 56.6629564,7.24880291 C59.6173095,6.86264376 62.0522159,7.13847172 63.9353185,8.07628678 L64.5195878,5.86966311 L84.5508596,2.40515361 L84.6914348,4.56775514 C87.5700353,2.44939641 91.0330133,1.01509102 94.90722,0.353103921 C95.2103388,0.297938329 95.524063,0.253695524 95.8162517,0.209673382 C102.926179,-0.717108562 105.826423,2.81348932 106.919425,4.98701364 L109.029677,9.20166486 L106.52984,11.5958515 L104.278904,18.2267557 L111.150751,17.0351789 L111.540336,16.9688699 L113.077033,19.0211402 L116.35604,16.141386 L132.978443,13.2727752 L122.308034,44.6510742 L98.4568807,48.7774605 L97.0500459,49.0200788 L70.4174723,53.6209994 L74.5297587,41.5287017 Z" id="Fill-1" fill="#1991EB" mask="url(#mask-2)"></path>
                    </g>
                    <g id="Group-6" transform="translate(12.000000, 0.000000)">
                        <mask id="mask-4" fill="white">
                            <use xlink:href="#path-3"></use>
                        </mask>
                        <g id="Clip-5"></g>
                        <path d="M49.7608569,96.9241971 C49.166407,96.9241971 48.5719572,96.9025453 47.9775073,96.8700676 C42.1518987,96.4911614 37.1693281,93.9580107 35.6345667,93.0919393 L33.5269718,93.0919393 L33.0189873,92.713033 C32.9217137,92.6371435 23.3240506,85.4920542 14.9044791,79.3862507 C7.04693281,73.691831 0.972736125,65.009465 0.724148004,64.6413846 L0.0108081792,63.6020989 L0.680915287,62.5303355 C1.18889971,61.7183935 13.1211295,42.6972998 17.9199611,36.8296658 C20.5139241,33.3329025 22.4485881,31.1352462 23.8212269,30.1067864 C25.2587147,29.035023 27.0312561,28.6128132 28.7497566,28.2014292 C30.9438169,27.6817864 33.0189873,27.1837953 34.3592016,25.4408266 C36.499221,22.669398 38.671665,16.1522105 39.7200584,13.0235275 C40.0334956,12.0816748 40.2604674,11.3888176 40.4225901,10.9882596 C40.7252191,10.2304471 41.503408,9.07207656 46.9074976,4.89328192 C49.6311587,2.79305871 52.300779,0.887701562 52.3223953,0.866049777 L53.4356378,0.0649337054 L54.5488802,0.87687567 C54.5704966,0.898527455 57.1968841,2.8038846 59.8665044,4.90410781 C65.1733204,9.07207656 65.9298929,10.2304471 66.2325219,10.9774337 C66.3730282,11.3455141 66.5891918,11.9409382 66.8702045,12.7528801 C67.9834469,15.9356926 70.3072055,22.571965 72.5012658,25.4300007 C73.84148,27.1729694 75.9166504,27.6709605 78.1107108,28.1906033 C79.8292113,28.6019873 81.6017527,29.0241971 83.0392405,30.0959605 C85.9358325,32.271965 90.972444,39.6335721 91.6641675,40.651206 C95.6091529,45.9017641 109.562512,67.434465 110.146154,68.3546658 L110.913535,69.5455141 L109.994839,70.6281033 C109.875949,70.76884 106.914508,74.2331257 102.029211,77.4485241 C98.7975657,79.5702908 95.9333982,80.8910498 91.6209348,80.8910498 C88.9405063,80.8910498 85.8169426,80.3822328 81.7638754,79.2996435 C80.3047712,78.9100196 78.9321324,78.5201792 77.7324245,78.1845766 C75.3330088,77.5133712 73.3334956,76.9504248 71.8419669,76.6581257 C70.4260954,78.3902685 68.7616358,79.8950676 66.8918208,81.1183935 L65.756962,92.2582373 L63.4223953,92.2582373 C60.7743914,95.116273 55.5648491,96.9241971 49.7608569,96.9241971" id="Fill-4" fill="#1991EB" mask="url(#mask-4)"></path>
                    </g>
                    <path d="M86.8905503,60.2487474 C87.278818,58.9656874 87.5590479,57.5304 88.2059811,56.24734 C91.4083003,57.8783485 92.2600956,61.1838589 92.2600956,61.1838589 L86.8905503,60.2487474 Z M46.7806937,77.0046405 C43.8048011,74.199306 39.3086156,66.2291116 36.3974163,63.4455239 C35.9014342,62.9779681 35.6965721,62.2711978 35.8583054,61.607921 C36.1925542,60.2487474 37.7344116,57.138958 39.5026956,56.24734 C39.6428644,56.497428 43.5783745,64.6850903 44.5595565,68.3602959 C46.3709694,75.1452909 48.3333333,76.7109503 48.4950666,76.9176534 C49.2929509,77.7114108 50.1447462,78.4290545 51.0612349,79.0705845 C51.0827993,79.0814579 50.0261418,80.0709364 46.7806937,77.0046405 Z M100.616316,41.5247707 C100.616316,41.5247707 95.1820771,33.4240956 92.4110467,31.3364048 C89.6400163,29.248714 84.4645509,30.1185852 81.5317872,26.2911521 C78.5991313,22.463719 75.7093887,13.0582371 75.0085444,11.3184948 C74.3077001,9.57875246 63.9998983,2 63.9998983,2 C63.9998983,2 53.476452,9.57875246 52.78639,11.3184948 C52.0963279,13.0582371 49.4115553,22.463719 46.4787916,26.2911521 C43.5460279,30.1185852 38.3597803,29.248714 35.5995321,31.3364048 C34.1115858,32.4672373 31.8473197,35.3269387 30.0790357,37.7408312 C25.3348591,43.5689679 13,63.4020303 13,63.4020303 C13,63.4020303 19.0380429,72.1551088 26.704201,77.7549044 C35.2221544,83.9636098 44.7967653,91.1509202 44.7967653,91.1509202 L46.7806937,91.1509202 C46.7806937,91.1509202 52.2257146,94.521671 58.7058285,94.9457331 C65.1859424,95.3697953 70.9976666,93.2603578 73.0893093,90.3026871 L74.6097101,90.3026871 L75.5476554,81.0169212 L75.1918421,80.1796702 C77.4669983,78.9074837 79.4723833,77.1894881 81.1004984,75.1343088 C81.2622317,74.916841 81.4347472,74.7103553 81.5856983,74.5037609 C83.9685688,74.7755957 87.6992168,75.9934153 92.7884244,77.3633536 C103.06388,80.136068 106.762181,78.8639901 111.463229,75.7542007 C116.164276,72.6444113 119,69.2736606 119,69.2736606 C119,69.2736606 104.508697,46.7331243 100.616316,41.5247707 Z" id="Fill-7" fill="#011E41"></path>
                    <path d="M65.2780073,54.1626645 C65.0191758,54.1626645 64.7710256,54.1844034 64.5119784,54.1952729 C63.2820166,53.3474535 59.0958306,50.2605213 55.7188301,45.1409963 C51.7160595,39.0649572 49.9790081,35.0867276 55.4275233,30.7715442 C60.8760385,26.4563608 64.86802,24.988981 64.86802,24.988981 C64.86802,24.988981 68.8600014,26.4454913 74.3085166,30.7715442 C79.7570319,35.0975971 78.0200884,39.0649572 74.0172099,45.1409963 C70.6941551,50.1953044 66.572704,53.2713671 65.2780073,54.1626645 M114.843312,68.0864679 C114.649215,67.8799478 113.430043,66.1408311 111.628256,63.5538949 C111.595889,63.510417 111.574311,63.4778085 111.552625,63.4560696 C111.552625,63.4452001 111.541943,63.4452001 111.541943,63.4343306 C105.305713,54.5104878 92.3156976,35.8584607 90.5785383,35.1302055 C88.3343974,34.2062998 85.4322269,34.4019504 85.4322269,34.4019504 C85.4322269,34.4019504 84.4396261,40.510598 80.9654154,45.293169 C78.8723225,48.1844506 75.3334849,50.4561719 72.8628799,51.8039874 C72.8519829,51.8039874 72.8413016,51.8148568 72.8413016,51.8148568 C71.2875577,52.6626763 70.1546981,53.1409334 70.0791741,53.1735418 C70.7804682,52.5974594 71.5249188,51.9452906 72.2694773,51.2496439 C73.01382,50.5539972 73.7799567,49.8040031 74.5351965,48.9887921 C79.1420509,44.0540484 80.5231686,38.2823546 80.9331559,36.2715009 C81.3430353,34.2606472 77.3510539,30.086767 75.3011174,28.2280859 C75.3011174,28.2280859 77.2431625,28.2280859 78.7860094,29.0541664 C78.7860094,29.0541664 75.6680561,20.0759762 74.4379863,16.1086161 C73.2080245,12.141256 71.5681832,11.2825671 69.8310239,9.96736008 C68.0401348,8.6195446 64.86802,6 64.86802,6 C64.86802,6 61.685224,8.63041408 59.905016,9.96736008 C58.3299096,11.1521334 56.8301114,11.9673443 55.6540952,15.0760155 C55.5354147,15.3912304 55.4168421,15.7390538 55.2980537,16.1086161 C54.0681997,20.0759762 50.9500306,29.0541664 50.9500306,29.0541664 C52.4820884,28.2280859 54.4349225,28.2280859 54.4349225,28.2280859 C53.7552068,28.8476463 52.8597082,29.7172047 51.9749988,30.6845883 C51.9318423,30.7389357 51.8778966,30.7932831 51.83474,30.8476305 C50.130164,32.7497895 48.5332635,34.9671633 48.802992,36.2715009 C49.2130871,38.2823546 50.593989,44.0540484 55.2010593,48.9887921 C56.5064372,50.3800855 57.8983441,51.6844231 59.3548778,52.9126743 C45.7388765,46.4888118 44.8325888,34.3910809 44.8325888,34.3910809 C44.8325888,34.3910809 40.9484987,33.9236933 38.5425207,35.4454204 C36.1365427,36.9671476 29.2746503,44.9779541 26.2968479,50.6192141 C23.3191534,56.260474 18,64.2169332 18,64.2169332 C18,64.2169332 19.6723166,66.3473512 22.2941852,69.1516769 C24.4087486,71.4233982 26.6637865,73.5646857 29.0373971,75.5646699 C35.2194659,80.7059338 43.6349944,84.7385108 43.6349944,84.7385108 C44.7786431,84.33634 46.4401705,83.5863459 46.4401705,83.5863459 C45.469148,85.5971997 43.6349944,86.5211055 43.6349944,86.5211055 C45.4044132,89.1080416 47.0119949,88.9993468 47.0119949,88.9993468 C49.57981,87.7167482 51.1551322,83.9341693 51.5110659,82.9885246 C51.5650116,82.8472213 51.5866977,82.771135 51.5866977,82.771135 C39.0064537,78.2820399 36.2661203,66.1190921 32.8890119,64.5104091 C31.357062,63.782154 29.4580657,63.6082423 27.8505918,63.6299813 C26.6852569,63.6517202 25.5200299,63.7712845 24.365592,63.9886741 C25.8868606,62.5212943 28.0338993,62.0647762 29.5335896,61.9343424 C30.116311,61.879995 30.6988167,61.8691255 31.2922193,61.9126035 C32.899801,56.3148214 37.0644087,54.7170079 37.7009679,52.0105075 C38.0138529,50.6518225 37.2694023,49.0974869 36.4494278,47.8692357 C36.4279574,47.8474968 36.4062712,47.8148883 36.3954821,47.7931494 C35.8991817,47.0757637 35.3490435,46.401856 34.7339547,45.7822956 C40.0314219,46.7170709 42.3834542,49.03227 43.6673618,51.5974673 C43.7428857,51.74964 43.8185176,51.9018127 43.8939337,52.0648549 C43.915512,52.1192023 43.9370903,52.1735497 43.9586685,52.2170276 C44.8434858,54.2278813 45.1886304,56.3256909 45.8791353,57.9887213 C47.5407706,61.9669509 50.4860976,72.3799124 50.4860976,72.3799124 C52.0073663,76.6190095 56.5497017,76.9016159 56.5497017,76.9016159 L58.2003321,74.4994609 L62.7101922,74.4994609 L62.8720293,73.6190331 C62.8074023,73.6190331 62.7425596,73.6081636 62.6886139,73.6081636 L62.6562465,73.6081636 L62.5591442,73.5972941 C62.2246809,73.5646857 62.0088981,73.5429467 61.7823262,73.5103383 L61.6420674,73.4885993 L61.5125977,73.4668604 C60.9947191,73.390774 60.0452748,73.140776 59.3871374,72.2494786 C58.9879392,71.7277436 58.6966325,70.9777495 58.6534759,69.9125405 C57.9090253,68.858201 57.9413927,67.7495141 58.0169167,67.1190842 C57.650086,66.4886544 57.4774597,65.7495298 57.5314054,65.0212747 C56.9703702,64.1191078 55.9777694,62.3256437 56.4524915,60.564788 C56.6143286,59.9778361 56.9164245,59.4452316 57.3372009,59.0104524 C58.0277058,58.2713278 59.0634632,57.9669823 60.0452748,58.2278499 C60.0452748,58.2278499 60.2502685,58.2821973 60.6063101,58.3474141 C60.9623517,58.412631 61.4802303,58.4995868 62.1060004,58.5648037 L62.4836203,58.1843719 C63.1093903,57.5648116 63.8539488,57.0648155 64.6522372,56.7169922 C65.1593267,56.5104721 65.6987837,56.4017773 66.2382406,56.4126467 C66.9072752,56.4126467 67.5762018,56.5430805 68.2881771,56.6735143 C68.8708985,56.7930785 69.4534041,56.8800344 70.0468067,56.9343818 L70.9532023,56.9778597 L71.6544963,57.5539421 C72.3557904,58.1300245 73.6504871,59.0756693 74.3408841,59.4017537 L74.9451837,59.6843601 C75.9053092,59.5430569 76.7793374,59.4561011 77.5452584,59.4126231 C77.5452584,59.4126231 78.3868112,59.3800147 78.8723225,59.3908842 C79.2608394,59.4017537 79.6275622,59.4126231 79.9512364,59.4452316 C81.9148597,59.6082738 82.7887799,60.0647919 82.7887799,60.0647919 C83.3607122,58.1843719 84.0403201,56.3474299 84.817246,54.5430962 C85.5507995,52.8691964 86.4356168,51.1626881 87.3957423,49.9670453 C89.93119,46.8257657 94.9481396,45.6844703 95.1099767,45.6518619 C94.7108865,46.0105547 94.354737,46.4127254 94.0526411,46.8475046 C92.18612,49.4779187 92.650053,52.7387626 94.9157722,55.5974358 C96.4909865,57.5648116 97.8612072,59.6843601 99.0049638,61.9343424 C100.20245,62.1299931 101.389256,62.4343385 102.543694,62.8365092 C105.154773,63.7712845 106.837771,65.0430136 107.754848,65.9017025 C108.013895,66.1408311 108.251256,66.3908291 108.47772,66.6516966 L108.639557,66.8473472 L108.456142,66.7821304 C107.549962,66.456046 106.621988,66.184309 105.683333,65.9669194 C101.896345,65.1299695 98.7459166,65.5647486 92.2293845,64.9234493 C84.1159519,64.1299773 80.4906933,63.3908527 80.4906933,63.3908527 C78.839955,61.9995593 76.1426703,63.0538988 76.1426703,63.0538988 C76.121092,63.6408507 76.0996216,64.1951942 76.0563572,64.7060597 C75.7543692,69.0321127 74.8695519,70.7277515 74.2329927,71.3907897 C73.8445837,71.80383 73.5641739,71.8255689 73.5641739,71.8255689 C73.5641739,71.8255689 73.8985294,72.2929566 75.1500695,72.7603442 C76.4017175,73.2277318 78.1926067,72.4777377 78.9047978,71.4994845 C79.5196708,70.6625346 80.3613315,66.5212629 80.3613315,66.5212629 C80.7928971,67.5103855 80.9222589,68.9125484 80.9654154,69.901671 C80.9762046,70.1842775 80.9762046,70.4234061 80.9762046,70.6190567 C80.9762046,70.8364463 80.9762046,70.9777495 80.9654154,71.0212274 L80.9654154,71.0320969 L80.9871016,71.0429664 L81.084096,71.0755748 C82.0443293,71.4233982 88.7120173,73.7712058 98.4870851,75.6842342 C103.946282,76.7494432 108.046154,75.3472803 110.419765,73.5538162 C111.034854,73.0972981 111.671305,72.575563 112.286286,72.032089 C112.912056,71.4886151 113.49467,70.9016632 114.044916,70.2712333 C114.088072,70.2277554 114.12044,70.1842775 114.152807,70.1299301 C114.185282,70.0973217 114.206753,70.0647132 114.228331,70.0321048 C114.271596,69.9777574 114.314644,69.92341 114.34712,69.8690626 C114.433433,69.7603678 114.49806,69.6625425 114.562902,69.5647172 C114.584373,69.5429782 114.59527,69.5103698 114.605951,69.4886308 C114.724739,69.3147191 114.821734,69.129938 114.897258,68.9234179 C114.908047,68.8908094 114.918944,68.8690705 114.929625,68.836462 C114.951203,68.7821146 114.961993,68.7277672 114.97289,68.6734198 C115.037517,68.4668997 114.983571,68.2495101 114.843312,68.0864679" id="Fill-9" fill="#49A8EF"></path>
                    <path d="M73,33.3444562 C72.9573207,33.655585 72.8825252,33.9667137 72.7866034,34.267806 C72.3064612,35.8134132 71.8583284,36.2349425 70.4179016,36.8873092 C69.2975697,37.3891297 66.4059395,35.9137773 65.1789093,35.2413378 C65.0509781,35.171083 64.8801541,35.2112286 64.8054653,35.3316655 C64.7734558,35.391884 64.7628927,35.4621389 64.7734558,35.5223573 C64.826805,35.7431584 64.6882039,35.9639594 64.453361,36.0241779 C64.4320213,36.0241779 64.4107884,36.0342143 64.4000119,36.0342143 L63.9306461,36.0843963 L63.4611737,36.0342143 C63.2157676,36.0141414 63.0449437,35.8033768 63.0662833,35.5825758 C63.0662833,35.562503 63.0770599,35.5424301 63.0770599,35.5323937 C63.1090694,35.391884 63.0237107,35.2513742 62.8743331,35.221265 C62.7995376,35.2011922 62.7248488,35.2112286 62.6714997,35.2513742 C61.4445762,35.9338502 58.5530528,37.3991661 57.4327208,36.8973456 C55.992294,36.2550153 55.5440545,35.8334861 55.0639123,34.2778424 C55.0426793,34.1975511 55.0213397,34.1272963 55,34.0570414 C55.6615293,34.8398814 56.4937759,35.442066 56.877783,35.7431584 C57.0592768,35.8937045 60.0041494,35.8937045 60.0041494,35.8937045 C60.0041494,35.8937045 57.6994665,35.2814835 57.2193242,35.0707188 C57.1873148,35.0606824 57.1553053,35.0406096 57.1339656,35.0205368 C57.1339656,35.0205368 57.1232958,35.0205368 57.1232958,35.0105004 C56.8565501,34.7896993 56.6110373,34.5588619 56.3870777,34.2979152 L57.7528156,33.9968229 L57.998115,33.9968229 C58.0622407,34.1574055 58.1581624,34.2979152 58.2648607,34.438425 C58.4570243,34.6692624 58.7131002,34.8599542 59.0117487,34.9703547 C59.1505631,35.0205368 59.2999407,35.0606824 59.4493183,35.0707188 C59.7479668,35.1008281 60.0361589,35.0205368 60.2814582,34.8499178 C60.4309425,34.7395173 60.5482039,34.5789347 60.6229994,34.4083157 C60.836396,34.5287527 61.0071132,34.6190804 61.1244813,34.6692624 C61.1564908,34.6792988 61.1778305,34.6893352 61.1990634,34.6993717 C61.5832839,34.829845 61.9993005,34.5889711 61.9993005,34.5889711 C61.9993005,34.5889711 61.6686426,34.3380609 61.1990634,33.9968229 C61.039016,33.876386 60.8577356,33.7459126 60.665572,33.6154393 C60.0468287,33.1638008 59.3212804,32.6519439 58.7557795,32.3107059 C58.5637226,32.190269 58.3608892,32.0798685 58.1474926,31.9795044 C57.560652,31.7185577 56.5151156,31.4776839 55.7788975,31.3271377 C56.7710848,30.6446618 57.422051,31.0963003 59.6519384,32.0698321 C61.8819324,33.0433639 61.9140486,32.973109 63.9093065,32.973109 C65.9045643,32.973109 65.9365738,33.0333275 68.1664612,32.0698321 C70.3217664,31.1364459 71.0047421,30.674771 71.943687,31.2669192 C71.2287018,31.407429 69.9164197,31.6884485 69.2442205,31.9895408 C69.0521636,32.0798685 68.86,32.1802326 68.6787196,32.3006695 C68.1772377,32.6117983 67.537048,33.0534003 66.9502075,33.4749296 C66.6834618,33.6656214 66.4272792,33.8563132 66.2033195,34.0168957 C65.7337404,34.3581337 65.4030824,34.609044 65.4030824,34.609044 C65.4030824,34.609044 65.8085359,34.8398814 66.2033195,34.7194445 C66.2458921,34.6993717 66.2992413,34.6792988 66.3420273,34.659226 C66.4806283,34.5889711 66.6834618,34.4785706 66.9288678,34.3380609 C66.9927801,34.5387891 67.120818,34.7194445 67.3023118,34.8499178 C67.867706,35.2714471 68.7640782,35.0907917 69.3081328,34.4484614 C69.4148311,34.3179881 69.5109662,34.1674419 69.5748785,34.0168957 L70.5459395,34.0168957 L71.7621932,33.4448203 C71.1753527,34.1574055 70.4392413,34.9703547 70.1724956,35.0907917 C69.9057499,35.2112286 69.1267457,35.442066 68.4545465,35.6227214 C67.8784825,35.783304 67.3875637,35.9137773 67.3875637,35.9137773 C67.3875637,35.9137773 70.332543,35.9137773 70.5138234,35.7632312 C71.0473148,35.3216291 72.3384707,34.1272963 73,33.3444562" id="Fill-11" fill="#DAB38D"></path>
                    <path d="M72.5611524,67.108948 C72.0154019,68.7134211 68.7731091,69.7607855 66.7291131,70.5295955 C64.6852241,71.2984055 62.5985311,70.9195716 61.7531529,70.8081499 C61.1003925,70.7190125 61.3894263,69.8499229 61.2181034,69.1033972 C61.1754065,68.8694115 61.0683966,68.6577102 60.9078817,68.4905776 C60.1801074,67.7106254 61.1431965,66.8749623 60.4476322,65.9501619 C59.7520678,65.0253614 60.6830539,64.9473662 59.9125827,63.6994426 C59.1422184,62.4515191 58.6819689,61.4041547 59.2598223,60.7690508 C59.2598223,60.7690508 63.1335806,61.8164152 67.5424953,60.9696099 C67.5424953,60.9696099 66.0122538,60.1228047 64.3106894,59.9668142 C64.6852241,59.5991225 65.1132636,59.2982838 65.5842142,59.0865825 C66.3118815,58.7634594 68.0132318,59.443132 69.7576001,59.5211272 C69.7576001,59.5211272 71.1808318,60.7244821 72.4114456,61.4598656 C72.6146574,61.5824295 72.8179762,61.6938512 73,61.7829886 C72.978491,61.7718465 73.0962019,65.4933327 72.5611524,67.108948" id="Fill-13" fill="#DAB38D"></path>
                    <path d="M65,78.4971429 C65,78.4971429 64.6635514,79 63.9813084,79 C63.2990654,79 63,78.5658286 63,78.5658286 L63.4205607,75.6285714 L63.7943925,73 L64.635514,73 L64.728972,74.4172571 L65,78.4971429 Z" id="Fill-15" fill="#A2A9AD"></path>
                    <path d="M63.4347826,78 L61,77 L65,77 C64.1973244,77.2290361 63.6220736,77.5904819 63.4347826,78" id="Fill-17" fill="#0055B8"></path>
                    <path d="M74,82.5911329 L72.7666204,88.9927452 C72.7666204,88.9927452 70.1456889,88.9340148 69.2426788,88.9927452 C68.3397789,89.0514756 60.542948,88.7343315 60.542948,88.7343315 C59.9703075,88.4876638 59.4967779,88.0413129 59.2104576,87.454009 C58.736928,86.4908307 59.2104576,84.4117749 59.2104576,84.4117749 C68.9563586,83.6012956 70.0025288,82.2270045 70.0025288,82.2270045 L61.5891182,81.9216065 L62.6683253,79.5841371 C63.2740028,79.7838204 63.9017049,79.877789 64.5405294,79.8660429 C66.3464394,79.8660429 67.8220899,79.1612783 67.8220899,78.2803225 C67.8220899,77.751749 67.2936088,77.2819059 66.467685,77 L70.7183294,77 L74,82.5911329 Z" id="Fill-19" fill="#0055B8"></path>
                    <path d="M70,90.0122756 L69.9791992,90.0441027 C69.8543942,90.2667862 69.0015601,91.6777867 66.9214769,92.2401712 C64.6541862,92.8554947 59.5475819,93.4813212 55.6682267,92.4523517 C53.348934,91.8369221 50,89.5666965 50,89.5666965 C52.8289132,87.7949891 52.6313053,83.5407694 54.6177847,82.0978357 C56.6042642,80.6551142 60.4836193,79 60.4836193,79 C60.4836193,79 60.5460218,79.1380234 60.4420177,79.4455791 C60.3276131,79.774565 60.026001,80.3050164 59.2459698,81.0687602 C57.7275091,82.5540239 54.8569943,84.3257313 56.7602704,87.381131 C58.6635465,90.4366367 63.3333333,90.8502826 66.2038482,90.4366367 C69.074363,90.0228846 70,90.0122756 70,90.0122756" id="Fill-21" fill="#DAB38D"></path>
                    <path d="M74,34.1345566 C73.9170984,34.3058104 73.7409326,34.587156 73.5336788,34.9174312 C72.9430052,35.8470948 72.0206218,37.1804281 71.7202073,37.351682 C71.4715026,37.4862385 70.7046632,37.7798165 70.0517098,38 C69.3367876,37.853211 68.7772021,37.5351682 68,36.8134557 C68.1346114,36.7278287 68.3316062,36.5932722 68.5699482,36.4220183 C68.6321244,36.6666667 68.7563731,36.8868502 68.9326425,37.0458716 C69.4817617,37.559633 70.3523316,37.3394495 70.8807254,36.5565749 C71.2331606,36.0183486 71.3470466,35.3700306 71.2124352,34.8440367 C71.1813472,34.7461774 71.1502591,34.648318 71.1088083,34.5626911 C71.8756477,34.0611621 73.5232124,34 73.9689119,34 L74,34.1345566 Z" id="Fill-23" fill="#FFFFFF"></path>
                    <path d="M61,36.8430769 C60.238422,37.5323077 59.6723842,37.8523077 58.9622642,38 C58.2727273,37.7538462 57.4699828,37.4584615 57.212693,37.3107692 C57.2024014,37.2984615 57.1818182,37.2984615 57.1715266,37.2861538 C57.161235,37.2738462 57.161235,37.2861538 57.161235,37.2738462 C56.7907376,36.9292308 55.9777015,35.76 55.4425386,34.8984615 C55.2469983,34.5784615 55.0823328,34.3076923 55,34.1476923 C55.0102916,34.0984615 55.0205832,34.0492308 55.0308748,34 C55.1132075,34 55.2469983,34 55.4219554,34.0123077 L55.4939966,34.0123077 L55.5763293,34.0123077 C55.6277873,34.0123077 55.6792453,34.0123077 55.7409949,34.0246154 C55.8027444,34.0369231 55.8542024,34.0369231 55.915952,34.0369231 L56.0497427,34.0492308 L56.1526587,34.0615385 C56.3584906,34.0861538 56.5643225,34.1230769 56.7701544,34.16 L56.8627787,34.1846154 C56.8936535,34.1846154 56.9245283,34.1969231 56.9656947,34.2092308 L57.058319,34.2338462 C57.1200686,34.2461538 57.1818182,34.2707692 57.2435678,34.2830769 L57.3361921,34.3076923 C57.3670669,34.32 57.3979417,34.32 57.4185249,34.3323077 C57.4802744,34.3569231 57.5317324,34.3815385 57.5831904,34.3938462 C57.6140652,34.4061538 57.6346484,34.4184615 57.6552316,34.4307692 C57.7066895,34.4553846 57.7478559,34.48 57.7993139,34.5046154 C57.8096055,34.5046154 57.8096055,34.5046154 57.8198971,34.5169231 L57.8919383,34.5661538 L58.0051458,34.64 C57.974271,34.7261538 57.9433962,34.8123077 57.922813,34.8984615 C57.8198971,35.4769231 57.9433962,36.0923077 58.2624357,36.5476923 C58.4476844,36.8307692 58.6946827,37.0646154 58.9828473,37.2 C59.1166381,37.2615385 59.2607204,37.3107692 59.4048027,37.3230769 C59.6929674,37.36 59.9708405,37.2615385 60.2075472,37.0523077 C60.3516295,36.9169231 60.464837,36.72 60.5368782,36.5107692 C60.7221269,36.6707692 60.8867925,36.7815385 61,36.8430769" id="Fill-25" fill="#FFFFFF"></path>
                    <path d="M71.5121107,17.7102186 L71.5121107,12.7219115 C71.5121107,12.7219115 73.2530277,13.9969497 74.7344291,15.3390951 C73.5556877,12.1403152 72.0527682,11.3126589 70.4739403,10.0823589 C68.6790657,8.69547534 65.4998919,6 65.4998919,6 C65.4998919,6 62.310013,8.70665989 60.5258434,10.0823589 C58.9472318,11.3014743 57.444096,12.1403152 56.2655709,15.3390951 C57.7469723,13.9969497 59.4878893,12.7219115 59.4878893,12.7219115 L59.4878893,17.7102186 C59.4985943,19.3879004 58.8391003,20.9984748 57.660359,22.150483 C54.6544118,25.1032028 53,28 53,28 C55.6058607,25.6624301 65.4998919,21.3116421 65.4998919,21.3116421 C65.4998919,21.3116421 75.393923,25.6624301 78,28 C78,28 76.3454801,25.1032028 73.3394247,22.150483 C72.1717128,20.9872903 71.5121107,19.3879004 71.5121107,17.7102186" id="Fill-27" fill="#2798EC"></path>
                    <path d="M59,52.7020251 C52.2932429,51.097335 48.6457083,47.8442898 45.3404644,44.6239934 C42.0352205,41.4036969 37.8421602,41.7748497 34.569006,45.5191266 C34.569006,45.5191266 31.9162536,47.811541 28.1617532,53.2478381 C24.4072528,58.6841351 21.4977824,61.8280178 21.3266371,64.2077622 C21.2303679,65.5941272 21.7758936,67.5699701 22.2572398,69 C19.6579703,66.1836051 18,64.0440184 18,64.0440184 C18,64.0440184 23.2841117,56.0533167 26.2363684,50.3768619 C29.1886251,44.7004072 35.9916514,36.6551242 38.3662927,35.1268479 C40.740934,33.5985716 44.6024002,34.0679708 44.6024002,34.0679708 C44.6024002,34.0679708 45.5009131,46.2286835 59,52.7020251" id="Fill-29" fill="#2798EC"></path>
                    <path d="M61,53 L58.1209131,51.7567568 C56.7278065,50.5456664 55.3966158,49.2595527 54.1479795,47.887698 C49.741635,43.0219012 48.4207635,37.3308481 48.0286298,35.3480895 C47.7706471,34.0619758 49.2979047,31.8755825 50.9283554,30 C46.4704143,35.2730662 51.5268753,44.7045666 61,53" id="Fill-31" fill="#2798EC"></path>
                    <path d="M68,53 L70.8790869,51.7567568 C72.2721935,50.5456664 73.6033842,49.2595527 74.8520205,47.887698 C79.2584682,43.0219012 80.5792364,37.3308481 80.9713701,35.3480895 C81.2293528,34.0619758 79.7020952,31.8755825 78.0717478,30 C82.5295856,35.2730662 77.4731247,44.7045666 68,53" id="Fill-33" fill="#2798EC"></path>
                    <path d="M114.977139,68.5631935 C114.966174,68.6179584 114.955209,68.6727234 114.933389,68.7274884 C114.922315,68.7603474 114.91135,68.7822534 114.900386,68.8151123 C114.823743,69.0122662 114.724951,69.1984671 114.604449,69.384668 C114.593375,69.406574 114.571445,69.439433 114.560481,69.461339 C114.494802,69.5599159 114.41794,69.6694458 114.341187,69.7680228 C114.297328,69.8227877 114.264434,69.8775527 114.220685,69.9323177 C114.198646,69.9651767 114.165862,69.9980356 114.143822,70.0308946 C114.111038,70.0747066 114.06707,70.1185186 114.034176,70.1732835 C113.485941,70.8085572 112.882884,71.3890658 112.247042,71.9476685 C111.63291,72.4843652 110.975028,73.0101089 110.350041,73.4810876 C107.937811,75.2883315 103.77123,76.7012677 98.2230996,75.6278743 C87.7957937,73.5796645 80.8440736,71.071429 80.4383803,70.9180871 L80.4164509,70.8961811 C80.4164509,70.8523691 80.4274156,70.6990272 80.4274156,70.4909203 C82.7299995,71.027617 93.7933668,73.5139466 98.4423933,73.1415448 C103.639764,72.725331 111.786415,70.8852281 109.516725,66.1644879 C109.209714,65.5401673 108.913668,64.8939406 108.617621,64.247714 C107.60887,62.0680683 105.459792,58.7054993 101.611297,53.2509085 C97.7625828,47.7963177 95.0433409,45.496189 95.0433409,45.496189 C91.6882569,41.7283592 87.3899907,41.3559575 84.001903,44.5980436 C80.6139249,47.8401297 76.8748576,51.0931687 70,52.7032588 C70.7565633,52.352763 71.4802325,51.9803612 72.160043,51.5860535 C72.1711173,51.5751005 72.1819723,51.5751005 72.1819723,51.5641475 C74.6929949,50.2059763 78.289302,47.9058476 80.4164509,44.9923513 C83.9581539,40.1730342 84.9558306,34.0174518 84.9558306,34.0174518 C84.9558306,34.0174518 87.9054405,33.8202979 90.1859854,34.7513023 C91.940335,35.4741999 105.141816,54.2804899 111.490369,63.2728976 C111.490369,63.2728976 111.501333,63.2838506 111.501333,63.2948036 C111.512298,63.3167096 111.545192,63.3495685 111.578086,63.3933805 C113.409189,65.98924 114.648198,67.741719 114.845562,67.9607788 C114.988213,68.1250737 115.031962,68.3550866 114.977139,68.5631935" id="Fill-35" fill="#2798EC"></path>
                    <path d="M74,82.3225708 L72.7666204,87.9935732 C72.7666204,87.9935732 70.1456889,87.9415456 69.2426788,87.9935732 C68.3397789,88.0456007 60.542948,87.764652 60.542948,87.764652 C59.9703075,87.5461363 59.4967779,87.1507269 59.2104576,86.6304515 C58.736928,85.7771997 59.2104576,83.9354247 59.2104576,83.9354247 C68.9563586,83.2174445 70.0025288,82 70.0025288,82 L74,82.3225708 Z" id="Fill-37" fill="#173E6A"></path>
                    <path d="M80,67 C80,67 79.2571429,70.8936144 78.7142857,71.6805128 C78.0761905,72.6002642 76.5047619,73.305407 75.4,72.8659702 C74.2952381,72.4265334 74,71.9870966 74,71.9870966 C74,71.9870966 74.2571429,71.9666577 74.5904762,71.5783182 C77.7619048,71.4761236 79.4285714,69.3300369 80,67" id="Fill-39" fill="#2798EC"></path>
                    <path d="M72,34.1351351 C71.9430625,34.3243243 71.8220704,34.6351351 71.6797267,35 C71.4448596,34.6756757 70.9608199,34.3783784 70.0711718,34.9324324 C70.0498915,34.8243243 70.0285399,34.7162162 70,34.6216216 C70.5267428,34.0675676 71.6583751,34 71.9644141,34 L72,34.1351351 Z" id="Fill-41" fill="#A2A9AD"></path>
                    <path d="M57,34.72 C56.9794521,34.8133333 56.9589041,34.9066667 56.9452055,35 C56.0890411,34.4666667 55.5273973,34.6666667 55.2945205,34.9733333 C55.1643836,34.6266667 55.0547945,34.3333333 55,34.16 C55.0068493,34.1066667 55.0136986,34.0533333 55.0205479,34 C55.0753425,34 55.1643836,34 55.2808219,34.0133333 L55.3287671,34.0133333 L55.3835616,34.0133333 C55.4178082,34.0133333 55.4520548,34.0133333 55.4931507,34.0266667 C55.5342466,34.04 55.5684932,34.04 55.609589,34.04 L55.6986301,34.0533333 L55.7671233,34.0666667 C55.9041096,34.0933333 56.0410959,34.1333333 56.1780822,34.1733333 L56.239726,34.2 C56.260274,34.2 56.2808219,34.2133333 56.3082192,34.2266667 L56.369863,34.2533333 C56.4109589,34.2666667 56.4520548,34.2933333 56.4931507,34.3066667 L56.5547945,34.3333333 C56.5753425,34.3466667 56.5958904,34.3466667 56.609589,34.36 C56.6506849,34.3866667 56.6849315,34.4133333 56.7191781,34.4266667 C56.739726,34.44 56.7534247,34.4533333 56.7671233,34.4666667 C56.8013699,34.4933333 56.8287671,34.52 56.8630137,34.5466667 C56.869863,34.5466667 56.869863,34.5466667 56.8767123,34.56 L56.9246575,34.6133333 L57,34.72 Z" id="Fill-43" fill="#A2A9AD"></path>
                    <path d="M73,31.3445844 C72.2938076,31.5313575 70.997365,31.9049036 70.3333333,32.3051316 C70.1435046,32.4252 69.9538867,32.5586093 69.7745982,32.7187005 C69.2793149,33.1322694 68.6469038,33.7192705 68.0671937,34.2795896 C67.8036891,34.5330674 67.5507246,34.7865451 67.3293808,35 L62.3544137,35 C62.1963109,34.8399088 62.0171278,34.6664767 61.8274045,34.4930446 C61.2160738,33.8927026 60.4993412,33.212315 59.9407115,32.7587233 C59.7509881,32.5986321 59.5507246,32.4518818 59.3399209,32.3184725 C58.7602108,31.9716083 57.7272727,31.6514259 57,31.4513119 C57.9802372,30.5441285 58.6231884,31.1444704 60.826087,32.4385409 C63.0289855,33.7326114 63.0606061,33.6392249 65.0315152,33.6392249 C67.002635,33.6392249 67.0341502,33.7192705 69.2371542,32.4385409 C71.397892,31.1711523 72.0724638,30.5708103 73,31.3445844" id="Fill-45" fill="#AD7F66"></path>
                    <path d="M66,73.0781739 C65.4285714,73.3390435 64.6714286,73.6868696 64,74 L64.5714286,72 L65.8571429,72 L66,73.0781739 Z" id="Fill-47" fill="#5B6670"></path>
                    <polygon id="Fill-49" fill="#5B6670" points="37 47 37 47.6 36 47"></polygon>
                    <path d="M36.9202758,52.1361176 C36.2696016,54.8321732 31.928034,56.4238206 30.2564743,62 C30.2564743,62 30.076978,61.9025522 29,61.9891725 C29,61.3936582 29.3589927,60.0835267 30.1779447,58.0912606 C31.6251339,54.5398299 35.9442644,52.1686002 35.5628347,48 L35.6189273,48.0216551 C36.4715349,49.2235112 37.2568314,50.7826759 36.9202758,52.1361176" id="Fill-51" fill="#5EB2F1"></path>
                    <path d="M52,82.7865559 C52,82.7865559 51.9781818,82.8612613 51.9236364,83 C49.0109091,81.7406799 39.4654545,77.3864207 36.9454545,73.0748504 C33.9563636,67.9628647 33.1163636,65.4548968 28,64.0034771 C29.6363636,63.9714604 31.5454545,64.1528879 33.0945455,64.8679256 C36.5090909,66.4367395 39.28,78.3789357 52,82.7865559" id="Fill-53" fill="#5EB2F1"></path>
                    <path d="M105,67.3720866 C102.644938,67.4609301 98.4206118,67.6275117 93.2246905,67.9273586 C85.1456664,68.3937871 80.5517116,66.4614405 80.5517116,66.4614405 C80.5517116,66.4614405 78.8726475,64.984417 76,66.0838556 C76.0316824,65.5618999 76.0633649,65.0066279 76.0844865,64.3958287 C76.0844865,64.3958287 78.7246905,63.3074956 80.3404953,64.7400973 C80.3404953,64.7400973 83.889035,65.4841618 91.8307684,66.3059644 C98.2093955,66.9500799 101.293154,66.5169677 105,67.3720866" id="Fill-55" fill="#5EB2F1"></path>
                    <path d="M103,63 C101.80395,62.5723997 100.585431,62.2488103 99.3336022,62.0407886 C98.1487298,59.6485384 96.7290067,57.3949694 95.0971243,55.3031951 C92.7385575,52.2753229 92.2690797,48.8082937 94.202881,46 C93.0291866,50.4377974 95.0971243,53.4194426 98.3052224,56.2624065 C100.88735,58.5737593 102.474632,61.8212101 103,63" id="Fill-57" fill="#5EB2F1"></path>
                    <path d="M71.0280545,77 L73,81 C73,81 62.9419112,80.640743 63.0002528,80.640743 L70.4096338,79.8606811 L71.0280545,77 Z" id="Fill-59" fill="#80B7E3"></path>
                    <path d="M71,89.5619111 L70.9789566,89.59366 C69.4427876,90.1121197 65.9706247,91.1070249 62.5931572,90.9906122 C58.0688237,90.8318676 54.196836,87.3076324 55.1437896,84.5879146 C56.0907431,81.868091 57.6479555,82.1219765 61.3305525,79 C61.2148137,79.3281779 60.9096843,79.8573265 60.1205563,80.6193004 C58.5843873,82.1009164 55.6803965,83.8681667 57.6058687,86.9161683 C59.5313408,89.964064 64.2555867,90.376694 67.1595774,89.964064 C70.0635682,89.5512223 71,89.5619111 71,89.5619111" id="Fill-61" fill="#AD7F66"></path>
                    <path d="M73.559644,67.9261446 C73.0034725,69.6059966 69.6992682,70.7025666 67.6162421,71.5074957 C65.5333252,72.3124248 63.4067869,71.9157931 62.5452662,71.7991367 C61.8800414,71.7058116 62.1745942,70.7958917 62,70.0142939 C62.7960887,70.1892785 63.9411478,70.2126098 65.5552449,69.8393093 C69.7973071,68.8593957 72.4255993,65.8263296 73.3960642,62 C73.6032653,62.128322 73.8105755,62.2449784 73.995857,62.3383035 C73.9849517,62.3383035 74.1049103,66.2346269 73.559644,67.9261446" id="Fill-63" fill="#AD7F66"></path>
                    <path d="M62,75.5424923 L61.8375143,76.4699516 L57.3095781,76.4699516 L55.6413911,79 C55.6413911,79 51.0809578,78.6908851 49.5535918,74.2374549 C49.5535918,74.2374549 46.5855188,63.2694848 44.9281642,59.0792602 C44.2348917,57.327609 43.8882554,55.1180097 43,53 C44.9823261,57.6252752 46.3797035,62.8000881 48.2753706,66.7269925 C49.1852908,68.6389256 50.690992,70.1730515 52.5324971,71.0660502 C53.1716078,71.3751651 53.799886,71.569793 54.2440137,71.4782034 C56.2480046,71.6041391 56.9412771,68.318362 55.9230331,65.0783796 C56.1288483,65.5706737 56.3671608,66.0400705 56.6379704,66.4865698 C56.5838084,67.2536328 56.7462942,68.0321444 57.1254276,68.6961691 C57.0496009,69.3601937 57.0171038,70.5279613 57.7645382,71.6384852 C57.8078677,72.7604579 58.1003421,73.5505328 58.5011403,74.099956 C59.172748,75.0388639 60.1259977,75.3020696 60.6351197,75.382325 L60.7651083,75.4051079 L60.9059293,75.4280053 C61.1334094,75.4623514 61.350057,75.496812 61.6858609,75.5195949 L61.7833523,75.5310436 L61.8158495,75.5310436 L62,75.5424923 Z" id="Fill-65" fill="#2798EC"></path>
                    <path d="M84,55 C83.3614332,56.9606299 82.8026873,58.9566929 82.3325425,61 C82.3325425,61 81.6142436,60.492126 80,60.3267717 C81.2416576,59.2992126 83.0687568,57.4685039 84,55" id="Fill-67" fill="#2798EC"></path>
                    <path d="M62,86.6066928 C62,86.6066928 72.9475691,87.0807153 72.9475691,86.9879718 C72.9475691,86.8952283 74,83 74,83 L71.64347,86.0708413 L62,86.6066928 Z" id="Fill-69" fill="#0B2742"></path>
                    <path d="M118.030451,92.3971474 L113.214366,96.476104 L110.95298,93.571716 L107.550301,94.1376446 L102.701601,94.9491648 L101.179588,95.1947564 L105.027999,84.2926236 L106.495655,82.9365307 L105.267281,80.5873934 C104.256229,78.6333382 101.897108,76.4443694 96.4830889,77.1277548 C96.2220636,77.1597885 95.9502755,77.2025 95.6784873,77.2452116 C90.2863197,78.142155 86.0028302,80.5126481 83.0240324,84.1965225 L82.7088669,79.6584163 L67.0538711,82.2638232 L65.6623159,87.2824348 C65.4775,86.8232852 65.2382178,86.3961693 64.9339238,86.0010871 C62.7596188,83.2355118 58.5413585,83.7587288 57.149912,83.9295751 C56.812786,83.9722867 56.4650059,84.0256762 56.1061369,84.0790657 L49.7029175,85.1468554 L49.7246605,85.1041438 L28.503444,88.6385277 L25.5790038,89.1083551 L25.1114195,92.0020652 C24.9483467,92.8456191 24.7092818,93.678495 24.4266222,94.4900152 L10,96.785763 L21.9151912,101.601495 L17.5884331,113.881076 L31.1669676,111.617362 L33.2107056,105.819264 L36.4830345,105.274691 L34.4284251,111.104823 L48.0068509,108.841109 L49.072369,105.819264 L50.6922262,108.392637 L64.5425489,106.086211 L67.9235931,105.520176 L69.6847801,102.509116 L70.4348066,102.380981 L70.4021921,105.103845 L73.4898138,104.591306 C73.4788336,104.623339 73.4571993,104.655373 73.446219,104.687407 C73.2397688,105.253335 73.1310535,105.84062 73.1200733,106.438582 L69.0976091,107.111289 L78.1863126,113.293792 L74.7617822,123 L97.6028559,119.198669 L105.68029,117.853254 L107.680759,112.193968 L109.061443,113.881076 L107.789475,117.500883 L121.226571,115.258525 L130,90.3790249 L118.030451,92.3971474 Z" id="Fill-71" fill="#011E41"></path>
                    <path d="M98.7865751,89.3652073 L95.6481368,98.4246584 C95.6481368,98.4246584 93.5117963,98.5679343 92.09124,98.8104014 C90.6706837,99.0528685 88.9638138,99.60393 87.8846315,99.7912909 C81.4315618,100.882393 79.7907643,97.6201086 81.8169841,91.7678354 C83.7881436,86.0588383 88.0167763,82.3336625 94.7121113,81.1984758 C97.3219705,80.7576266 99.9208177,80.9229451 101,83.028 L97.6082842,86.2131355 C97.6082842,86.2131355 96.5291019,85.08897 94.3046649,85.4747131 C90.1090685,86.1800718 88.8867293,87.579768 87.7745108,90.8089884 C86.2218098,95.294629 87.1798594,95.7134358 90.8138406,95.0962469 C91.2983714,95.0190983 91.7168298,94.9419497 92.1132642,94.8537798 L93.3796515,90.2909906 L98.7865751,89.3652073 Z" id="Fill-73" fill="#FFFFFF"></path>
                    <path d="M80.726986,104.647318 C80.3469818,105.711891 79.0169672,106.748599 77.734453,106.961606 C76.4519389,107.174521 75.7204309,106.480235 76.1004351,105.415662 C76.7084417,103.721603 80.726986,101.212822 82,101 L80.6794855,103.055088 L80.726986,104.647318 Z" id="Fill-75" fill="#49A8EF"></path>
                    <path d="M112.893349,113.294884 L116.624469,102.451859 L115.265673,104.057082 L109.797076,108.973434 L107.001631,105.471375 L106.533737,104.169327 L102.802617,115.01224 L97,116 L102.089805,101.183598 C102.490873,100.061143 102.802617,98.9162394 103.047757,97.7488865 L108.939475,96.7386772 L111.612516,100.263185 L112.180649,101.441762 L113.617298,99.9152241 L119.319786,94.9651988 L125,94 L118.718352,112.284675 L112.893349,113.294884 Z" id="Fill-77" fill="#49A8EF"></path>
                    <polygon id="Fill-79" fill="#FFFFFF" points="81 99.4693102 79.8173278 83 69.7014614 84.6186855 68.7484342 87.9646931 64.3622129 94.634981 70.493737 93.6898425 72.3079332 90.7783813 73.2150313 89.3443781 74.4665971 89.1379685 74.374739 94.2221619 63.5699374 95.9386203 59.2526096 96.623031 61.6753653 98.8718088 59 103 65.5793319 101.946225 67.4394572 98.8826725 69.368476 98.57849 74.2254697 97.7963064 74.191023 100.56654"></polygon>
                    <path d="M102,98 L99.9127052,101.963684 L90.6433207,103.416342 L89.9924438,105.066148 L84,106 L84.908871,103.675746 C85.615858,101.787289 85.7955224,100.531673 85.7955224,100.531673 L102,98 Z" id="Fill-81" fill="#49A8EF"></path>
                    <path d="M55.0132476,87.2614383 L44.6517345,89.1119284 C44.6517345,89.1119284 44.442411,90.4777664 43.7830419,92.4714493 L43.489989,93.352635 L51.4338158,92.0969453 L53.5061185,91.7224413 C55.0446462,91.4470708 55.1074432,92.2291232 54.7515933,93.3416202 C54.3957433,94.4210728 53.8201037,95.1921104 52.281576,95.4674809 L47.8334516,96.2605482 L48.6288809,93.8372872 L48.6602795,93.7491687 L39.5651734,95.3022586 L42.4433716,96.5469335 L39,107 L44.6203359,105.997651 L46.4623827,100.413136 L48.8382044,100.038632 L51.6117408,104.752976 L57.7449193,103.662509 L55.274902,98.2652458 C57.608859,97.0536154 59.5346352,95.1150066 60.5603204,92.0088267 C62.1616451,87.1623049 59.1787853,86.5124303 55.0132476,87.2614383" id="Fill-83" fill="#FFFFFF"></path>
                    <polygon id="Fill-85" fill="#FFFFFF" points="32.0712329 97.0866667 32.0712329 97.0866667 32.1041096 97 32.0931507 97 22.5808219 98.5275 25.5945205 99.7516667 22 110 27.8849315 109.014167 29.9452055 103.131667 36.6410959 102.015833 38 98.1266667 31.3041096 99.2533333"></polygon>
                    <path d="M28.2381588,91.2169811 C28.2381588,91.2169811 28.0353569,92.3679245 27.3522348,94.0943396 L27,95 L33.4683122,94.0471698 L40.8225484,92.9433962 L43,89 L28.2381588,91.2169811 Z" id="Fill-87" fill="#FFFFFF"></path>
                    <polygon id="Fill-89" fill="#49A8EF" points="92.9574468 111.748092 86.5767683 112.839695 87.6365727 109.763359 87.7130535 109.741306 95.0333525 108.495335 96.2241576 105 89.4501495 106.168787 86.2162162 106.720102 78 108.131467 81.7912593 110.777778 79.3219149 118 94.803801 115.35369 97 110.766751"></polygon>
                </g>
            </g>
        </g>
    </g>
</svg>