<?xml version="1.0" encoding="iso-8859-1"?>
<!-- Generator: Adobe Illustrator 19.0.0, SVG Export Plug-In . SVG Version: 6.00 Build 0)  -->
<svg xmlns="http://www.w3.org/2000/svg" xmlns:xlink="http://www.w3.org/1999/xlink" version="1.1" id="Capa_1" x="0px" y="0px" viewBox="0 0 512 512" style="enable-background:new 0 0 512 512;" xml:space="preserve">
<path style="fill:#5C6F74;" d="M512,307.261V204.739l-48.553-14.114c-3.815-12.084-8.688-23.82-14.553-35.049l24.372-44.35  l-72.493-72.493l-44.35,24.372c-11.229-5.865-22.965-10.737-35.049-14.553L307.261,0H256l-60,256l60,256h51.261l14.114-48.553  c12.084-3.815,23.82-8.688,35.049-14.553l44.35,24.372l72.493-72.493l-24.372-44.35c5.865-11.229,10.737-22.965,14.553-35.049  L512,307.261z"/>
<path style="fill:#98A09F;" d="M204.739,0l-14.114,48.553c-12.084,3.815-23.82,8.688-35.049,14.553l-44.35-24.372l-72.493,72.493  l24.372,44.35c-5.865,11.229-10.737,22.965-14.553,35.049L0,204.739V307.26l48.553,14.114c3.815,12.084,8.688,23.82,14.553,35.049  l-24.372,44.35l72.493,72.493l44.35-24.372c11.229,5.865,22.965,10.737,35.049,14.553L204.739,512H256V0H204.739z"/>
<path style="fill:#F85B3F;" d="M256,408c83.813,0,152-68.187,152-152l-212-30L256,408z"/>
<path style="fill:#3E575F;" d="M256,104l-60,152h212C408,172.187,339.813,104,256,104z"/>
<path style="fill:#4BB4F5;" d="M256,256H148.57v107.43C176.093,390.953,214.093,408,256,408V256z"/>
<path style="fill:#FABE5C;" d="M256,104c-83.813,0-152,68.187-152,152c0,41.907,17.047,79.907,44.57,107.43L256,256V104z"/>
<g>
</g>
<g>
</g>
<g>
</g>
<g>
</g>
<g>
</g>
<g>
</g>
<g>
</g>
<g>
</g>
<g>
</g>
<g>
</g>
<g>
</g>
<g>
</g>
<g>
</g>
<g>
</g>
<g>
</g>
</svg>
