<?xml version="1.0" encoding="UTF-8"?>
<svg width="27px" height="30px" viewBox="0 0 27 30" version="1.1" xmlns="http://www.w3.org/2000/svg" xmlns:xlink="http://www.w3.org/1999/xlink">
    <!-- Generator: Sketch 49.1 (51147) - http://www.bohemiancoding.com/sketch -->
    <title>“</title>
    <desc>Created with Sketch.</desc>
    <defs></defs>
    <g id="Symbols" stroke="none" stroke-width="1" fill="none" fill-rule="evenodd" fill-opacity="0.54">
        <g id="“" fill="#FFFFFF">
            <path d="M25.632,1.24600639 L25.128,0 C24.119995,0.894573163 23.016006,1.90095288 21.816,3.01916933 C20.615994,4.13738578 19.512005,5.43130256 18.504,6.90095847 C17.495995,8.37061438 16.6440035,10.0638882 15.948,11.9808307 C15.2519965,13.8977732 14.904,16.102224 14.904,18.5942492 C14.904,22.2364399 15.5519935,25.0479134 16.848,27.028754 C18.1440065,29.0095946 19.7039909,30 21.528,30 C22.1520031,30 22.7879968,29.8722058 23.436,29.6166134 C24.0840032,29.3610211 24.6719974,28.9616641 25.2,28.4185304 C25.7280026,27.8753966 26.1599983,27.1725283 26.496,26.3099042 C26.8320017,25.44728 27,24.4089518 27,23.1948882 C27,21.9808246 26.8320017,20.9424963 26.496,20.0798722 C26.1599983,19.2172481 25.7520024,18.5143797 25.272,17.971246 C24.7919976,17.4281123 24.2640029,17.0287553 23.688,16.7731629 C23.1119971,16.5175706 22.5600026,16.3897764 22.032,16.3897764 C21.5039974,16.3897764 20.9760026,16.4536735 20.448,16.5814696 C19.9199974,16.7092658 19.4400022,16.9648543 19.008,17.3482428 C18.7679988,17.0287524 18.5280012,16.549524 18.288,15.9105431 C18.0479988,15.2715623 17.928,14.4408997 17.928,13.4185304 C17.928,11.1181994 18.623993,9.05751709 20.016,7.23642173 C21.408007,5.41532636 23.2799882,3.41854121 25.632,1.24600639 Z M10.728,1.24600639 L10.224,0 C9.21599496,0.894573163 8.112006,1.90095288 6.912,3.01916933 C5.711994,4.13738578 4.60800504,5.43130256 3.6,6.90095847 C2.59199496,8.37061438 1.74000348,10.0638882 1.044,11.9808307 C0.34799652,13.8977732 0,16.102224 0,18.5942492 C0,22.2364399 0.64799352,25.0479134 1.944,27.028754 C3.24000648,29.0095946 4.79999088,30 6.624,30 C7.24800312,30 7.88399676,29.8722058 8.532,29.6166134 C9.18000324,29.3610211 9.76799736,28.9616641 10.296,28.4185304 C10.8240026,27.8753966 11.2559983,27.1725283 11.592,26.3099042 C11.9280017,25.44728 12.096,24.4089518 12.096,23.1948882 C12.096,21.9808246 11.9280017,20.9424963 11.592,20.0798722 C11.2559983,19.2172481 10.8480024,18.5143797 10.368,17.971246 C9.8879976,17.4281123 9.36000288,17.0287553 8.784,16.7731629 C8.20799712,16.5175706 7.65600264,16.3897764 7.128,16.3897764 C6.59999736,16.3897764 6.07200264,16.4536735 5.544,16.5814696 C5.01599736,16.7092658 4.53600216,16.9648543 4.104,17.3482428 C3.8639988,17.0287524 3.6240012,16.549524 3.384,15.9105431 C3.1439988,15.2715623 3.024,14.4408997 3.024,13.4185304 C3.024,11.1181994 3.71999304,9.05751709 5.112,7.23642173 C6.50400696,5.41532636 8.37598824,3.41854121 10.728,1.24600639 Z"></path>
        </g>
    </g>
</svg>