<?xml version="1.0" encoding="iso-8859-1"?>
<!-- Generator: Adobe Illustrator 19.0.0, SVG Export Plug-In . SVG Version: 6.00 Build 0)  -->
<svg xmlns="http://www.w3.org/2000/svg" xmlns:xlink="http://www.w3.org/1999/xlink" version="1.1" id="Capa_1" x="0px" y="0px" viewBox="0 0 512 512" style="enable-background:new 0 0 512 512;" xml:space="preserve">
<path style="fill:#5C6F74;" d="M512,307.261V204.739l-48.553-14.114c-3.815-12.084-8.688-23.82-14.553-35.049l24.372-44.35  l-72.493-72.493l-44.35,24.372c-11.229-5.865-22.965-10.737-35.049-14.553L307.261,0H256l-60,256l60,256h51.261l14.114-48.553  c12.084-3.815,23.82-8.688,35.049-14.553l44.35,24.372l72.493-72.493l-24.372-44.35c5.865-11.229,10.737-22.965,14.553-35.049  L512,307.261z"/>
<path style="fill:#98A09F;" d="M204.739,0l-14.114,48.553c-12.084,3.815-23.82,8.688-35.049,14.553l-44.35-24.372l-72.493,72.493  l24.372,44.35c-5.865,11.229-10.737,22.965-14.553,35.049L0,204.739V307.26l48.553,14.114c3.815,12.084,8.688,23.82,14.553,35.049  l-24.372,44.35l72.493,72.493l44.35-24.372c11.229,5.865,22.965,10.737,35.049,14.553L204.739,512H256V0H204.739z"/>
<path style="fill:#3E575F;" d="M256,104l-71.529,152L256,408c83.813,0,152-68.187,152-152S339.813,104,256,104z"/>
<path id="SVGCleanerId_0" style="fill:#5C6F74;" d="M104,256c0,83.813,68.187,152,152,152V104C172.187,104,104,172.187,104,256z"/>
<path style="fill:#3E575F;" d="M256,104l-60,152l60,152c83.813,0,152-68.187,152-152S339.813,104,256,104z"/>
<g>
	<path id="SVGCleanerId_0_1_" style="fill:#5C6F74;" d="M104,256c0,83.813,68.187,152,152,152V104C172.187,104,104,172.187,104,256z   "/>
</g>
<polygon style="fill:#FFFFFF;" points="241,216 241,186 188.5,186 188.5,241 158.5,241 158.5,271 188.5,271 188.5,326 241,326   241,296 218.5,296 218.5,216 "/>
<polygon style="fill:#D2ECFD;" points="353.5,241 323.5,241 323.5,186 271,186 271,216 293.5,216 293.5,296 271,296 271,326   323.5,326 323.5,271 353.5,271 "/>
<g>
</g>
<g>
</g>
<g>
</g>
<g>
</g>
<g>
</g>
<g>
</g>
<g>
</g>
<g>
</g>
<g>
</g>
<g>
</g>
<g>
</g>
<g>
</g>
<g>
</g>
<g>
</g>
<g>
</g>
</svg>
