<?xml version="1.0" encoding="UTF-8"?>
<svg width="60px" height="60px" viewBox="0 0 60 60" version="1.1" xmlns="http://www.w3.org/2000/svg" xmlns:xlink="http://www.w3.org/1999/xlink">
    <!-- Generator: Sketch 51.1 (57501) - http://www.bohemiancoding.com/sketch -->
    <title>icons/Twitch</title>
    <desc>Created with Sketch.</desc>
    <defs></defs>
    <g id="Page-1" stroke="none" stroke-width="1" fill="none" fill-rule="evenodd">
        <g id="Desktop-HD" transform="translate(-1125.000000, -2710.000000)">
            <g id="social" transform="translate(0.000000, 2465.000000)">
                <g id="icons/Twitch" transform="translate(1125.000000, 245.000000)">
                    <path d="M0,30 C0,13.4314567 13.4314567,0 30,0 C46.5685433,0 60,13.4314567 60,30 C60,46.5685433 46.5685433,60 30,60 C13.4314567,60 0,46.5685433 0,30 Z" id="back" fill="#FFFFFF"></path>
                    <g id="twitch" stroke-width="1" transform="translate(16.000000, 15.000000)" fill="#673AB7">
                        <path d="M1.93333333,0 L0,5.625 L0,26.25 L7.73333333,26.25 L7.73333333,30 L11.6,30 L15.4666667,26.25 L21.2666667,26.25 L29,18.2625 L29,0 L1.93333333,0 Z M27.0666667,16.875 L21.6533333,22.5 L14.7977333,22.5 L10.6333333,25.438125 L10.6333333,22.5 L3.86666667,22.5 L3.86666667,1.875 L27.0666667,1.875 L27.0666667,16.875 Z" id="Shape" fill-rule="nonzero"></path>
                        <rect id="Rectangle-path" fill-rule="nonzero" x="14" y="7" width="1" height="7"></rect>
                        <rect id="Rectangle-path" fill-rule="nonzero" x="20" y="7" width="1" height="7"></rect>
                    </g>
                </g>
            </g>
        </g>
    </g>
</svg>