<?xml version="1.0" encoding="utf-8"?>
<!-- Generator: Adobe Illustrator 21.0.0, SVG Export Plug-In . SVG Version: 6.00 Build 0)  -->
<svg version="1.1" id="Layer_1" xmlns="http://www.w3.org/2000/svg" xmlns:xlink="http://www.w3.org/1999/xlink" x="0px" y="0px"
	 viewBox="0 0 24 24" style="enable-background:new 0 0 24 24;" xml:space="preserve">
<style type="text/css">
	.st0{fill:#8790AB;}
</style>
<g id="Page-1">
	<g id="CSGO_Desktop-THX" transform="translate(-1574.000000, -1027.000000)">
		<g id="footer" transform="translate(0.000000, 999.000000)">
			<g id="vk-social-logotype" transform="translate(1574.000000, 28.000000)">
				<path id="Shape" class="st0" d="M12,0C5.4,0,0,5.4,0,12s5.4,12,12,12s12-5.4,12-12S18.6,0,12,0z M18,13.3
					c0.6,0.5,1.1,1.1,1.6,1.7c0.2,0.3,0.4,0.5,0.6,0.9c0.2,0.4,0,0.9-0.4,1l-2.5,0c-0.6,0.1-1.1-0.2-1.6-0.6c-0.3-0.3-0.7-0.7-1-1.1
					c-0.1-0.1-0.3-0.3-0.4-0.4c-0.3-0.2-0.6-0.2-0.8,0.2c-0.2,0.4-0.2,0.7-0.3,1.1c0,0.6-0.2,0.7-0.8,0.8c-1.2,0.1-2.4-0.1-3.5-0.8
					c-1-0.6-1.7-1.3-2.4-2.2C5.5,12,4.5,10.2,3.6,8.2C3.4,7.8,3.6,7.5,4.1,7.5c0.8,0,1.6,0,2.4,0C6.8,7.5,7,7.7,7.1,8
					c0.4,1.1,1,2.1,1.6,3c0.2,0.3,0.4,0.5,0.6,0.7c0.3,0.2,0.5,0.1,0.6-0.2c0.1-0.2,0.1-0.4,0.1-0.6c0.1-0.7,0.1-1.5,0-2.2
					C10,8.2,9.8,7.9,9.3,7.8c-0.2,0-0.2-0.1-0.1-0.3C9.4,7.3,9.6,7.2,10,7.2l2.8,0c0.4,0.1,0.5,0.3,0.6,0.7l0,3.1
					c0,0.2,0.1,0.7,0.4,0.8c0.2,0.1,0.4-0.1,0.6-0.3c0.7-0.7,1.1-1.5,1.6-2.4c0.2-0.4,0.3-0.8,0.5-1.2c0.1-0.3,0.3-0.4,0.6-0.4
					l2.7,0c0.1,0,0.2,0,0.2,0c0.4,0.1,0.6,0.3,0.4,0.7c-0.2,0.7-0.6,1.3-1.1,1.8c-0.4,0.6-0.9,1.2-1.4,1.8
					C17.5,12.5,17.5,12.8,18,13.3z"/>
			</g>
		</g>
	</g>
</g>
</svg>
