<?xml version="1.0" encoding="utf-8"?>
<!-- Generator: Adobe Illustrator 21.0.0, SVG Export Plug-In . SVG Version: 6.00 Build 0)  -->
<svg version="1.1" id="Layer_1" xmlns="http://www.w3.org/2000/svg" xmlns:xlink="http://www.w3.org/1999/xlink" x="0px" y="0px"
	 viewBox="0 0 14 14" style="enable-background:new 0 0 14 14;" xml:space="preserve">
<style type="text/css">
	.st0{filter:url(#Adobe_OpacityMaskFilter);}
	.st1{fill:#FFFFFF;}
	.st2{mask:url(#mask-2);}
</style>
<g id="wordpress">
	<g id="Desktop-SM" transform="translate(-1229.000000, -4027.000000)">
		<g id="footer" transform="translate(0.000000, 4005.000000)">
			<g id="Icon_x2F_Social_x2F_youtube" transform="translate(1228.000000, 21.000000)">
				<g id="Mask">
					<path id="path-1_1_" d="M6.8,6.3l3,1.7l-3,1.7V6.3z M15,2.5v11c0,0.8-0.7,1.5-1.5,1.5h-11C1.7,15,1,14.3,1,13.5v-11
						C1,1.7,1.7,1,2.5,1h11C14.3,1,15,1.7,15,2.5z M13.7,8c0,0,0-1.9-0.2-2.8c-0.1-0.5-0.5-0.9-1-1C11.6,4,8,4,8,4S4.4,4,3.6,4.2
						c-0.5,0.1-0.9,0.5-1,1C2.3,6.1,2.3,8,2.3,8s0,1.9,0.2,2.8c0.1,0.5,0.5,0.9,1,1C4.4,12,8,12,8,12s3.6,0,4.4-0.2
						c0.5-0.1,0.9-0.5,1-1C13.7,9.9,13.7,8,13.7,8z"/>
				</g>
				<defs>
					<filter id="Adobe_OpacityMaskFilter" filterUnits="userSpaceOnUse" x="0" y="0" width="16" height="16">
						<feColorMatrix  type="matrix" values="1 0 0 0 0  0 1 0 0 0  0 0 1 0 0  0 0 0 1 0"/>
					</filter>
				</defs>
				<mask maskUnits="userSpaceOnUse" x="0" y="0" width="16" height="16" id="mask-2">
					<g class="st0">
						<path id="path-1" class="st1" d="M6.8,6.3l3,1.7l-3,1.7V6.3z M15,2.5v11c0,0.8-0.7,1.5-1.5,1.5h-11C1.7,15,1,14.3,1,13.5v-11
							C1,1.7,1.7,1,2.5,1h11C14.3,1,15,1.7,15,2.5z M13.7,8c0,0,0-1.9-0.2-2.8c-0.1-0.5-0.5-0.9-1-1C11.6,4,8,4,8,4S4.4,4,3.6,4.2
							c-0.5,0.1-0.9,0.5-1,1C2.3,6.1,2.3,8,2.3,8s0,1.9,0.2,2.8c0.1,0.5,0.5,0.9,1,1C4.4,12,8,12,8,12s3.6,0,4.4-0.2
							c0.5-0.1,0.9-0.5,1-1C13.7,9.9,13.7,8,13.7,8z"/>
					</g>
				</mask>
				<g id="UI_x2F_Color_x2F_Flat_x2F_White-_x28_Default_x29_" class="st2">
					<rect id="Base" class="st1" width="16" height="16"/>
				</g>
			</g>
		</g>
	</g>
</g>
</svg>
